<svg xmlns="http://www.w3.org/2000/svg" style="stroke: none; fill: #ffffff; background: transparent" id="sx_PDF_archives" viewBox="0 0 32 32">
    <path d="M-4 -4 v40 h40 v-40 z M 0 1 q 0 -1 1 -1 h30 q 1 0 1 1 v20 h-29 l -3 -3 Z M 6 23 h26 v3 h-21 Z M 12 28 h20 v 3 h -15 Z M 1 1 l 0 17 3 0 0 -6 2 0 c7 0 7 -11 0 -11 Z m 3 6 l 0 -3 1.5 0 c3.5 0 3.5 5 0 5 h-1.5 Z M 11.5 1 l 0 17 l 3 0 c10 0 10 -17 0 -17 Z m 3 3 c5.5 0 6.5 11 0  11Z M 22.3 1 l 0 17 3 0 0 -7 3 0 a 1 1 0 0 0 0 -3.5 l -3 0 0 -3 4 0 a 1 1 0 0 0 0 -3.5 Z" />
</svg>
