<svg xmlns="http://www.w3.org/2000/svg" style="stroke: none; fill: #0099cc" id="sx_menu_apps_30" viewBox="0 0 32 32">
    <path d="M1 2 q0 -1 1-1h6q1 0 1 1v6q0 1 -1 1h-6q-1 0 -1-1z M12 2 q0 -1 1-1h6q1 0 1 1v6q0 1 -1 1h-6q-1 0 -1-1z M23 2 q0 -1 1-1h6q1 0 1 1v6q0 1 -1 1h-6q-1 0 -1-1z M1 13 q0 -1 1-1h6q1 0 1 1v6q0 1 -1 1h-6q-1 0 -1-1z  M12 13 q0 -1 1-1h6q1 0 1 1v6q0 1 -1 1h-6q-1 0 -1-1z  M23 13 q0 -1 1-1h6q1 0 1 1v6q0 1 -1 1h-6q-1 0 -1-1z M1 24 q0 -1 1-1h6q1 0 1 1v6q0 1 -1 1h-6q-1 0 -1-1z M12 24 q0 -1 1-1h6q1 0 1 1v6q0 1 -1 1h-6q-1 0 -1-1z M23 24 q0 -1 1-1h6q1 0 1 1v6q0 1 -1 1h-6q-1 0 -1-1z" />
</svg>

