<svg xmlns="http://www.w3.org/2000/svg" style="stroke: none; fill: #0099cc" id="sx_menu_apps" viewBox="0 0 32 32">
    <path d="M2 3 q0 -1 1-1h4q1 0 1 1v4q0 1 -1 1h-4q-1 0 -1-1z M13 3 q0 -1 1-1h4q1 0 1 1v4q0 1 -1 1h-4q-1 0 -1-1z M25 3 q0 -1 1-1h4q1 0 1 1v4q0 1 -1 1h-4q-1 0 -1-1z M2 14 q0 -1 1-1h4q1 0 1 1v4q0 1 -1 1h-4q-1 0 -1-1z M13 14 q0 -1 1-1h4q1 0 1 1v4q0 1 -1 1h-4q-1 0 -1-1z M25 14 q0 -1 1-1h4q1 0 1 1v4q0 1 -1 1h-4q-1 0 -1-1z M2 25 q0 -1 1-1h4q1 0 1 1v4q0 1 -1 1h-4q-1 0 -1-1z M13 25 q0 -1 1-1h4q1 0 1 1v4q0 1 -1 1h-4q-1 0 -1-1z M25 25 q0 -1 1-1h4q1 0 1 1v4q0 1 -1 1h-4q-1 0 -1-1z" />
</svg>

