<svg xmlns="http://www.w3.org/2000/svg" style="stroke: none; fill: #0099cc" id="sx_menu_calendar" viewBox="0 0 32 32">
    <path d="M1 8 h30 v-2 q0-2 -2-2 h-5v-2 q0-1 -1-1 h-3 q-1 0 -1 1 v2h-6v-2 q0-1 -1-1 h-3 q-1 0 -1 1 v2h-5 q-2 0 -2 2z M1 10 v19 q0 2 2 2 h26 q2 0 2 -2 v-19z M 4 14 q 0 -1 1 -1 h 4 q 1 0 1 1 v 4 q 0 1 -1 1 h -4 q -1 0 -1 -1 Z M 13 14 q 0 -1 1 -1 h 4 q 1 0 1 1 v 4 q 0 1 -1 1 h -4 q -1 0 -1 -1 Z M 22 14 q 0 -1 1 -1 h 4 q 1 0 1 1 v 4 q 0 1 -1 1 h -4 q -1 0 -1 -1 Z M 4 23 q 0 -1 1 -1 h 4 q 1 0 1 1 v 4 q 0 1 -1 1 h -4 q -1 0 -1 -1 Z M 13 23 q 0 -1 1 -1 h 4 q 1 0 1 1 v 4 q 0 1 -1 1 h -4 q -1 0 -1 -1 Z M 22 23 q 0 -1 1 -1 h 4 q 1 0 1 1 v 4 q 0 1 -1 1 h -4 q -1 0 -1 -1 Z" />
</svg>
