<svg xmlns="http://www.w3.org/2000/svg" class="sxSVG" id="sxSVG-p" width="840" height="580">
    <g style="fill: #ffffff" transform="matrix(1,0,0,1,0,-100)">
    <path d="M 20 200 a 20 20 0 0 1 40 0 l 0 20 a 60 60 0 0 1 60 -40 l 120 0 a 100 100 0 0 1 100 100 l 0 120 a 100 100 0 0 1 -100 100 l -120 0 a 60 60 0 0 1 -60 -40 l 0 180 a 20 20 0 0 1 -40 0 Z M 60 390 a 70 70 0 0 0 70 70 l 100 0 a 70 70 0 0 0 70 -70 l 0 -100 a 70 70 0 0 0 -70 -70 l -100 0 a 70 70 0 0 0 -70 70 Z"/>
    </g>
    <path style="fill: #ffffff" d="M 600 470 a 1 1 0 0 1 0 -460 a 1 1 0 0 1 0 460" />
    <g style="fill: #0099dd" transform="matrix(1,0,0,1,420,-100)">
    <path d="M 110 180 a 90 90 0 0 0 -90 90 a 90 90 0 0 0 90 90 l 130 0 a 50 50 0 0 1 50 50 a 50 50 0 0 1 -50 50 l -130 0 a 50 50 0 0 1 -50 -50 a 1 1 0 0 0 -40 0 a 90 90 0 0 0 90 90 l 140 0 a 90 90 0 0 0 90 -90 a 90 90 0 0 0 -90 -90 l -130 0 a 50 50 0 0 1 -50 -50 a 50 50 0 0 1 50 -50 l 130 0 a 50 50 0 0 1 50 50 a 1 1 0 0 0 40 0 a 90 90 0 0 0 -90 -90 Z"/>
    </g>
</svg>
