<svg aria-hidden="true" style="position: absolute; width: 0; height: 0; overflow: hidden;" version="1.1" 
  xmlns="http://www.w3.org/2000/svg" 
  xmlns:xlink="http://www.w3.org/1999/xlink">
  <defs>
    <symbol id="sx_arrows_down" viewBox="0 0 32 32">
      <path d="M8 6.5 a1 1 0 0 0 -2 2 l 9 9 q1 1 2 0 l 9 -9 a1 1 0 0 0 -2-2 l-7 7 q-1 1 -2 0 z m0 8 a1 1 0 0 0 -2 2 l 9 9 q1 1 2 0 l 9 -9 a1 1 0 0 0 -2-2 l-7 7 q-1 1 -2 0 z  " />
    </symbol>
    <symbol id="sx_arrows_down_l" viewBox="0 0 32 32">
      <path d="M4 4.5 a1 1 0 0 0 -2 2 l 13 13 q1 1 2 0 l13 -13 a1 1 0 0 0 -2-2 l-11 11 q-1 1 -2 0  z m0 8 a1 1 0 0 0 -2 2 l 13 13 q1 1 2 0 l13 -13 a1 1 0 0 0 -2-2 l-11 11 q-1 1 -2 0  z  " />
    </symbol>
    <symbol id="sx_arrows_left" viewBox="0 0 32 32">
      <path d="M15.5 6 a1 1 0 0 1 2 2 l -7 7 q-1 1 0 2 l 7 7 a1 1 0 0 1 -2 2 l-9 -9 q-1-1 0 -2z m8 0 a1 1 0 0 1 2 2 l -7 7 q-1 1 0 2 l 7 7 a1 1 0 0 1 -2 2 l-9 -9 q-1-1 0 -2z" />
    </symbol>
    <symbol id="sx_arrows_left_l" viewBox="0 0 32 32">
      <path d="M17.5 2 a1 1 0 0 1 2 2 l -11 11 q-1 1 0 2 l 11 11 a1 1 0 0 1 -2 2 l-13 -13 q-1-1 0 -2z m8 0 a1 1 0 0 1 2 2 l -11 11 q-1 1 0 2 l 11 11 a1 1 0 0 1 -2 2 l-13 -13 q-1-1 0 -2z" />
    </symbol>
    <symbol id="sx_arrows_right" viewBox="0 0 32 32">
      <path d="M8.5 6 a1 1 0 0 0 -2 2 l 7 7 q1 1 0 2 l -7 7 a1 1 0 0 0 2 2 l 9 -9 q1 -1 0 -2 z m8 0 a1 1 0 0 0 -2 2 l 7 7 q1 1 0 2 l -7 7 a1 1 0 0 0 2 2 l 9 -9 q1 -1 0 -2 z" />
    </symbol>
    <symbol id="sx_arrows_right_l" viewBox="0 0 32 32">
      <path d="M6.5 2 a1 1 0 0 0 -2 2 l 11 11 q1 1 0 2 l -11 11 a1 1 0 0 0 2 2 l 13 -13 q1 -1 0 -2z m8 0 a1 1 0 0 0 -2 2 l 11 11 q1 1 0 2 l -11 11 a1 1 0 0 0 2 2 l 13 -13 q1 -1 0 -2 z" />
    </symbol>
    <symbol id="sx_arrows_up" viewBox="0 0 32 32">
      <path d="M6 15.5 a1 1 0 0 0 2 2 l 7-7 q1 -1 2 0 l7 7 a1 1 0 0 0 2-2 l-9 -9 q-1-1 -2 0z m0 8 a1 1 0 0 0 2 2 l 7-7 q1 -1 2 0 l7 7 a1 1 0 0 0 2-2 l-9 -9 q-1-1 -2 0z" />
    </symbol>
    <symbol id="sx_arrows_up_l" viewBox="0 0 32 32">
      <path d="M2 17.5 a1 1 0 0 0 2 2 l 11-11 q1 -1 2 0 l11 11 a1 1 0 0 0 2-2 l-13 -13 q-1-1 -2 0z m0 8 a1 1 0 0 0 2 2 l 11-11 q1 -1 2 0 l11 11 a1 1 0 0 0 2-2 l-13 -13 q-1-1 -2 0z" />
    </symbol>
    <symbol id="sx_arrow_down" viewBox="0 0 32 32">
      <path d="M8 10.5 a1 1 0 0 0 -2 2 l 9 9 q1 1 2 0 l 9 -9 a1 1 0 0 0 -2-2 l-7 7 q-1 1 -2 0 z  " />
    </symbol>
    <symbol id="sx_arrow_down_l" viewBox="0 0 32 32">
      <path d="M4 8.5 a1 1 0 0 0 -2 2 l 13 13 q1 1 2 0 l13 -13 a1 1 0 0 0 -2-2 l-11 11 q-1 1 -2 0  z  " />
    </symbol>
    <symbol id="sx_arrow_left" viewBox="0 0 32 32">
      <path d="M19.5 6 a1 1 0 0 1 2 2 l -7 7 q-1 1 0 2 l 7 7 a1 1 0 0 1 -2 2 l-9 -9 q-1-1 0 -2z" />
    </symbol>
    <symbol id="sx_arrow_left_l" viewBox="0 0 32 32">
      <path d="M21.5 2 a1 1 0 0 1 2 2 l -11 11 q-1 1 0 2 l 11 11 a1 1 0 0 1 -2 2 l-13 -13 q-1-1 0 -2z" />
    </symbol>
    <symbol id="sx_arrow_right" viewBox="0 0 32 32">
      <path d="M12.5 6 a1 1 0 0 0 -2 2 l 7 7 q1 1 0 2 l -7 7 a1 1 0 0 0 2 2 l 9 -9 q1 -1 0 -2 z" />
    </symbol>
    <symbol id="sx_arrow_right_l" viewBox="0 0 32 32">
      <path d="M10.5 2 a1 1 0 0 0 -2 2 l 11 11 q1 1 0 2 l -11 11 a1 1 0 0 0 2 2 l 13 -13 q1 -1 0 -2 z" />
    </symbol>
    <symbol id="sx_arrow_up" viewBox="0 0 32 32">
      <path d="M6 19.5 a1 1 0 0 0 2 2 l 7-7 q1 -1 2 0 l7 7 a1 1 0 0 0 2-2 l-9 -9 q-1-1 -2 0z" />
    </symbol>
    <symbol id="sx_arrow_up_l" viewBox="0 0 32 32">
      <path d="M2 21.5 a1 1 0 0 0 2 2 l 11-11 q1 -1 2 0 l11 11 a1 1 0 0 0 2-2 l-13 -13 q-1-1 -2 0z" />
    </symbol>
    <symbol id="sx_books" viewBox="0 0 32 32">
      <path d="M2 4q0 -2 2 -2 h4q2 0 2 2v24q0 2 -2 2 h-4q-2 0 -2-2z m2 1v2h4v-2z m0 4 v2h4v-2z M12 4q0 -2 2 -2 h4q2 0 2 2v24q0 2 -2 2 h-4q-2 0 -2-2z m2 1v2h4v-2z m0 4 v2h4v-2z M22 4q0 -2 2 -2 h4q2 0 2 2v24q0 2 -2 2 h-4q-2 0 -2-2z m2 1v2h4v-2z m0 4 v2h4v-2z " />
    </symbol>
    <symbol id="sx_book_open" viewBox="0 0 32 32">
      <path d="M2 7v23 q2-2.5 12 0q-6-4 -10 -3v-22q-2 0 -2 2 m4-5v22 q5 0 9.5 6v-22 q-5 -6 -9.5 -6 M30 7 q0 -2 -2-2 v22 q-4-1 -10 3 q10-2.5 12 0 z m-4-5 q-4.5 0 -9.5 6 v22 q4.5-6 9.5-6z" />
    </symbol>
    <symbol id="sx_camera" viewBox="0 0 32 32">
      <path d="M2,10 q0 -4 4-4 h3l4-4h6l4 4h3q4 0 4 4 v16q0 4 -4 4 h-20q-4 0 -4-4z m14 -6a1 1 0 0 0 0 3a1 1 0 0 0 0 -3 m0 5a1 1 0 0 0 0 18a1 1 0 0 0 0 -18 m0 2a1 1 0 0 1 0 14a1 1 0 0 1 0 -14" />
    </symbol>
    <symbol id="sx_circle" viewBox="0 0 32 32">
      <path d="M16 10 a1 1 0 0 1 0 12 a1 1 0 0 1 0-12" />
    </symbol>
    <symbol id="sx_circle_l" viewBox="0 0 32 32">
      <path d="M16 8 a1 1 0 0 1 0 16 a1 1 0 0 1 0-16" />
    </symbol>
    <symbol id="sx_circle_s" viewBox="0 0 32 32">
      <path d="M16 12 a1 1 0 0 1 0 8 a1 1 0 0 1 0-8" />
    </symbol>
    <symbol id="sx_clear" viewBox="0 0 32 32">
      <path d="M5 3 a1 1 0 0 0 -2 2 l11 11 -11 11 a1 1 0 0 0 2 2 l11 -11 11 11 a1 1 0 0 0 2 -2 l-11 -11 11 -11 a1 1 0 0 0 -2-2 l-11 11z" />
    </symbol>
    <symbol id="sx_clear_bold" viewBox="0 0 32 32">
      <path d="M2 6 a1 1 0 0 1 4 -4 l10 10 10-10 a1 1 0 0 1 4 4 l-10 10 10 10 a1 1 0 0 1 -4 4 l-10 -10 -10 10 a1 1 0 0 1 -4-4 l10-10z" />
    </symbol>
    <symbol id="sx_clear_bold_small" viewBox="0 0 32 32">
      <path d="M5 9 a1 1 0 0 1 4 -4 l7 7 7-7 a1 1 0 0 1 4 4 l-7 7 7 7 a1 1 0 0 1 -4 4 l-7 -7 -7 7 a1 1 0 0 1 -4-4 l7-7z"/>
    </symbol>
    <symbol id="sx_clear_borders" viewBox="0 0 32 32">
      <path d="M2 6 a1 1 0 0 1 4 -4 l10 10 10-10 a1 1 0 0 1 4 4 l-10 10 10 10 a1 1 0 0 1 -4 4 l-10 -10 -10 10 a1 1 0 0 1 -4-4 l10-10z M5 3 a1 1 0 0 0 -2 2 l11 11 -11 11 a1 1 0 0 0 2 2 l11 -11 11 11 a1 1 0 0 0 2 -2 l-11 -11 11 -11 a1 1 0 0 0 -2-2 l-11 11z" />
    </symbol>
    <symbol id="sx_clear_borders_small" viewBox="0 0 32 32">
      <path d="M5 9 a1 1 0 0 1 4 -4 l7 7 7-7 a1 1 0 0 1 4 4 l-7 7 7 7 a1 1 0 0 1 -4 4 l-7 -7 -7 7 a1 1 0 0 1 -4-4 l7-7z M8 6 a1 1 0 0 0 -2 2 l8 8 -8 8 a1 1 0 0 0 2 2 l8 -8 8 8 a1 1 0 0 0 2 -2 l-8 -8 8 -8 a1 1 0 0 0 -2-2 l-8 8z"/>
    </symbol>
    <symbol id="sx_clear_small" viewBox="0 0 32 32">
      <path d="M8 6 a1 1 0 0 0 -2 2 l8 8 -8 8 a1 1 0 0 0 2 2 l8 -8 8 8 a1 1 0 0 0 2 -2 l-8 -8 8 -8 a1 1 0 0 0 -2-2 l-8 8z"/>
    </symbol>
    <symbol id="sx_clock" viewBox="0 0 32 32">
      <path d="M16 1 a1 1 0 0 0 0 30 a1 1 0 0 0 0 -30 M16 4 a1 1 0 0 1 0 24 a1 1 0 0 1 0 -24 m-1.5 3 v10.5 h8 a1 1 0 0 0 0 -3 h-5 v-8.5 a1 1 0 0 0 -3 0z" />
    </symbol>
    <symbol id="sx_down" viewBox="0 0 32 32">
      <path d="M16 21 l 10-10 h-20z" />
    </symbol>
    <symbol id="sx_down_l" viewBox="0 0 32 32">
      <path d="M16 22 l 12-12 h-24z" />
    </symbol>
    <symbol id="sx_down_s" viewBox="0 0 32 32">
      <path d="M16 20 l 8-8 h-16z" />
    </symbol>
    <symbol id="sx_down_xl" viewBox="0 0 32 32">
      <path d="M16 23 l 14-14 h-28z" />
    </symbol>
    <symbol id="sx_film" viewBox="0 0 32 32">
      <path d="m2 2 v4h3v4h-3 v4h3v4h-3 v4h3v4h-3 v4h3v2h22v-2h3 v-4h-3v-4h3 v-4h-3v-4h3 v-4h-3v-4h3 v-4h-3v-2h-22v2z m7 1 h14 v12h-14z m0 14 h14 v12h-14z" />
    </symbol>
    <symbol id="sx_folder" viewBox="0 0 32 32">
      <path d="M2 4q0 -2 2 -2 h8 l 4 4h10q4 0 4 4v16q0 4 -4 4 h-20q-4 0 -4-4z" />
    </symbol>
    <symbol id="sx_full_screen" viewBox="0 0 32 32">
      <path d="M1 1 v12 l4-4 5 5 4-4 -5-5 4-4z M1 31 h12 l-4-4 5-5 -4-4 -5 5 -4-4z M31 31 v-12 l-4 4 -5-5 -4 4 5 5 -4 4z M31 1 h-12 l 4 4 -5 5 4 4 5-5 4 4z" />
    </symbol>
    <symbol id="sx_gear" viewBox="0 0 32 32">
      <path d="M15 5 h2 l 2 -4 5.5 2.25 -1.5 4.25 1.5 1.5 4.25 -1.5 2.25 5.5 -4 2 0 2 4 2 -2.25 5.5 -4.25 -1.5 -1.5 1.5 1.5 4.25 -5.5 2.25 -2 -4 -2 0 -2 4 -5.5 -2.25 1.5 -4.25 -1.5 -1.5 -4.25 1.5 -2.25 -5.5 4 -2 0 -2 -4 -2 2.25 -5.5 4.25 1.5 1.5 -1.5 -1.5 -4.25 5.5 -2.25z m1 3 a1 1 0 0 0 0 16  a1 1 0 0 0 0 -16z m0 3 a1 1 0 0 1 0 10 a1 1 0 0 1 0 -10" />
    </symbol>
    <symbol id="sx_heart" viewBox="0 0 32 32">
      <path d="M16 30 l10 -10 c11 -11 0 -22 -10 -14 c-10 -8 -21 3 -10 14 l10 10z" />
    </symbol>
    <symbol id="sx_heart_tall" viewBox="0 0 32 32">
      <path d="M16 30 l10 -10 c11 -11 -3 -26 -10 -13 c-7 -13 -21 2 -10 13 l10 10z" />
    </symbol>
    <symbol id="sx_home" viewBox="0 0 32 32">
      <path d="M1 14 a1 1 0 0 0 2 2 l 11-11 q2 -2 4 0 l11 11 a1 1 0 0 0 2-2 l-5 -5 v-8h-3v5 l-4-4 q-3-3 -6 0z m2 4 v14h9.5v-10h7v10h9.5v-14 l-11 -11 q-2-2 -4 0z m13 -6 a1 1 0 0 1 0 5 a1 1 0 0 1 0-5" />
    </symbol>
    <symbol id="sx_image" viewBox="0 0 32 32">
      <path d="M4,1 a1 1 0 0 1 0 6a1 1 0 0 1 0-6 m-3 17 q0-10 6-2 q4-14 9-2 q14-28 15 4 v4h-9v9h-20 q-1 0 -1-1z m23 6 h7l-7 7z" />
    </symbol>
    <symbol id="sx_image_gallery" viewBox="0 0 32 32">
      <path d="M4,1 a1 1 0 0 1 0 6a1 1 0 0 1 0-6 m-3 17 q0-10 6-2 q4-14 9-2 q14-28 15 4 v3h-27z m5 5h25v3h-22z m5 5h20v3h-17z" />
    </symbol>
    <symbol id="sx_info" viewBox="0 0 32 32">
      <path d="M 16 0 a 1 1 0 1 1 0 10 a 1 1 0 1 1 0 -10 Z m -5 14 c0 -3 10 -3 10 0 v 17 q 0 1 -1 1 h -8 q -1 0 -1 -1 z" />
    </symbol>
    <symbol id="sx_left" viewBox="0 0 32 32">
      <path d="M11 16 l10 -10 0 20 z" />
    </symbol>
    <symbol id="sx_left_l" viewBox="0 0 32 32">
      <path d="M10 16 l12 -12 0 24 z" />
    </symbol>
    <symbol id="sx_left_s" viewBox="0 0 32 32">
      <path d="M12 16 l8 -8 0 16 z" />
    </symbol>
    <symbol id="sx_left_xl" viewBox="0 0 32 32">
      <path d="M9 16 l14 -14 0 28 z" />
    </symbol>
    <symbol id="sx_library" viewBox="0 0 32 32">
      <path d="M2 4q0 -2 2 -2 h4q2 0 2 2v24q0 2 -2 2 h-4q-2 0 -2-2z m2 1v2h4v-2z m0 4 v2h4v-2z "/>
      <path d="M12 4q0 -2 2 -2 h4q2 0 2 2v24q0 2 -2 2 h-4q-2 0 -2-2z m2 1v2h4v-2z m0 4 v2h4v-2z" transform="rotate(-4.7 14 28)" />
      <path d="M22 4q0 -2 2 -2 h4q2 0 2 2v24q0 2 -2 2 h-4q-2 0 -2-2z m2 1v2h4v-2z m0 4 v2h4v-2z" transform="rotate(-9.4 24 28)" />
    </symbol>
    <symbol id="sx_link" viewBox="0 0 32 32">
      <path d="M-8 -8 h48 v48 h-48 z M17 10a1 1 0 0 0 -2 0 v12 a1 1 0 0 0 2 0z m1 3 v2q4 0 4-4v-8q0-4 -4-4h-4q-4 0 -4 4v8 q0 4 4 4v-2q-2 0 -2-2v-8 q0-2 2-2h4 q2 0 2 2v8 q0 2 -2 2z m0 4 v2q2 0 2 2v8 q0 2 -2 2h-4 q-2 0 -2-2v-8 q0-2 2-2v-2 q-4 0 -4 4v8 q0 4 4 4h4 q4 0 4-4v-8q0-4 -4-4z" transform="rotate(45 16 16)" />
    </symbol>
    <symbol id="sx_link_rings" viewBox="0 0 32 32">
      <path d="M-8 -8 h48 v48 h-48 z M18 10a1 1 0 0 0 -4 0 v12 a1 1 0 0 0 4 0z m1 2v3 a8.3 8.3 0 0 0 -3 -16 a8.3 8.3 0 0 0 -3 16v-3 a5.5 5.5 0 0 1 3 -10a5.5 5.5 0 0 1 3 10z m0 5 v3 a5.5 5.5 0 0 1 -3 10a5.5 5.5 0 0 1 -3 -10v-3 a8.3 8.3 0 0 0 3 16a8.3 8.3 0 0 0 3 -16z" transform="rotate(45 16 16)" />
    </symbol>
    <symbol id="sx_link_verticle" viewBox="0 0 32 32">
      <path d="M17 10a1 1 0 0 0 -2 0 v12 a1 1 0 0 0 2 0z m1 3 v2q4 0 4-4v-7q0-4 -4-4h-4q-4 0 -4 4v7 q0 4 4 4v-2q-2 0 -2-2v-7 q0-2 2-2h4 q2 0 2 2v7 q0 2 -2 2z m0 4 v2q2 0 2 2v7 q0 2 -2 2h-4 q-2 0 -2-2v-7 q0-2 2-2v-2 q-4 0 -4 4v7 q0 4 4 4h4 q4 0 4-4v-7q0-4 -4-4z" />
    </symbol>
    <symbol id="sx_mail" viewBox="0 0 32 32">
      <path d="M 2 8 q 0 -2 2 -2 h 24 q 2 0 2 2 l -12 12 q -2 2 -4 0 Z m 0 2 l 7 7 -7 7z m0 16 l 8 -8 4 4 q 2 2 4 0 l 4 -4 8 8 q 0 2 -2 2 h -24 q -2 0 -2 -2 Z m28 -2 l-7-7 7-7z" />
    </symbol>
    <symbol id="sx_mail_open" viewBox="0 0 32 32">
      <path d="M2 14 h28 q0 -1 -1-2 l -9-8 q-4-4 -8 0 l -9 8 q-1 1 -1 2z m0 2v12q0 2 2 2h24q2 0 2-2v-12h-4q-1 0 -2 1 l-6 6q-2 2 -4 0 l -6-6 q-1-1 -2-1z" />
    </symbol>
    <symbol id="sx_mail_small" viewBox="0 0 32 32">
      <path d="M2 10 q0-2 2-2h24q2 0 2 2 l-12 8 q-2 1.5 -4 0 z m0 2 l 12 8q2 1.5 4 0 l 12 -8 v10q0 2 -2 2h-24 q-2 0 -2-2z" />
    </symbol>
    <symbol id="sx_map" viewBox="0 0 32 32">
      <path d="M1 8 q0 -1.5 1 -2 l 6 -3 q2 -1 2 1 v20 q0 1.5 -1 2 l -6 3 q-2 1 -2 -1z M11.5 4 q0 -2 2 -1 l 6 3 q1 0.5 1 2 v20 q0 2 -2 1 l -6 -3 q-1 -0.5 -1 -2z M22 8 q0 -1.5 1 -2 l 6 -3 q2 -1 2 1 v20 q0 1.5 -1 2 l -6 3 q-2 1 -2 -1z" />
    </symbol>
    <symbol id="sx_map_marker" viewBox="0 0 32 32">
      <path d="M4,12 c0,-6.624 5.376,-12 12,-12 s12,5.376 12,12 s-3.5,9.5 -11,19 q-1 1 -2 0 c-7.5,-9.5 -11,-12.376 -11,-19 m12 -5 a1 1 0 0 0 0 10 a1 1 0 0 0 0 -10z" />
    </symbol>
    <symbol id="sx_menu" viewBox="0 0 32 32">
      <path d="M 0 1 q 0 -1 1 -1 h 30 q 1 0 1 1 v 6 q 0 1 -1 1 h -30 q -1 0 -1 -1 Z M 0 13 q 0 -1 1 -1 h 30 q 1 0 1 1 v 6 q 0 1 -1 1 h -30 q -1 0 -1 -1 Z M 0 25 q 0 -1 1 -1 h 30 q 1 0 1 1 v 6 q 0 1 -1 1 h -30 q -1 0 -1 -1 Z" />
    </symbol>
    <symbol id="sx_menu_apps" viewBox="0 0 32 32">
      <path d="M 0 1 q 0 -1 1 -1 h 6 q 1 0 1 1 v 6 q 0 1 -1 1 h -6 q -1 0 -1 -1 Z M 12 1 q 0 -1 1 -1 h 6 q 1 0 1 1 v 6 q 0 1 -1 1 h -6 q -1 0 -1 -1 Z M 24 1 q 0 -1 1 -1 h 6 q 1 0 1 1 v 6 q 0 1 -1 1 h -6 q -1 0 -1 -1 Z M 0 13 q 0 -1 1 -1 h 6 q 1 0 1 1 v 6 q 0 1 -1 1 h -6 q -1 0 -1 -1 Z M 12 13 q 0 -1 1 -1 h 6 q 1 0 1 1 v 6 q 0 1 -1 1 h -6 q -1 0 -1 -1 Z M 24 13 q 0 -1 1 -1 h 6 q 1 0 1 1 v 6 q 0 1 -1 1 h -6 q -1 0 -1 -1 Z M 0 24 q 0 -1 1 -1 h 6 q 1 0 1 1 v 6 q 0 1 -1 1 h -6 q -1 0 -1 -1 Z M 12 24 q 0 -1 1 -1 h 6 q 1 0 1 1 v 6 q 0 1 -1 1 h -6 q -1 0 -1 -1 Z M 24 24 q 0 -1 1 -1 h 6 q 1 0 1 1 v 6 q 0 1 -1 1 h -6 q -1 0 -1 -1 Z" />
    </symbol>
    <symbol id="sx_menu_apps_30" viewBox="0 0 32 32">
      <path d="M1 2 q0 -1 1-1h6q1 0 1 1v6q0 1 -1 1h-6q-1 0 -1-1z M12 2 q0 -1 1-1h6q1 0 1 1v6q0 1 -1 1h-6q-1 0 -1-1z M23 2 q0 -1 1-1h6q1 0 1 1v6q0 1 -1 1h-6q-1 0 -1-1z M1 13 q0 -1 1-1h6q1 0 1 1v6q0 1 -1 1h-6q-1 0 -1-1z  M12 13 q0 -1 1-1h6q1 0 1 1v6q0 1 -1 1h-6q-1 0 -1-1z  M23 13 q0 -1 1-1h6q1 0 1 1v6q0 1 -1 1h-6q-1 0 -1-1z M1 24 q0 -1 1-1h6q1 0 1 1v6q0 1 -1 1h-6q-1 0 -1-1z M12 24 q0 -1 1-1h6q1 0 1 1v6q0 1 -1 1h-6q-1 0 -1-1z M23 24 q0 -1 1-1h6q1 0 1 1v6q0 1 -1 1h-6q-1 0 -1-1z" />
    </symbol>
    <symbol id="sx_menu_apps_small" viewBox="0 0 32 32">
      <path d="M2 3 q0 -1 1-1h4q1 0 1 1v4q0 1 -1 1h-4q-1 0 -1-1z M13 3 q0 -1 1-1h4q1 0 1 1v4q0 1 -1 1h-4q-1 0 -1-1z M25 3 q0 -1 1-1h4q1 0 1 1v4q0 1 -1 1h-4q-1 0 -1-1z M2 14 q0 -1 1-1h4q1 0 1 1v4q0 1 -1 1h-4q-1 0 -1-1z M13 14 q0 -1 1-1h4q1 0 1 1v4q0 1 -1 1h-4q-1 0 -1-1z M25 14 q0 -1 1-1h4q1 0 1 1v4q0 1 -1 1h-4q-1 0 -1-1z M2 25 q0 -1 1-1h4q1 0 1 1v4q0 1 -1 1h-4q-1 0 -1-1z M13 25 q0 -1 1-1h4q1 0 1 1v4q0 1 -1 1h-4q-1 0 -1-1z M25 25 q0 -1 1-1h4q1 0 1 1v4q0 1 -1 1h-4q-1 0 -1-1z" />
    </symbol>
    <symbol id="sx_menu_calendar" viewBox="0 0 32 32">
      <path d="M1 8 h30 v-2 q0-2 -2-2 h-5v-2 q0-1 -1-1 h-3 q-1 0 -1 1 v2h-6v-2 q0-1 -1-1 h-3 q-1 0 -1 1 v2h-5 q-2 0 -2 2z M1 10 v19 q0 2 2 2 h26 q2 0 2 -2 v-19z M 4 14 q 0 -1 1 -1 h 4 q 1 0 1 1 v 4 q 0 1 -1 1 h -4 q -1 0 -1 -1 Z M 13 14 q 0 -1 1 -1 h 4 q 1 0 1 1 v 4 q 0 1 -1 1 h -4 q -1 0 -1 -1 Z M 22 14 q 0 -1 1 -1 h 4 q 1 0 1 1 v 4 q 0 1 -1 1 h -4 q -1 0 -1 -1 Z M 4 23 q 0 -1 1 -1 h 4 q 1 0 1 1 v 4 q 0 1 -1 1 h -4 q -1 0 -1 -1 Z M 13 23 q 0 -1 1 -1 h 4 q 1 0 1 1 v 4 q 0 1 -1 1 h -4 q -1 0 -1 -1 Z M 22 23 q 0 -1 1 -1 h 4 q 1 0 1 1 v 4 q 0 1 -1 1 h -4 q -1 0 -1 -1 Z" />
    </symbol>
    <symbol id="sx_menu_list" viewBox="0 0 32 32">
      <path d=" M 0 1 q 0 -1 1 -1 h 6 q 1 0 1 1 v 6 q 0 1 -1 1 h -6 q -1 0 -1 -1 Z M 0 13 q 0 -1 1 -1 h 6 q 1 0 1 1 v 6 q 0 1 -1 1 h -6 q -1 0 -1 -1 Z M 0 25 q 0 -1 1 -1 h 6 q 1 0 1 1 v 6 q 0 1 -1 1 h -6 q -1 0 -1 -1 Z M 12 1 q 0 -1 1 -1 h 18 q 1 0 1 1 v 6 q 0 1 -1 1 h -18 q -1 0 -1 -1 Z M 12 13 q 0 -1 1 -1 h 18 q 1 0 1 1 v 6 q 0 1 -1 1 h -18 q -1 0 -1 -1 Z M 12 25 q 0 -1 1 -1 h 18 q 1 0 1 1 v 6 q 0 1 -1 1 h -18 q -1 0 -1 -1 Z" />
    </symbol>
    <symbol id="sx_menu_list_round" viewBox="0 0 32 32">
      <path d="M4 2 a1 1 0 0 0 0 6a1 1 0 0 0 0 -6M4 13 a1 1 0 0 0 0 6a1 1 0 0 0 0 -6M4 24 a1 1 0 0 0 0 6a1 1 0 0 0 0 -6 M12 2 a1 1 0 0 0 0 6 h15 a1 1 0 0 0 0-6 z M12 13 a1 1 0 0 0 0 6 h15 a1 1 0 0 0 0-6 z M12 24 a1 1 0 0 0 0 6 h15 a1 1 0 0 0 0-6 z" />
    </symbol>
    <symbol id="sx_menu_list_squre" viewBox="0 0 32 32">
      <path d="M2 3 q0 -1 1-1h4q1 0 1 1v4q0 1 -1 1h-4q-1 0 -1-1z M2 14 q0 -1 1-1h4q1 0 1 1v4q0 1 -1 1h-4q-1 0 -1-1z M2 25 q0 -1 1-1h4q1 0 1 1v4q0 1 -1 1h-4q-1 0 -1-1z M12 3 q0 -1 1 -1 h16 q1 0 1 1 v4q0 1 -1 1h-16q-1 0 -1-1z M12 14 q0 -1 1 -1 h16 q1 0 1 1 v4q0 1 -1 1h-16q-1 0 -1-1z M12 25 q0 -1 1 -1 h16 q1 0 1 1 v4q0 1 -1 1h-16q-1 0 -1-1z" />
    </symbol>
    <symbol id="sx_menu_list_squre_30" viewBox="0 0 32 32">
      <path d="M1 2 q0 -1 1-1h4q1 0 1 1v4q0 1 -1 1h-4q-1 0 -1-1z M1 14 q0 -1 1-1h4q1 0 1 1v4q0 1 -1 1h-4q-1 0 -1-1z M1 26 q0 -1 1-1h4q1 0 1 1v4q0 1 -1 1h-4q-1 0 -1-1z M11 2 q0 -1 1 -1 h18 q1 0 1 1 v4q0 1 -1 1h-18q-1 0 -1-1z M11 14 q0 -1 1 -1 h18 q1 0 1 1 v4q0 1 -1 1h-18q-1 0 -1-1z M11 26 q0 -1 1 -1 h18 q1 0 1 1 v4q0 1 -1 1h-18q-1 0 -1-1z" />
    </symbol>
    <symbol id="sx_menu_list_squre_30_bold" viewBox="0 0 32 32">
      <path d="M1 2 q0 -1 1-1h6q1 0 1 1v6q0 1 -1 1h-6q-1 0 -1-1z M1 13 q0 -1 1-1h6q1 0 1 1v6q0 1 -1 1h-6q-1 0 -1-1z M1 24 q0 -1 1-1h6q1 0 1 1v6q0 1 -1 1h-6q-1 0 -1-1z M12 2 q0 -1 1 -1 h17 q1 0 1 1 v6q0 1 -1 1h-17q-1 0 -1-1z M12 13 q0 -1 1 -1 h17 q1 0 1 1 v6q0 1 -1 1h-17q-1 0 -1-1z M12 24 q0 -1 1 -1 h17 q1 0 1 1 v6q0 1 -1 1h-17q-1 0 -1-1z" />
    </symbol>
    <symbol id="sx_menu_round" viewBox="0 0 32 32">
      <path d="M5 2 a1 1 0 0 0 0 6 h22 a1 1 0 0 0 0-6 z M5 13 a1 1 0 0 0 0 6 h22 a1 1 0 0 0 0-6 z M5 24 a1 1 0 0 0 0 6 h22 a1 1 0 0 0 0-6 z" />
    </symbol>
    <symbol id="sx_menu_squre" viewBox="0 0 32 32">
      <path d="M2 3 q0 -1 1 -1 h26 q1 0 1 1 v4q0 1 -1 1h-26q-1 0 -1-1z M2 14 q0 -1 1 -1 h26 q1 0 1 1 v4q0 1 -1 1h-26q-1 0 -1-1z M2 25 q0 -1 1 -1 h26 q1 0 1 1 v4q0 1 -1 1h-26q-1 0 -1-1z" />
    </symbol>
    <symbol id="sx_menu_squre_30_bold" viewBox="0 0 32 32">
      <path d="M1 2 q0 -1 1 -1 h28 q1 0 1 1 v6q0 1 -1 1h-28q-1 0 -1-1z M1 13 q0 -1 1 -1 h28 q1 0 1 1 v6q0 1 -1 1h-28q-1 0 -1-1z M1 24 q0 -1 1 -1 h28 q1 0 1 1 v6q0 1 -1 1h-28q-1 0 -1-1z" />
    </symbol>
    <symbol id="sx_minus" viewBox="0 0 32 32">
      <path d="M8 17 a0.5 0.5 0 0 1 0 -2 h16 a0.5,0.5 0 0,1 0,2 Z" />
    </symbol>
    <symbol id="sx_minus_bold" viewBox="0 0 32 32">
      <path d="M5 13 a1 1 0 0 0 0 6 h22 a1 1 0 0 0 0-6 z" />
    </symbol>
    <symbol id="sx_minus_bold_borders" viewBox="0 0 32 32">
      <path d="M5 13 a1 1 0 0 0 0 6 h22 a1 1 0 0 0 0-6 zM5 17 a1 1 0 0 1 0 -2 h22 a1 1 0 0 1 0 2 Z" />
    </symbol>
    <symbol id="sx_minus_l" viewBox="0 0 32 32">
      <path d="M5 17 a1 1 0 0 1 0 -2 h22 a1 1 0 0 1 0 2 Z" />
    </symbol>
    <symbol id="sx_new_window" viewBox="0 0 32 32">
      <path d="M30 9 l-7-7v5 q-8 0 -10 12 q4 -8 10-8 v5 l 7-7z m-14 -1 h-12q-2 0 -2 2v18q0 2 2 2h20q2 0 2-2v-12 l-3 3v7q0 1 -1 1h-16q-1 0 -1-1v-14 q0-1 1-1h6.8q1.2-2 3.2-3z" />
    </symbol>
    <symbol id="sx_new_window_arrow" viewBox="0 0 32 32">
      <path d="M30 4 q0-2 -2-2h-10 q-1.5 0 -1 1 l 4 4 l-9 9 a1 1 0 0 0 4 4 l 9-9 4 4 q1 0.5 1-1z m-13 4 h-13 q-2 0 -2 2v18q0 2 2 2h18 q2 0 2-2v-13 l-3 3v8q0 1 -1 1h-14q-1 0 -1-1v-14 q0-1 1-1h8z" />
    </symbol>
    <symbol id="sx_new_window_arrow_bold" viewBox="0 0 32 32">
      <path d="M30 4 q0-2 -2-2h-10 q-1.5 0 -1 1 l 4 4 l-8 8 a1 1 0 0 0 4 4 l 8-8 4 4 q1 0.5 1-1z m-12 3 h-12 q-4 0 -4 4v15q0 4 4 4h15q4 0 4-4v-12 l-4 4v6q0 2 -2 2h-11q-2 0 -2-2v-11 q0-2 2-2h6z" />
    </symbol>
    <symbol id="sx_PDF" viewBox="0 0 32 32">
      <path d="M1 2 q0-1 1-1h28q1 0 1 1v20h-9v9h-20q-1 0 -1-1z M31 24 l-7 7 v-7z M4,4 l 0,14 2,0 0,-6 2,0 a4,4 0 0,0 0,-8 Z M6,10 l 0,-4 l 2,0 a2,2 0 0,1 0,4 Z M13,4 l 0,14 2,0 a1,1.175 0 0,0 0,-14 Z M15,6 a1,1.2 0 0,1 0,10 Z M22,4 l 0,14 2,0 0,-6 3,0 a1,1 0 0,0 0,-2 l -3,0 0,-4 4,0 a1,1 0 0,0 0,-2 Z" />
    </symbol>
    <symbol id="sx_PDF_archives" viewBox="0 0 32 32">
      <path d="M 0 1 q 0 -1 1 -1 h30 q 1 0 1 1 v20 h-29 l -3 -3 Z M 6 23 h26 v3 h-21 Z M 12 28 h20 v 3 h -15 Z M 1 1 l 0 17 3 0 0 -6 2 0 c7 0 7 -11 0 -11 Z m 3 6 l 0 -3 1.5 0 c3.5 0 3.5 5 0 5 h-1.5 Z M 11.5 1 l 0 17 l 3 0 c10 0 10 -17 0 -17 Z m 3 3 c5.5 0 6.5 11 0  11Z M 22.3 1 l 0 17 3 0 0 -7 3 0 a 1 1 0 0 0 0 -3.5 l -3 0 0 -3 4 0 a 1 1 0 0 0 0 -3.5 Z" />
    </symbol>
    <symbol id="sx_PDF_archives_small" viewBox="0 0 32 32">
      <path d="M 1 2 q 0 -1 1 -1 l 28 0 q 1 0 1 1 l 0 19 l -27 0 l -3 -3 Z M 6 23 h 25 v 3 h -21 Z M 12 28 h 19 v 3 h -15 Z M 2 4 l 0 14 3 0 0 -6 2 0 a 4 4 0 0 0 0 -8 Z M 5 9.5 l 0 -3 1.5 0 a 1 1 0 0 1 0 3 Z M 12 4 l 0 14 l 3 0 c8.6 0 8.6 -14 0 -14 Z M 15 6.5 c5 0 5 9 0 9 Z M 22 4 l 0 14 3 0 0 -6 3 0 a 1 1 0 0 0 0 -2.5 l -3 0 0 -3 4 0 a 1 1 0 0 0 0 -2.5 Z"/>
    </symbol>
    <symbol id="sx_PDF_center" viewBox="0 0 32 32">
      <path d="M2,8 l 0,16 2,0 0,-6 2,0 a1,1 0 0,0 0,-10 Z m2,2 l 2,0 a1,1 0 0,1 0,6 l-2,0 Z m8,-2 l 0,16 2,0 a1,1 0 0,0 0,-16 Z m2,2 a1,1 0 0,1 0,12 Z m9,-2 l 0,16 2,0 0,-8 3,0 a1,1 0 0,0 0,-2 l-3,0 0,-4 4.5,0 a1,1 0 0,0 0,-2 Z" />
    </symbol>
    <symbol id="sx_pencil" viewBox="0 0 32 32">
      <path d="M27 2 q-2.5 -2.5 -5 0 l -2 2 q-0.5 0.5 0 1 l 7 7 q0.5 0.5 1 0 l 2 -2 q2.5 -2.5 0 -5z m-8.5 4.5 q-0.5 -0.5 -1 0 l-14.5 14.5 -2 8 q0 2 2 2 l 8 -2 14.5 -14.5 q0.5 -0.5 0 -1 z m-1.5 3.5 a1 1 0 0 1 1.5 1.5 l -9 9 a1 1 0 0 1 -1.5 -1.5z m3.5 3.5 a1 1 0 0 1 1.5 1.5 l -9 9 a1 1 0 0 1 -1.5 -1.5z m-13.5 11.5 h3 v2 l -4 1 -2 -2 1 -4 h2z" />
    </symbol>
    <symbol id="sx_phone" viewBox="0 0 32 32">
      <path d="M0 10.5 q-2 0 -2 2 l 0 7 q0 1.25 1 2 q15 8 34 0 q1 -0.5 1 -2 l0 -7 q0 -2 -2 -2 l -5 1 q-1.33 0 -2 2 l-2 6 q-5 2 -14 0 l-2 -6 q-0.66 -2 -2 -2z" transform="rotate(-45 16 16)" />
    </symbol>
    <symbol id="sx_plus" viewBox="0 0 32 32">
      <path d="M8 17 a1 1 0 0 1 0 -2 h7v-7 a1 1 0 0 1 2 0v7h7a1 1 0 0 1 0 2h-7v7a1 1 0 0 1 -2 0v-7h-7z" />
    </symbol>
    <symbol id="sx_plus_bold" viewBox="0 0 32 32">
      <path d="M5 13 a1 1 0 0 0 0 6 h8v8 a1 1 0 0 0 6 0 v-8h8 a1 1 0 0 0 0-6 h-8v-8 a1 1 0 0 0 -6 0 v8z" />
    </symbol>
    <symbol id="sx_plus_bold_borders" viewBox="0 0 32 32">
      <path d="M5 13 a1 1 0 0 0 0 6 h8v8 a1 1 0 0 0 6 0 v-8h8 a1 1 0 0 0 0-6 h-8v-8 a1 1 0 0 0 -6 0 v8z M5 17 a1 1 0 0 1 0 -2h10v-10a1 1 0 0 1 2 0v10h10a1 1 0 0 1 0 2h-10v10a1 1 0 0 1 -2 0v-10z" />
    </symbol>
    <symbol id="sx_plus_l" viewBox="0 0 32 32">
      <path d="M5 17 a1 1 0 0 1 0 -2h10v-10a1 1 0 0 1 2 0v10h10a1 1 0 0 1 0 2h-10v10a1 1 0 0 1 -2 0v-10z" />
    </symbol>
    <symbol id="sx_print" viewBox="0 0 32 32">
      <path d="M8 2 h16v8h-16z M2 14 q0 -2 2 -2h24q2 0 2 2 v8q0 2 -2 2h-4v-6h-16v6h-4q-2 0 -2-2z M10 20 h12v10h-12z" />
    </symbol>
    <symbol id="sx_question" viewBox="0 0 32 32">
      <path d="M6 6 c8 -12 34 -1 14 13 q-1 0.5 -1 2 v1 q0 1 -1 1 h-4 q-1 0 -1 -1 v-1 q0 -3.6 3 -5 c16 -8 0 -16 -7 -7 q-0.5 0.5 -1 0 l -2 -2 q-0.4 -0.4 0 -1 M16 24.5 a1 1 0 0 1 0 7 a1 1 0 0 1 0 -7" />
    </symbol>
    <symbol id="sx_question_square" viewBox="0 0 32 32">
      <path d="M6 6 c8 -12 34 -1 14 13 q-1 0.5 -1 2 v2 q0 1 -1 1 h-4 q-1 0 -1 -1 v-2 q0 -3.6 3 -5 c16 -8 0 -16 -7 -7 q-0.5 0.5 -1 0 l -2 -2 q-0.4 -0.4 0 -1 M13 26.5 q0 -1 1 -1 h4 q1 0 1 1v4 q0 1 -1 1 h-4 q-1 0 -1 -1z" />
    </symbol>
    <symbol id="sx_rect" viewBox="0 0 32 32">
      <path d="M12 10 q-2 0 -2 2 v8 q0 2 2 2 h8 q2 0 2 -2 v-8 q0-2 -2-2z" />
    </symbol>
    <symbol id="sx_rect_l" viewBox="0 0 32 32">
      <path d="M10 8 q-2 0 -2 2 v12 q0 2 2 2 h12 q2 0 2 -2 v-12 q0-2 -2-2z" />
    </symbol>
    <symbol id="sx_rect_s" viewBox="0 0 32 32">
      <path d="M14 12 q-2 0 -2 2 v4 q0 2 2 2 h4 q2 0 2 -2 v-4 q0-2 -2-2z" />
    </symbol>
    <symbol id="sx_reload" viewBox="0 0 32 32">
      <path d="M 4 18 a 12 12 0 1 0 12 -12 v -3 c 0 -1 -1 -1 -2 0 l -4 4 q -1 1 0 2 l 4 4 c 1 1 2 1 2 0 v -3 a 8 8 0 1 1 -8 8 q 0 -1 -1 -1 h -2 q -1 0 -1 1 Z" />
    </symbol>
    <symbol id="sx_reload_bold" viewBox="0 0 32 32">
      <path d="M 2 18 a 14 14 0 1 0 14 -14 v -2.8 c0 -1.5 -1.5 -1.5 -3 0  l -4.8 4.8 q -1 1 0 2 l 4.8 4.8 c 1.5 1.5 3 1.5 3 0 v -2.8 a 8 8 0 1 1 -8 8 q 0 -1 -1 -1 h -4 q -1 0 -1 1 Z" />
    </symbol>
    <symbol id="sx_rigth" viewBox="0 0 32 32">
      <path d="M11 26 v-20 l 10 10z" />
    </symbol>
    <symbol id="sx_rigth_l" viewBox="0 0 32 32">
      <path d="M10 28 v-24 l12 12z" />
    </symbol>
    <symbol id="sx_rigth_s" viewBox="0 0 32 32">
      <path d="M12 24 v-16 l8 8z" />
    </symbol>
    <symbol id="sx_rigth_xl" viewBox="0 0 32 32">
      <path d="M9 30 v-28 l14 14z" />
    </symbol>
    <symbol id="sx_romb" viewBox="0 0 32 32">
      <path d="M10 15 q-1 1 0 2 l5 5 q1 1 2 0 l5-5q1-1 0-2 l-5-5q-1-1 -2 0 Z" />
    </symbol>
    <symbol id="sx_romb_l" viewBox="0 0 32 32">
      <path d="M8 15 q-1 1 0 2 l7 7 q1 1 2 0 l7-7q1-1 0-2 l-7-7q-1-1 -2 0 Z" />
    </symbol>
    <symbol id="sx_romb_s" viewBox="0 0 32 32">
      <path d="M12 15 q-1 1 0 2 l3 3 q1 1 2 0 l3-3q1-1 0-2 l-3 -3q-1 -1 -2 0 Z" />
    </symbol>
    <symbol id="sx_save" viewBox="0 0 32 32">
      <path d="M5 2 q-3 0 -3 3 v22 q0 3 3 3 h22 q3 0 3 -3 v-17 q0-1 -1 -2 l -5 -5 q-1 -1 -2 -1z m1 5 q0 -1 1 -1 h14 q1 0 1 1v6 q0 1 -1 1 h-14 q-1 0 -1 -1z m10 11 a1 1 0 0 1 0 8 a1 1 0 0 1 0 -8z" />
    </symbol>
    <symbol id="sx_search" viewBox="0 0 32 32">
      <path d="M 30.5 26.5 l -5 -5 q -1 -1 -2 -1 h -1 a -12 -12 0 1 0 -2 2 v 1 q 0 1 1 2 l 5 5 q 1 1 2 0 l 2 -2 q 1 -1 0 -2 m -12 -8 a 1 1 0 0 1 -11 -11 a 1 1 0 0 1 11 11" />
    </symbol>
    <symbol id="sx_search_minus" viewBox="0 0 32 32">
      <path d="M 30.5 26.5 l -5 -5 q -1 -1 -2 -1 h -1 a -12 -12 0 1 0 -2 2 v 1 q 0 1 1 2 l 5 5 q 1 1 2 0 l 2 -2 q 1 -1 0 -2 m -12 -8 a 1 1 0 0 1 -11 -11 a 1 1 0 0 1 11 11 m 1.5 -3.5 v -4 h -14 v 4 Z" />
    </symbol>
    <symbol id="sx_search_plus" viewBox="0 0 32 32">
      <path d="M 30.5 26.5 l -5 -5 q -1 -1 -2 -1 h -1 a -12 -12 0 1 0 -2 2 v 1 q 0 1 1 2 l 5 5 q 1 1 2 0 l 2 -2 q 1 -1 0 -2 m -12 -8 a 1 1 0 0 1 -11 -11 a 1 1 0 0 1 11 11 m 1.5 -3.5 v -4 h -5 v -5 h -4 v 5 h -5 v 4 h 5 v 5 h 4 v -5 Z"/>
    </symbol>
    <symbol id="sx_search_plus_right" viewBox="0 0 32 32">
      <path transform="rotate(90 16 16)" d="M 30.5 26.5 l -5 -5 q -1 -1 -2 -1 h -1 a -12 -12 0 1 0 -2 2 v 1 q 0 1 1 2 l 5 5 q 1 1 2 0 l 2 -2 q 1 -1 0 -2 m -12 -8 a 1 1 0 0 1 -11 -11 a 1 1 0 0 1 11 11 m 1.5 -3.5 v -4 h -5 v -5 h -4 v 5 h -5 v 4 h 5 v 5 h 4 v -5 Z" />
    </symbol>
    <symbol id="sx_search_right" viewBox="0 0 32 32">
      <path transform="rotate(90 16 16)" d="M 30.5 26.5 l -5 -5 q -1 -1 -2 -1 h -1 a -12 -12 0 1 0 -2 2 v 1 q 0 1 1 2 l 5 5 q 1 1 2 0 l 2 -2 q 1 -1 0 -2 m -12 -8 a 1 1 0 0 1 -11 -11 a 1 1 0 0 1 11 11" />
    </symbol>
    <symbol id="sx_shopping_cart" viewBox="0 0 32 32">
      <path d="M3 1 a1 1 0 0 0 0 3h2 l 3 12a1 1 0 0 0 0 8h20a1 1 0 0 0 0 -2h-20a1 1 0 0 1 0 -4 h16a1 1 0 0 0 0-2 l 6 -11q0 -1 -1-1 h-20 l -3-3z M10 25 a1 1 0 0 0 0 6a1 1 0 0 0 0 -6 M24 25 a1 1 0 0 0 0 6a1 1 0 0 0 0 -6" />
    </symbol>
    <symbol id="sx_sort_alpha_asc" viewBox="0 0 32 32">
      <path d="M9 2.5 q-1 -1 -2 0 l -4.5 4.5 c-0.5 0.5 -0.5 1.5 1 1.5 h3v15 h-3 c-1.5 0 -1.5 1 -1 1.5 l 4.5 4.5 q 1 1 2 0 l 4.5 -4.5 c0.5 -0.5 0.5 -1.5 -1 -1.5 h-3 v-15 h3 c1.5 0 1.5 -1 1 -1.5z M22.5 2 q-0.5 0 -1 1 l -5 10 c-0.25 0.75 0.25 1 0.5 1 h1.5 q0.5 0 0.75 -0.5 l 1.25 -2.5 h5 l 1.25 2.5 q0.25 0.5 0.75 0.5 h1.5 c0.25 0 0.75 -0.25 0.5 -1 l -5 -10 q-0.5 -1 -1 -1z m-1 7 l 1.5 -3 1.5 3z M18 18 q-1 0 -1 1 v1 q0 1 1 1 h6 l -6.8 6.8 q-0.2 0.2 -0.2 0.4 v0.8 q0 1 1 1 h10 q1 0 1 -1 v-1 q0 -1 -1 -1 h-6 l 6.8 -6.8 q0.2 -0.2 0.2 -0.4 v-0.8 q0 -1 -1 -1z"/>
    </symbol>
    <symbol id="sx_sort_alpha_desc" viewBox="0 0 32 32">
      <path d="M9 2.5 q-1 -1 -2 0 l -4.5 4.5 c-0.5 0.5 -0.5 1.5 1 1.5 h3v15 h-3 c-1.5 0 -1.5 1 -1 1.5 l 4.5 4.5 q 1 1 2 0 l 4.5 -4.5 c0.5 -0.5 0.5 -1.5 -1 -1.5 h-3 v-15 h3 c1.5 0 1.5 -1 1 -1.5z M18 2 q-1 0 -1 1 v1 q0 1 1 1 h6 l -6.8 6.8 q-0.2 0.2 -0.2 0.4 v0.8 q0 1 1 1 h10 q1 0 1 -1 v-1 q0 -1 -1 -1 h-6 l 6.8 -6.8 q0.2 -0.2 0.2 -0.4 v-0.8 q0 -1 -1 -1z M22.5 18 q-0.5 0 -1 1 l -5 10 c-0.25 0.75 0.25 1 0.5 1 h1.5 q0.5 0 0.75 -0.5 l 1.25 -2.5 h5 l 1.25 2.5 q0.25 0.5 0.75 0.5 h1.5 c0.25 0 0.75 -0.25 0.5 -1 l -5 -10 q-0.5 -1 -1 -1z m-1 7 l 1.5 -3 1.5 3z" />
    </symbol>
    <symbol id="sx_trash" viewBox="0 0 32 32">
      <path d="M3 3 q-1 0 -1 1 v2 q0 1 1 1 h26 q1 0 1 -1 v-2 q0 -1 -1 -1 h-8 q-1 -2 -2 -2 h-6 q-1 0 -2 2z m1 6 q-1 0 -1 1 v18 q0 3 3 3 h20 q3 0 3 -3 v-18 q0 -1 -1 -1z m4 4 a1 1 0 0 1 2 0 v14 a1 1 0 0 1 -2 0z m7 0 a1 1 0 0 1 2 0 v14 a1 1 0 0 1 -2 0z m7 0 a1 1 0 0 1 2 0 v14 a1 1 0 0 1 -2 0z" />
    </symbol>
    <symbol id="sx_up" viewBox="0 0 32 32">
      <path d="M6 21 h20 l-10-10 Z" />
    </symbol>
    <symbol id="sx_up_down" viewBox="0 0 32 32">
      <path d="M6 14 h20 l-10-10 Z m0 4 l 10 10 10 -10z" />
    </symbol>
    <symbol id="sx_up_l" viewBox="0 0 32 32">
      <path d="M4 22 h24 l-12-12 Z" />
    </symbol>
    <symbol id="sx_up_s" viewBox="0 0 32 32">
      <path d="M8 20 h16 l-8-8 Z" />
    </symbol>
    <symbol id="sx_up_xl" viewBox="0 0 32 32">
      <path d="M2 23 h28 l-14-14 Z" />
    </symbol>
    <symbol id="sx_user" viewBox="0 0 32 32">
      <path d="M 16 2 a 1 1 0 0 1 0 14 a 1 1 0 0 1 0 -14 M 1 32 q 1 -16 8 -16 q 7 7 14 0 q 8 0 8 16 Z" />
    </symbol>
    <symbol id="sx_user_logout" viewBox="0 0 32 32">
      <path d="M 16 2 a 1 1 0 0 1 0 14 a 1 1 0 0 1 0 -14 M 1 32 q 1 -16 8 -16 q 7 7 14 0 q 8 0 8 16 Z m 16 -6 q 0 1 1 1 h 10 q 1 0 1 -1 v -2 q 0 -1 -1 -1 h -10 q -1 0 -1 1 Z" />
    </symbol>
    <symbol id="sx_user_profile" viewBox="0 0 32 32">
      <path d="M 16 2 a 1 1 0 0 1 0 14 a 1 1 0 0 1 0 -14 M 1 32 q 1 -16 8 -16 q 7 7 14 0 q 8 0 8 16 z M24 31 q 1 0 1 -1 v-3 h3 q1 0 1 -1 v-2 q0 -1 -1 -1 h-3v-3 q0 -1 -1 -1 h-2 q-1 0 -1 1 v3h-3 q-1 0 -1 1 v 2 q 0 1 1 1 h3v3 q 0 1 1 1 Z" />
    </symbol>
    <symbol id="sx_video" viewBox="0 0 32 32">
      <path d="M1 2 q0-1 1-1h28q1 0 1 1v20h-9v9h-20q-1 0 -1-1z M31 24h-7v7z M6 4 q-2 0 -2 2 l0 10 q0 2 2 2 l14 0 q2 0 2-2 l0-4 6 6 0 -14 -6 6 0 -4 q0-2 -2-2z" />
    </symbol>
    <symbol id="sx_video_center" viewBox="0 0 32 32">
      <path d="M4 8 q-2 0 -2 2 l 0 12 q0 2 2 2 l 18 0 q2 0 2-2 l 0-4 6 6 0 -16 -6 6 0 -4 q0-2 -2-2z" />
    </symbol>
    <symbol id="sx_video_gallery" viewBox="0 0 32 32">
      <path d="M1,2 q0-1 1-1 l 28 0 q1 0 1 1 l 0 19 -27 0 -3-3 Z M6,23h25v3h-22z M11,28h20v3h-17z M6 4 q-2 0 -2 2 l0 10 q0 2 2 2 l14 0 q2 0 2-2 l0-4 6 6 0 -14 -6 6 0 -4 q0-2 -2-2z" />
    </symbol>

    <symbol id="sx_delicious" viewBox="0 0 448 512">
      <path d="M 446.5 68 c -0.4 -1.5 -0.9 -3 -1.4 -4.5 c -0.9 -2.5 -2 -4.8 -3.3 -7.1 c -1.4 -2.4 -3 -4.8 -4.7 -6.9 c -2.1 -2.5 -4.4 -4.8 -6.9 -6.8 c -1.1 -0.9 -2.2 -1.7 -3.3 -2.5 c -1.3 -0.9 -2.6 -1.7 -4 -2.4 c -1.8 -1 -3.6 -1.8 -5.5 -2.5 c -1.7 -0.7 -3.5 -1.3 -5.4 -1.7 c -3.8 -1 -7.9 -1.5 -12 -1.5 H 48 C 21.5 32 0 53.5 0 80 v 352 c 0 4.1 0.5 8.2 1.5 12 c 2 7.7 5.8 14.6 11 20.3 c 1 1.1 2.1 2.2 3.3 3.3 c 5.7 5.2 12.6 9 20.3 11 c 3.8 1 7.9 1.5 12 1.5 h 352 c 26.5 0 48 -21.5 48 -48 V 80 c -0.1 -4.1 -0.6 -8.2 -1.6 -12 Z M 416 432 c 0 8.8 -7.2 16 -16 16 H 224 V 256 H 32 V 80 c 0 -8.8 7.2 -16 16 -16 h 176 v 192 h 192 v 176 Z" />
    </symbol>

    <symbol id="sx_facebook-radius" viewBox="0 0 24 24">
      <path d="M19 0h-14c-2.761 0-5 2.239-5 5v14c0 2.761 2.239 5 5 5h14c2.762 0 5-2.239 5-5v-14c0-2.761-2.238-5-5-5zm-3 7h-1.924c-.615 0-1.076.252-1.076.889v1.111h3l-.238 3h-2.762v8h-3v-8h-2v-3h2v-1.923c0-2.022 1.064-3.077 3.461-3.077h2.539v3z"/>
    </symbol>
    <symbol id="sx_facebook-circle-bg" viewBox="0 0 24 24">
      <path d="M12 0c-6.627 0-12 5.373-12 12s5.373 12 12 12 12-5.373 12-12-5.373-12-12-12zm3 8h-1.35c-.538 0-.65.221-.65.778v1.222h2l-.209 2h-1.791v7h-3v-7h-2v-2h2v-2.308c0-1.769.931-2.692 3.029-2.692h1.971v3z"/>
    </symbol>
    <symbol id="sx_facebook-circle" viewBox="0 0 24 24">
      <path d="M12 2c5.514 0 10 4.486 10 10s-4.486 10-10 10-10-4.486-10-10 4.486-10 10-10zm0-2c-6.627 0-12 5.373-12 12s5.373 12 12 12 12-5.373 12-12-5.373-12-12-12zm-2 10h-2v2h2v6h3v-6h1.82l.18-2h-2v-.833c0-.478.096-.667.558-.667h1.442v-2.5h-2.404c-1.798 0-2.596.792-2.596 2.308v1.692z"/>
    </symbol>
    <symbol id="sx_facebook-rect" viewBox="0 0 24 24">
      <path d="M22.675 0h-21.35c-.732 0-1.325.593-1.325 1.325v21.351c0 .731.593 1.324 1.325 1.324h11.495v-9.294h-3.128v-3.622h3.128v-2.671c0-3.1 1.893-4.788 4.659-4.788 1.325 0 2.463.099 2.795.143v3.24l-1.918.001c-1.504 0-1.795.715-1.795 1.763v2.313h3.587l-.467 3.622h-3.12v9.293h6.116c.73 0 1.323-.593 1.323-1.325v-21.35c0-.732-.593-1.325-1.325-1.325z"/>
    </symbol>
    <symbol id="sx_facebook" viewBox="0 0 56.693 56.693">
      <path d="M40.43,21.739h-7.645v-5.014c0-1.883,1.248-2.322,2.127-2.322c0.877,0,5.395,0,5.395,0V6.125l-7.43-0.029  c-8.248,0-10.125,6.174-10.125,10.125v5.518h-4.77v8.53h4.77c0,10.947,0,24.137,0,24.137h10.033c0,0,0-13.32,0-24.137h6.77  L40.43,21.739z"/>
    </symbol>

    <symbol id="sx_google-plus-radius" viewBox="0 0 24 24">
      <path d="M19 0h-14c-2.761 0-5 2.239-5 5v14c0 2.761 2.239 5 5 5h14c2.762 0 5-2.239 5-5v-14c0-2.761-2.238-5-5-5zm-10.333 16.667c-2.581 0-4.667-2.087-4.667-4.667s2.086-4.667 4.667-4.667c1.26 0 2.313.46 3.127 1.22l-1.267 1.22c-.347-.333-.954-.72-1.86-.72-1.593 0-2.893 1.32-2.893 2.947s1.3 2.947 2.893 2.947c1.847 0 2.54-1.327 2.647-2.013h-2.647v-1.6h4.406c.041.233.074.467.074.773-.001 2.666-1.787 4.56-4.48 4.56zm11.333-4h-2v2h-1.334v-2h-2v-1.333h2v-2h1.334v2h2v1.333z"/>
    </symbol>
    <symbol id="sx_google-plus-circle-bg" viewBox="0 0 24 24">
      <path d="M12 0c-6.627 0-12 5.373-12 12s5.373 12 12 12 12-5.373 12-12-5.373-12-12-12zm-2.917 16.083c-2.258 0-4.083-1.825-4.083-4.083s1.825-4.083 4.083-4.083c1.103 0 2.024.402 2.735 1.067l-1.107 1.068c-.304-.292-.834-.63-1.628-.63-1.394 0-2.531 1.155-2.531 2.579 0 1.424 1.138 2.579 2.531 2.579 1.616 0 2.224-1.162 2.316-1.762h-2.316v-1.4h3.855c.036.204.064.408.064.677.001 2.332-1.563 3.988-3.919 3.988zm9.917-3.5h-1.75v1.75h-1.167v-1.75h-1.75v-1.166h1.75v-1.75h1.167v1.75h1.75v1.166z"/>
    </symbol>
    <symbol id="sx_google-plus-circle" viewBox="0 0 24 24">
      <path d="M12 2c5.514 0 10 4.486 10 10s-4.486 10-10 10-10-4.486-10-10 4.486-10 10-10zm0-2c-6.627 0-12 5.373-12 12s5.373 12 12 12 12-5.373 12-12-5.373-12-12-12zm-2.5 11.5v1.2h1.985c-.08.514-.601 1.51-1.985 1.51-1.194 0-2.17-.99-2.17-2.21s.976-2.21 2.17-2.21c.681 0 1.135.29 1.396.541l.949-.916c-.61-.57-1.401-.915-2.345-.915-1.936 0-3.5 1.565-3.5 3.5s1.564 3.5 3.5 3.5c2.02 0 3.359-1.419 3.359-3.419 0-.23-.024-.405-.055-.58h-3.304zm0 0 8.5 1h-1.5v1.5h-1v-1.5h-1.5v-1h1.5v-1.5h1v1.5h1.5v1z"/>
    </symbol>
    <symbol id="sx_google-plus-g-circle-bg" viewBox="0 0 56.693 56.693">
      <path d="M23.761,27.96c0.629,0,1.16-0.248,1.57-0.717c0.645-0.732,0.928-1.936,0.76-3.215c-0.301-2.287-1.932-4.186-3.637-4.236   h-0.068c-0.604,0-1.141,0.246-1.551,0.715c-0.637,0.725-0.903,1.871-0.736,3.146c0.299,2.283,1.965,4.256,3.635,4.307H23.761z"/>
      <path d="M25.622,34.847c-0.168-0.113-0.342-0.232-0.521-0.355c-0.525-0.162-1.084-0.246-1.654-0.254h-0.072   c-2.625,0-4.929,1.592-4.929,3.406c0,1.971,1.972,3.518,4.491,3.518c3.322,0,5.006-1.145,5.006-3.404   c0-0.215-0.025-0.436-0.076-0.656C27.642,36.222,26.837,35.675,25.622,34.847z"/>
      <path d="M28.347,5.157c-13.601,0-24.625,11.023-24.625,24.623s11.025,24.625,24.625,24.625c13.598,0,24.623-11.025,24.623-24.625   S41.944,5.157,28.347,5.157z M26.106,43.179c-0.982,0.283-2.041,0.428-3.154,0.428c-1.238,0-2.43-0.143-3.54-0.424   c-2.15-0.541-3.74-1.57-4.48-2.895c-0.32-0.574-0.482-1.184-0.482-1.816c0-0.652,0.156-1.312,0.463-1.967   c1.18-2.51,4.283-4.197,7.722-4.197c0.035,0,0.068,0,0.1,0c-0.279-0.492-0.416-1.002-0.416-1.537c0-0.268,0.035-0.539,0.105-0.814   c-3.606-0.084-6.306-2.725-6.306-6.207c0-2.461,1.965-4.855,4.776-5.824c0.842-0.291,1.699-0.439,2.543-0.439h7.713   c0.264,0,0.494,0.17,0.576,0.42c0.084,0.252-0.008,0.525-0.221,0.68l-1.725,1.248c-0.104,0.074-0.229,0.115-0.357,0.115h-0.617   c0.799,0.955,1.266,2.316,1.266,3.848c0,1.691-0.855,3.289-2.41,4.506c-1.201,0.936-1.25,1.191-1.25,1.729   c0.016,0.295,0.854,1.252,1.775,1.904c2.152,1.523,2.953,3.014,2.953,5.508C31.14,40.04,29.163,42.292,26.106,43.179z    M43.528,29.948c0,0.334-0.273,0.605-0.607,0.605h-4.383v4.385c0,0.336-0.271,0.607-0.607,0.607h-1.248   c-0.336,0-0.607-0.271-0.607-0.607v-4.385H31.69c-0.332,0-0.605-0.271-0.605-0.605v-1.25c0-0.334,0.273-0.607,0.605-0.607h4.385   v-4.383c0-0.336,0.271-0.607,0.607-0.607h1.248c0.336,0,0.607,0.271,0.607,0.607v4.383h4.383c0.334,0,0.607,0.273,0.607,0.607   V29.948z"/>
    </symbol>
    <symbol id="sx_google-plus-g" viewBox="0 0 56.693 56.693" width="56.693px">
      <path d="M52.218,25.852h-7.512v-7.51c0-0.573-0.465-1.039-1.037-1.039H41.53c-0.576,0-1.041,0.466-1.041,1.039v7.51h-7.512   c-0.572,0-1.039,0.467-1.039,1.041v2.139c0,0.574,0.467,1.039,1.039,1.039h7.512v7.514c0,0.574,0.465,1.039,1.041,1.039h2.139   c0.572,0,1.037-0.465,1.037-1.039V30.07h7.512c0.572,0,1.039-0.465,1.039-1.039v-2.139C53.257,26.318,52.79,25.852,52.218,25.852z"/>
      <path d="M26.974,32.438c-1.58-1.119-3.016-2.76-3.041-3.264c0-0.918,0.082-1.357,2.141-2.961c2.662-2.084,4.128-4.824,4.128-7.719   c0-2.625-0.802-4.957-2.167-6.595h1.059c0.219,0,0.434-0.068,0.609-0.196l2.955-2.141c0.367-0.263,0.521-0.732,0.381-1.161   c-0.141-0.428-0.537-0.72-0.988-0.72H18.835c-1.446,0-2.915,0.255-4.357,0.751c-4.816,1.661-8.184,5.765-8.184,9.978   c0,5.969,4.624,10.493,10.805,10.635c-0.121,0.473-0.182,0.939-0.182,1.396c0,0.92,0.233,1.791,0.713,2.633c-0.056,0-0.11,0-0.17,0   c-5.892,0-11.21,2.891-13.229,7.193c-0.526,1.119-0.794,2.25-0.794,3.367c0,1.086,0.279,2.131,0.826,3.113   c1.269,2.27,3.994,4.031,7.677,4.961c1.901,0.48,3.944,0.725,6.065,0.725c1.906,0,3.723-0.246,5.403-0.732   c5.238-1.521,8.625-5.377,8.625-9.828C32.032,37.602,30.659,35.045,26.974,32.438z M10.283,42.215c0-3.107,3.947-5.832,8.446-5.832   h0.121c0.979,0.012,1.934,0.156,2.834,0.432c0.309,0.213,0.607,0.416,0.893,0.611c2.084,1.42,3.461,2.357,3.844,3.861   c0.09,0.379,0.135,0.758,0.135,1.125c0,3.869-2.885,5.83-8.578,5.83C13.663,48.242,10.283,45.596,10.283,42.215z M14.377,12.858   c0.703-0.803,1.624-1.227,2.658-1.227l0.117,0.002c2.921,0.086,5.716,3.341,6.23,7.256c0.289,2.192-0.199,4.253-1.301,5.509   c-0.705,0.805-1.613,1.229-2.689,1.229c0,0,0,0-0.002,0h-0.047c-2.861-0.088-5.716-3.467-6.227-7.377   C12.829,16.064,13.289,14.099,14.377,12.858z"/>
    </symbol>
    <symbol id="sx_google-plus" viewBox="0 0 24 24">
      <path d="M7 11v2.4h3.97c-.16 1.029-1.2 3.02-3.97 3.02-2.39 0-4.34-1.979-4.34-4.42 0-2.44 1.95-4.42 4.34-4.42 1.36 0 2.27.58 2.79 1.08l1.9-1.83c-1.22-1.14-2.8-1.83-4.69-1.83-3.87 0-7 3.13-7 7s3.13 7 7 7c4.04 0 6.721-2.84 6.721-6.84 0-.46-.051-.81-.111-1.16h-6.61zm0 0 17 2h-3v3h-2v-3h-3v-2h3v-3h2v3h3v2z" fill-rule="evenodd" clip-rule="evenodd"/>
    </symbol>

    <symbol id="sx_instagram" viewBox="0 0 448 512">
      <path d="M 224.1 141 c -63.6 0 -114.9 51.3 -114.9 114.9 s 51.3 114.9 114.9 114.9 S 339 319.5 339 255.9 S 287.7 141 224.1 141 Z m 0 189.6 c -41.1 0 -74.7 -33.5 -74.7 -74.7 s 33.5 -74.7 74.7 -74.7 s 74.7 33.5 74.7 74.7 s -33.6 74.7 -74.7 74.7 Z m 146.4 -194.3 c 0 14.9 -12 26.8 -26.8 26.8 c -14.9 0 -26.8 -12 -26.8 -26.8 s 12 -26.8 26.8 -26.8 s 26.8 12 26.8 26.8 Z m 76.1 27.2 c -1.7 -35.9 -9.9 -67.7 -36.2 -93.9 c -26.2 -26.2 -58 -34.4 -93.9 -36.2 c -37 -2.1 -147.9 -2.1 -184.9 0 c -35.8 1.7 -67.6 9.9 -93.9 36.1 s -34.4 58 -36.2 93.9 c -2.1 37 -2.1 147.9 0 184.9 c 1.7 35.9 9.9 67.7 36.2 93.9 s 58 34.4 93.9 36.2 c 37 2.1 147.9 2.1 184.9 0 c 35.9 -1.7 67.7 -9.9 93.9 -36.2 c 26.2 -26.2 34.4 -58 36.2 -93.9 c 2.1 -37 2.1 -147.8 0 -184.8 Z M 398.8 388 c -7.8 19.6 -22.9 34.7 -42.6 42.6 c -29.5 11.7 -99.5 9 -132.1 9 s -102.7 2.6 -132.1 -9 c -19.6 -7.8 -34.7 -22.9 -42.6 -42.6 c -11.7 -29.5 -9 -99.5 -9 -132.1 s -2.6 -102.7 9 -132.1 c 7.8 -19.6 22.9 -34.7 42.6 -42.6 c 29.5 -11.7 99.5 -9 132.1 -9 s 102.7 -2.6 132.1 9 c 19.6 7.8 34.7 22.9 42.6 42.6 c 11.7 29.5 9 99.5 9 132.1 s 2.7 102.7 -9 132.1 Z" />
    </symbol>
    <symbol id="sx_instagram-big" viewBox="0 0 24 24">
      <path d="M12 2.163c3.204 0 3.584.012 4.85.07 3.252.148 4.771 1.691 4.919 4.919.058 1.265.069 1.645.069 4.849 0 3.205-.012 3.584-.069 4.849-.149 3.225-1.664 4.771-4.919 4.919-1.266.058-1.644.07-4.85.07-3.204 0-3.584-.012-4.849-.07-3.26-.149-4.771-1.699-4.919-4.92-.058-1.265-.07-1.644-.07-4.849 0-3.204.013-3.583.07-4.849.149-3.227 1.664-4.771 4.919-4.919 1.266-.057 1.645-.069 4.849-.069zm0-2.163c-3.259 0-3.667.014-4.947.072-4.358.2-6.78 2.618-6.98 6.98-.059 1.281-.073 1.689-.073 4.948 0 3.259.014 3.668.072 4.948.2 4.358 2.618 6.78 6.98 6.98 1.281.058 1.689.072 4.948.072 3.259 0 3.668-.014 4.948-.072 4.354-.2 6.782-2.618 6.979-6.98.059-1.28.073-1.689.073-4.948 0-3.259-.014-3.667-.072-4.947-.196-4.354-2.617-6.78-6.979-6.98-1.281-.059-1.69-.073-4.949-.073zm0 5.838c-3.403 0-6.162 2.759-6.162 6.162s2.759 6.163 6.162 6.163 6.162-2.759 6.162-6.163c0-3.403-2.759-6.162-6.162-6.162zm0 10.162c-2.209 0-4-1.79-4-4 0-2.209 1.791-4 4-4s4 1.791 4 4c0 2.21-1.791 4-4 4zm6.406-11.845c-.796 0-1.441.645-1.441 1.44s.645 1.44 1.441 1.44c.795 0 1.439-.645 1.439-1.44s-.644-1.44-1.439-1.44z"/>
    </symbol>
    <symbol id="sx_instagram-bg" viewBox="0 0 24 24">
      <path d="M11.984 16.815c2.596 0 4.706-2.111 4.706-4.707 0-1.409-.623-2.674-1.606-3.538-.346-.303-.735-.556-1.158-.748-.593-.27-1.249-.421-1.941-.421s-1.349.151-1.941.421c-.424.194-.814.447-1.158.749-.985.864-1.608 2.129-1.608 3.538 0 2.595 2.112 4.706 4.706 4.706zm.016-8.184c1.921 0 3.479 1.557 3.479 3.478 0 1.921-1.558 3.479-3.479 3.479s-3.479-1.557-3.479-3.479c0-1.921 1.558-3.478 3.479-3.478zm5.223.369h6.777v10.278c0 2.608-2.114 4.722-4.722 4.722h-14.493c-2.608 0-4.785-2.114-4.785-4.722v-10.278h6.747c-.544.913-.872 1.969-.872 3.109 0 3.374 2.735 6.109 6.109 6.109s6.109-2.735 6.109-6.109c.001-1.14-.327-2.196-.87-3.109zm2.055-9h-12.278v5h-1v-5h-1v5h-1v-4.923c-.346.057-.682.143-1 .27v4.653h-1v-4.102c-1.202.857-2 2.246-2 3.824v3.278h7.473c1.167-1.282 2.798-2 4.511-2 1.722 0 3.351.725 4.511 2h7.505v-3.278c0-2.608-2.114-4.722-4.722-4.722zm2.722 5.265c0 .406-.333.735-.745.735h-2.511c-.411 0-.744-.329-.744-.735v-2.53c0-.406.333-.735.744-.735h2.511c.412 0 .745.329.745.735v2.53z"/>
    </symbol>

    <symbol id="sx_linkedin" viewBox="0 0 448 512">
      <path d="M 416 32 H 31.9 C 14.3 32 0 46.5 0 64.3 v 383.4 C 0 465.5 14.3 480 31.9 480 H 416 c 17.6 0 32 -14.5 32 -32.3 V 64.3 c 0 -17.8 -14.4 -32.3 -32 -32.3 Z M 135.4 416 H 69 V 202.2 h 66.5 V 416 Z m -33.2 -243 c -21.3 0 -38.5 -17.3 -38.5 -38.5 S 80.9 96 102.2 96 c 21.2 0 38.5 17.3 38.5 38.5 c 0 21.3 -17.2 38.5 -38.5 38.5 Z m 282.1 243 h -66.4 V 312 c 0 -24.8 -0.5 -56.7 -34.5 -56.7 c -34.6 0 -39.9 27 -39.9 54.9 V 416 h -66.4 V 202.2 h 63.7 v 29.2 h 0.9 c 8.9 -16.8 30.6 -34.5 62.9 -34.5 c 67.2 0 79.7 44.3 79.7 101.9 V 416 Z" />
    </symbol>
    <symbol id="sx_linkedin-in" viewBox="0 0 448 512">
      <path d="M 100.3 480 H 7.4 V 180.9 h 92.9 V 480 Z M 53.8 140.1 C 24.1 140.1 0 115.5 0 85.8 C 0 56.1 24.1 32 53.8 32 c 29.7 0 53.8 24.1 53.8 53.8 c 0 29.7 -24.1 54.3 -53.8 54.3 Z M 448 480 h -92.7 V 334.4 c 0 -34.7 -0.7 -79.2 -48.3 -79.2 c -48.3 0 -55.7 37.7 -55.7 76.7 V 480 h -92.8 V 180.9 h 89.1 v 40.8 h 1.3 c 12.4 -23.5 42.7 -48.3 87.9 -48.3 c 94 0 111.3 61.9 111.3 142.3 V 480 Z" />
    </symbol>

    <symbol id="sx_pinterest-p" viewBox="0 0 384 512">
      <path d="M 204 6.5 C 101.4 6.5 0 74.9 0 185.6 C 0 256 39.6 296 63.6 296 c 9.9 0 15.6 -27.6 15.6 -35.4 c 0 -9.3 -23.7 -29.1 -23.7 -67.8 c 0 -80.4 61.2 -137.4 140.4 -137.4 c 68.1 0 118.5 38.7 118.5 109.8 c 0 53.1 -21.3 152.7 -90.3 152.7 c -24.9 0 -46.2 -18 -46.2 -43.8 c 0 -37.8 26.4 -74.4 26.4 -113.4 c 0 -66.2 -93.9 -54.2 -93.9 25.8 c 0 16.8 2.1 35.4 9.6 50.7 c -13.8 59.4 -42 147.9 -42 209.1 c 0 18.9 2.7 37.5 4.5 56.4 c 3.4 3.8 1.7 3.4 6.9 1.5 c 50.4 -69 48.6 -82.5 71.4 -172.8 c 12.3 23.4 44.1 36 69.3 36 c 106.2 0 153.9 -103.5 153.9 -196.8 C 384 71.3 298.2 6.5 204 6.5 Z" />
    </symbol>
    <symbol id="sx_pinterest-square" viewBox="0 0 448 512">
      <path d="M 448 80 v 352 c 0 26.5 -21.5 48 -48 48 H 154.4 c 9.8 -16.4 22.4 -40 27.4 -59.3 c 3 -11.5 15.3 -58.4 15.3 -58.4 c 8 15.3 31.4 28.2 56.3 28.2 c 74.1 0 127.4 -68.1 127.4 -152.7 c 0 -81.1 -66.2 -141.8 -151.4 -141.8 c -106 0 -162.2 71.1 -162.2 148.6 c 0 36 19.2 80.8 49.8 95.1 c 4.7 2.2 7.1 1.2 8.2 -3.3 c 0.8 -3.4 5 -20.1 6.8 -27.8 c 0.6 -2.5 0.3 -4.6 -1.7 -7 c -10.1 -12.3 -18.3 -34.9 -18.3 -56 c 0 -54.2 41 -106.6 110.9 -106.6 c 60.3 0 102.6 41.1 102.6 99.9 c 0 66.4 -33.5 112.4 -77.2 112.4 c -24.1 0 -42.1 -19.9 -36.4 -44.4 c 6.9 -29.2 20.3 -60.7 20.3 -81.8 c 0 -53 -75.5 -45.7 -75.5 25 c 0 21.7 7.3 36.5 7.3 36.5 c -31.4 132.8 -36.1 134.5 -29.6 192.6 l 2.2 0.8 H 48 c -26.5 0 -48 -21.5 -48 -48 V 80 c 0 -26.5 21.5 -48 48 -48 h 352 c 26.5 0 48 21.5 48 48 Z" />
    </symbol>

    <symbol id="sx_twitter" viewBox="0 0 512 512">
      <path d="M 459.37 151.716 c 0.325 4.548 0.325 9.097 0.325 13.645 c 0 138.72 -105.583 298.558 -298.558 298.558 c -59.452 0 -114.68 -17.219 -161.137 -47.106 c 8.447 0.974 16.568 1.299 25.34 1.299 c 49.055 0 94.213 -16.568 130.274 -44.832 c -46.132 -0.975 -84.792 -31.188 -98.112 -72.772 c 6.498 0.974 12.995 1.624 19.818 1.624 c 9.421 0 18.843 -1.3 27.614 -3.573 c -48.081 -9.747 -84.143 -51.98 -84.143 -102.985 v -1.299 c 13.969 7.797 30.214 12.67 47.431 13.319 c -28.264 -18.843 -46.781 -51.005 -46.781 -87.391 c 0 -19.492 5.197 -37.36 14.294 -52.954 c 51.655 63.675 129.3 105.258 216.365 109.807 c -1.624 -7.797 -2.599 -15.918 -2.599 -24.04 c 0 -57.828 46.782 -104.934 104.934 -104.934 c 30.213 0 57.502 12.67 76.67 33.137 c 23.715 -4.548 46.456 -13.32 66.599 -25.34 c -7.798 24.366 -24.366 44.833 -46.132 57.827 c 21.117 -2.273 41.584 -8.122 60.426 -16.243 c -14.292 20.791 -32.161 39.308 -52.628 54.253 Z" />
    </symbol>
    <symbol id="sx_twitter-square" viewBox="0 0 448 512">
      <path d="M 400 32 H 48 C 21.5 32 0 53.5 0 80 v 352 c 0 26.5 21.5 48 48 48 h 352 c 26.5 0 48 -21.5 48 -48 V 80 c 0 -26.5 -21.5 -48 -48 -48 Z m -48.9 158.8 c 0.2 2.8 0.2 5.7 0.2 8.5 c 0 86.7 -66 186.6 -186.6 186.6 c -37.2 0 -71.7 -10.8 -100.7 -29.4 c 5.3 0.6 10.4 0.8 15.8 0.8 c 30.7 0 58.9 -10.4 81.4 -28 c -28.8 -0.6 -53 -19.5 -61.3 -45.5 c 10.1 1.5 19.2 1.5 29.6 -1.2 c -30 -6.1 -52.5 -32.5 -52.5 -64.4 v -0.8 c 8.7 4.9 18.9 7.9 29.6 8.3 a 65.447 65.447 0 0 1 -29.2 -54.6 c 0 -12.2 3.2 -23.4 8.9 -33.1 c 32.3 39.8 80.8 65.8 135.2 68.6 c -9.3 -44.5 24 -80.6 64 -80.6 c 18.9 0 35.9 7.9 47.9 20.7 c 14.8 -2.8 29 -8.3 41.6 -15.8 c -4.9 15.2 -15.2 28 -28.8 36.1 c 13.2 -1.4 26 -5.1 37.8 -10.2 c -8.9 13.1 -20.1 24.7 -32.9 34 Z" />
    </symbol>
    <symbol id="sx_twitter-circle-bg" viewBox="0 0 24 24">
      <path d="M12 0c-6.627 0-12 5.373-12 12s5.373 12 12 12 12-5.373 12-12-5.373-12-12-12zm6.066 9.645c.183 4.04-2.83 8.544-8.164 8.544-1.622 0-3.131-.476-4.402-1.291 1.524.18 3.045-.244 4.252-1.189-1.256-.023-2.317-.854-2.684-1.995.451.086.895.061 1.298-.049-1.381-.278-2.335-1.522-2.304-2.853.388.215.83.344 1.301.359-1.279-.855-1.641-2.544-.889-3.835 1.416 1.738 3.533 2.881 5.92 3.001-.419-1.796.944-3.527 2.799-3.527.825 0 1.572.349 2.096.907.654-.128 1.27-.368 1.824-.697-.215.671-.67 1.233-1.263 1.589.581-.07 1.135-.224 1.649-.453-.384.578-.87 1.084-1.433 1.489z"/>
    </symbol>
    <symbol id="sx_twitter-circle-thin" viewBox="0 0 1000 1000">
      <path d="M780,266.8c-22.9,9.2-45.8,22.9-78,27.6c-68.9-87.2-243.2-18.3-211.1,110.1c-119.3-9.1-192.7-64.2-252.3-128.4c-32.1,55-4.6,142.2,36.7,165.1c-18.4,0-36.7-4.5-50.4-13.8c4.5,73.5,41.3,105.6,96.3,123.9c-13.8,0-32.2,4.6-50.5,0c18.3,50.5,55,82.5,114.7,87.2c-41.3,36.7-119.3,59.7-179,50.5c55.1,32.1,114.7,59.6,197.3,55c201.9-9.1,335-153.1,339.5-364.2c0,0,39.8-40.7,54-62.6c-20,7.6-44.9,13.8-67.7,18.4C752.5,317.3,770.9,299.1,780,266.8z"/>
      <path d="M500,10C230.5,10,10,230.5,10,500c0,269.4,220.5,490,490,490c269.5,0,490-220.5,490-490C990,230.5,769.5,10,500,10z M500,949.2C252.9,949.2,50.8,747,50.8,500C50.8,253,252.9,50.8,500,50.8S949.2,253,949.2,500C949.2,747,747.1,949.2,500,949.2z"/>
    </symbol>
    <symbol id="sx_twitter-circle" viewBox="0 0 24 24">
      <path d="M12 2c5.514 0 10 4.486 10 10s-4.486 10-10 10-10-4.486-10-10 4.486-10 10-10zm0-2c-6.627 0-12 5.373-12 12s5.373 12 12 12 12-5.373 12-12-5.373-12-12-12zm6.5 8.778c-.441.196-.916.328-1.414.388.509-.305.898-.787 1.083-1.362-.476.282-1.003.487-1.564.597-.448-.479-1.089-.778-1.796-.778-1.59 0-2.758 1.483-2.399 3.023-2.045-.103-3.86-1.083-5.074-2.572-.645 1.106-.334 2.554.762 3.287-.403-.013-.782-.124-1.114-.308-.027 1.14.791 2.207 1.975 2.445-.346.094-.726.116-1.112.042.313.978 1.224 1.689 2.3 1.709-1.037.812-2.34 1.175-3.647 1.021 1.09.699 2.383 1.106 3.773 1.106 4.572 0 7.154-3.861 6.998-7.324.482-.346.899-.78 1.229-1.274z"/>
    </symbol>
    <symbol id="sx_twitter-square-big" viewBox="0 0 24 24">
      <path d="M19 0h-14c-2.761 0-5 2.239-5 5v14c0 2.761 2.239 5 5 5h14c2.762 0 5-2.239 5-5v-14c0-2.761-2.238-5-5-5zm-.139 9.237c.209 4.617-3.234 9.765-9.33 9.765-1.854 0-3.579-.543-5.032-1.475 1.742.205 3.48-.278 4.86-1.359-1.437-.027-2.649-.976-3.066-2.28.515.098 1.021.069 1.482-.056-1.579-.317-2.668-1.739-2.633-3.26.442.246.949.394 1.486.411-1.461-.977-1.875-2.907-1.016-4.383 1.619 1.986 4.038 3.293 6.766 3.43-.479-2.053 1.08-4.03 3.199-4.03.943 0 1.797.398 2.395 1.037.748-.147 1.451-.42 2.086-.796-.246.767-.766 1.41-1.443 1.816.664-.08 1.297-.256 1.885-.517-.439.656-.996 1.234-1.639 1.697z"/>
    </symbol>
    <symbol id="sx_twitter-t-bg" viewBox="0 0 56.693 56.693">
      <path d="M28.347,5.157c-13.6,0-24.625,11.027-24.625,24.625c0,13.6,11.024,24.623,24.625,24.623  c13.602,0,24.625-11.023,24.625-24.623C52.972,16.184,41.948,5.157,28.347,5.157z M34.966,44.126c-1.016,0-6.633-0.133-8.068-0.133  c-1.434,0-8.912-2.332-8.912-10.559c0-1.465-0.001-2.938-0.005-4.404c-0.006-1.367-0.034-2.732-0.039-4.09  c-0.001-0.396-0.003-0.793-0.005-1.189c-0.01-2.072-0.185-4.405,0.481-6.395c0.51-1.518,1.716-2.125,3.202-2.125  c3.594,0,3.834,3.664,3.844,7.344h10.387c1.645,0,2.873,1.668,2.873,4.221c0,2.551-2.662,3.123-4.055,3.123h-9.32  c-0.047,1.562-0.098,2.834-0.098,3.607c0,1.625,0.635,3.385,4.604,3.385h5.578c1.393,0,3.459,1.055,3.459,4.002  C38.892,43.856,35.979,44.126,34.966,44.126z"/>
    </symbol>
    <symbol id="sx_twitter-t" viewBox="0 0 56.693 56.693">
      <path d="M40.952,42.347h-9.32c-6.631,0-7.688-2.934-7.688-5.654c0-1.291,0.08-3.42,0.16-6.027h15.572  c2.33,0,6.777-0.955,6.777-5.218c0-4.26-2.053-7.053-4.803-7.053H24.298C24.28,12.247,23.88,6.122,17.875,6.122  c-2.483,0-4.498,1.02-5.348,3.553c-1.115,3.328-0.82,7.225-0.806,10.69c0.004,0.658,0.007,1.32,0.009,1.98  c0.008,2.27,0.054,4.553,0.064,6.834c0.006,2.455,0.009,4.91,0.009,7.363c0,13.746,12.494,17.641,14.89,17.641  s11.783,0.223,13.479,0.223s6.562-0.449,6.562-5.371S43.282,42.347,40.952,42.347z"/>
    </symbol>

    <symbol id="sx_youtube" viewBox="0 0 576 512">
      <path d="M 549.655 124.083 c -6.281 -23.65 -24.787 -42.276 -48.284 -48.597 C 458.781 64 288 64 288 64 S 117.22 64 74.629 75.486 c -23.497 6.322 -42.003 24.947 -48.284 48.597 c -11.412 42.867 -11.412 132.305 -11.412 132.305 s 0 89.438 11.412 132.305 c 6.281 23.65 24.787 41.5 48.284 47.821 C 117.22 448 288 448 288 448 s 170.78 0 213.371 -11.486 c 23.497 -6.321 42.003 -24.171 48.284 -47.821 c 11.412 -42.867 11.412 -132.305 11.412 -132.305 s 0 -89.438 -11.412 -132.305 Z m -317.51 213.508 V 175.185 l 142.739 81.205 l -142.739 81.201 Z" />
    </symbol>
    <symbol id="sx_youtube-square" viewBox="0 0 448 512">
      <path d="M 186.8 202.1 l 95.2 54.1 l -95.2 54.1 V 202.1 Z M 448 80 v 352 c 0 26.5 -21.5 48 -48 48 H 48 c -26.5 0 -48 -21.5 -48 -48 V 80 c 0 -26.5 21.5 -48 48 -48 h 352 c 26.5 0 48 21.5 48 48 Z m -42 176.3 s 0 -59.6 -7.6 -88.2 c -4.2 -15.8 -16.5 -28.2 -32.2 -32.4 C 337.9 128 224 128 224 128 s -113.9 0 -142.2 7.7 c -15.7 4.2 -28 16.6 -32.2 32.4 c -7.6 28.5 -7.6 88.2 -7.6 88.2 s 0 59.6 7.6 88.2 c 4.2 15.8 16.5 27.7 32.2 31.9 C 110.1 384 224 384 224 384 s 113.9 0 142.2 -7.7 c 15.7 -4.2 28 -16.1 32.2 -31.9 c 7.6 -28.5 7.6 -88.1 7.6 -88.1 Z" />
    </symbol>
    <symbol id="sx_youtube-circle" viewBox="0 0 56.693 56.693">
      <polygon points="17.833,31.853 19.616,31.853 19.616,40.71 21.339,40.71 21.339,31.853 23.12,31.853 23.12,30.345 17.833,30.345"/>
      <path d="M28.413,24.493c0.234,0,0.42-0.062,0.557-0.189c0.137-0.131,0.207-0.309,0.207-0.533v-4.59c0-0.184-0.07-0.334-0.211-0.445   c-0.141-0.115-0.324-0.172-0.553-0.172c-0.209,0-0.379,0.057-0.512,0.172c-0.131,0.111-0.195,0.262-0.195,0.445v4.59   c0,0.23,0.061,0.408,0.184,0.533C28.011,24.431,28.187,24.493,28.413,24.493z"/>
      <path d="M32.212,32.97c-0.238,0-0.473,0.061-0.705,0.182c-0.229,0.121-0.449,0.301-0.654,0.533v-3.34h-1.545V40.71h1.545v-0.586   c0.199,0.236,0.418,0.408,0.652,0.52c0.232,0.111,0.5,0.166,0.801,0.166c0.451,0,0.801-0.143,1.037-0.432   c0.24-0.291,0.361-0.705,0.361-1.246v-4.244c0-0.627-0.127-1.104-0.385-1.428C33.065,33.134,32.696,32.97,32.212,32.97z    M32.128,38.921c0,0.246-0.045,0.42-0.133,0.527c-0.088,0.109-0.225,0.162-0.412,0.162c-0.129,0-0.25-0.029-0.369-0.082   c-0.117-0.053-0.24-0.146-0.361-0.27v-4.764c0.104-0.107,0.209-0.186,0.314-0.234c0.105-0.053,0.215-0.076,0.324-0.076   c0.205,0,0.365,0.066,0.477,0.197c0.107,0.135,0.16,0.33,0.16,0.59V38.921z"/>
      <path d="M26.628,38.874c-0.143,0.164-0.301,0.299-0.473,0.408c-0.172,0.107-0.316,0.16-0.426,0.16   c-0.145,0-0.248-0.039-0.314-0.121c-0.062-0.08-0.096-0.211-0.096-0.391v-5.867h-1.527v6.395c0,0.457,0.09,0.793,0.268,1.025   c0.182,0.227,0.445,0.34,0.799,0.34c0.287,0,0.584-0.078,0.889-0.242c0.305-0.166,0.598-0.4,0.881-0.709v0.838h1.529v-7.646h-1.529   V38.874z"/>
      <path d="M28.347,5.155c-13.6,0-24.625,11.025-24.625,24.625c0,13.602,11.025,24.625,24.625,24.625   c13.6,0,24.625-11.023,24.625-24.625C52.972,16.18,41.946,5.155,28.347,5.155z M32.325,17.317h1.719v6.459   c0,0.201,0.039,0.344,0.111,0.432c0.07,0.09,0.188,0.137,0.35,0.137c0.125,0,0.285-0.061,0.48-0.178   c0.191-0.121,0.369-0.271,0.529-0.457v-6.393h1.723v8.424h-1.723v-0.93c-0.314,0.342-0.645,0.605-0.99,0.783   c-0.342,0.178-0.674,0.27-0.998,0.27c-0.398,0-0.697-0.127-0.9-0.379c-0.199-0.248-0.301-0.623-0.301-1.129V17.317z M25.935,19.243   c0-0.65,0.23-1.17,0.693-1.561c0.465-0.383,1.088-0.578,1.869-0.578c0.713,0,1.295,0.205,1.752,0.611   c0.453,0.406,0.68,0.934,0.68,1.578v4.35c0,0.723-0.223,1.287-0.666,1.695c-0.449,0.408-1.062,0.613-1.844,0.613   c-0.752,0-1.355-0.211-1.807-0.631c-0.451-0.426-0.678-0.996-0.678-1.711V19.243z M21.247,14.323l1.258,4.562h0.123l1.197-4.562   h1.969l-2.254,6.682v4.737h-1.938v-4.526l-2.307-6.893H21.247z M43.786,38.356c0,3.047-2.471,5.52-5.518,5.52H19.092   c-3.049,0-5.52-2.473-5.52-5.52v-4.438c0-3.049,2.471-5.52,5.52-5.52h19.176c3.047,0,5.518,2.471,5.518,5.52V38.356z"/>
      <path d="M36.827,32.874c-0.686,0-1.24,0.207-1.674,0.627c-0.432,0.416-0.65,0.959-0.65,1.617v3.438   c0,0.738,0.199,1.316,0.592,1.734c0.393,0.42,0.932,0.631,1.617,0.631c0.762,0,1.334-0.197,1.715-0.592   c0.387-0.398,0.576-0.988,0.576-1.773v-0.393h-1.572v0.348c0,0.451-0.053,0.742-0.152,0.873s-0.277,0.197-0.531,0.197   c-0.244,0-0.416-0.076-0.518-0.23c-0.1-0.158-0.148-0.436-0.148-0.84v-1.439h2.922v-1.953c0-0.723-0.186-1.277-0.562-1.666   C38.065,33.067,37.526,32.874,36.827,32.874z M37.431,35.882h-1.35v-0.773c0-0.32,0.049-0.553,0.156-0.686   c0.107-0.143,0.281-0.211,0.525-0.211c0.23,0,0.404,0.068,0.508,0.211c0.105,0.133,0.16,0.365,0.16,0.686V35.882z"/>
    </symbol>
    <symbol id="sx_you-tube" viewBox="0 0 56.693 56.693">
      <path d="M43.911,28.21H12.782c-4.948,0-8.959,4.015-8.959,8.962v7.201c0,4.947,4.011,8.961,8.959,8.961h31.129   c4.947,0,8.959-4.014,8.959-8.961v-7.201C52.87,32.225,48.858,28.21,43.911,28.21z M19.322,33.816h-2.894v14.38h-2.796v-14.38   H10.74V31.37h8.582V33.816z M27.497,48.196h-2.48v-1.36c-0.461,0.503-0.936,0.887-1.432,1.146c-0.496,0.27-0.975,0.396-1.441,0.396   c-0.576,0-1.004-0.183-1.297-0.555c-0.288-0.371-0.435-0.921-0.435-1.664V35.782h2.48v9.523c0,0.294,0.055,0.505,0.154,0.636   c0.107,0.135,0.277,0.197,0.51,0.197c0.18,0,0.412-0.086,0.691-0.26c0.281-0.176,0.537-0.396,0.77-0.668v-9.429h2.48V48.196z    M36.501,45.633c0,0.877-0.195,1.551-0.584,2.021c-0.387,0.47-0.953,0.701-1.686,0.701c-0.488,0-0.922-0.088-1.299-0.27   c-0.379-0.18-0.736-0.457-1.061-0.841v0.951h-2.51V31.37h2.51v5.419c0.336-0.375,0.691-0.666,1.062-0.861   c0.379-0.199,0.76-0.295,1.146-0.295c0.785,0,1.383,0.262,1.797,0.791c0.416,0.529,0.623,1.304,0.623,2.32V45.633z M45.104,42.288   h-4.746v2.339c0,0.652,0.08,1.106,0.242,1.359c0.166,0.254,0.445,0.378,0.842,0.378c0.412,0,0.697-0.107,0.863-0.321   c0.16-0.216,0.246-0.686,0.246-1.416v-0.565h2.553v0.637c0,1.272-0.309,2.231-0.936,2.878c-0.617,0.641-1.547,0.959-2.783,0.959   c-1.113,0-1.99-0.339-2.627-1.021c-0.635-0.678-0.959-1.619-0.959-2.815v-5.576c0-1.073,0.354-1.956,1.057-2.633   c0.701-0.677,1.604-1.015,2.715-1.015c1.137,0,2.01,0.313,2.619,0.941c0.609,0.629,0.914,1.529,0.914,2.706V42.288z"/>
      <path d="M41.466,37.646c-0.396,0-0.678,0.111-0.85,0.343c-0.176,0.218-0.258,0.591-0.258,1.112v1.255h2.193v-1.255   c0-0.521-0.088-0.895-0.262-1.112C42.122,37.758,41.843,37.646,41.466,37.646z"/>
      <path d="M32.909,37.604c-0.176,0-0.354,0.039-0.525,0.12c-0.174,0.079-0.344,0.21-0.512,0.38v7.733   c0.199,0.2,0.396,0.354,0.588,0.442c0.191,0.085,0.389,0.133,0.6,0.133c0.305,0,0.527-0.088,0.67-0.266   c0.141-0.176,0.213-0.457,0.213-0.854v-6.411c0-0.422-0.084-0.738-0.26-0.955C33.501,37.712,33.243,37.604,32.909,37.604z"/>
      <polygon points="16.858,23.898 20.002,23.898 20.002,16.208 23.663,5.36 20.467,5.36 18.521,12.77 18.323,12.77 16.28,5.36    13.113,5.36 16.858,16.554  "/>
      <path d="M27.923,24.243c1.27,0,2.266-0.333,2.992-0.999c0.721-0.669,1.082-1.582,1.082-2.752v-7.064   c0-1.041-0.369-1.898-1.104-2.559c-0.74-0.659-1.688-0.991-2.844-0.991c-1.27,0-2.281,0.314-3.033,0.941   c-0.75,0.627-1.127,1.468-1.127,2.531v7.088c0,1.163,0.367,2.083,1.1,2.773C25.722,23.898,26.702,24.243,27.923,24.243z    M26.765,13.246c0-0.297,0.107-0.537,0.316-0.725c0.217-0.184,0.492-0.273,0.834-0.273c0.369,0,0.668,0.089,0.896,0.273   c0.227,0.188,0.34,0.428,0.34,0.725v7.451c0,0.365-0.111,0.655-0.336,0.864c-0.223,0.21-0.523,0.313-0.9,0.313   c-0.369,0-0.654-0.1-0.854-0.31c-0.197-0.205-0.297-0.493-0.297-0.868V13.246z"/>
      <path d="M36.214,24.098c0.525,0,1.064-0.15,1.619-0.438c0.561-0.292,1.098-0.719,1.609-1.276v1.515h2.793V10.224h-2.793v10.38   c-0.26,0.297-0.549,0.541-0.859,0.735c-0.316,0.192-0.576,0.288-0.781,0.288c-0.262,0-0.455-0.072-0.568-0.221   c-0.115-0.143-0.18-0.377-0.18-0.698V10.224h-2.789v11.429c0,0.815,0.164,1.424,0.488,1.828   C35.083,23.891,35.565,24.098,36.214,24.098z"/>
    </symbol>

  </defs>
</svg>