<svg xmlns="http://www.w3.org/2000/svg" id="sx_FAQ" viewBox="0 0 32 32" style="fill:rgba(255,255,255,0.8)">
        <path
            d="M1 2 q0-1 1-1h28q1 0 1 1v20h-9v9h-20q-1 0 -1-1z M31 24 l-7 7 v-7z M3.5,3.5 l 0,16 2,0 0,-8 3,0 a1,1 0 0,0 0,-2 l -3,0 0,-4 4,0 a1,1 0 0,0 0,-2 Z M13.5,3.5 l -4 16 2 0 1.6 -7 2.4 0 1.6 7 2 0 -4 -16 Z M14.3 7 l -0.85 4 1.65 0 Z M23.5 3.5 l -1 0 c-1 0 -3 1 -3 3 l 0 10 c 0 1 1 3 3 3 h3 c 0.5 0 1.5 -0.35 1.5 -0.5 l 1 1 2.5 0 -2.3 -2.3 c 0.25 -0.25 0.25 -0.75 0.3 -1.2 l 0 -10 c 0 -1 -1 -3 -3 -3 Z M23.5 5.5 c-0.75 0 -2 0.25 -2 2 v 8 c 0 0.75 0.75 2 2 2 h1 c 0.25 0 0.5 -0.025 0.9 -0.125 l -2.5 -2.5 h2.5 l 1.1 1.1 l 0 -8.475 c 0 -0.75 -0.75 -2 -2 -2 Z" />
    </svg>
