<svg xmlns="http://www.w3.org/2000/svg" viewBox="0 0 32 32" id="sx_menu_squre_list" style="fill:rgba(255,255,255,0.8)">
        <path
            d="M2 3 q0 -1 1-1h4q1 0 1 1v4q0 1 -1 1h-4q-1 0 -1-1z M2 14 q0 -1 1-1h4q1 0 1 1v4q0 1 -1 1h-4q-1 0 -1-1z M2 25 q0 -1 1-1h4q1 0 1 1v4q0 1 -1 1h-4q-1 0 -1-1z M12 3 q0 -1 1 -1 h16 q1 0 1 1 v4q0 1 -1 1h-16q-1 0 -1-1z M12 14 q0 -1 1 -1 h16 q1 0 1 1 v4q0 1 -1 1h-16q-1 0 -1-1z M12 25 q0 -1 1 -1 h16 q1 0 1 1 v4q0 1 -1 1h-16q-1 0 -1-1z">
        </path>
    </svg>
