<svg xmlns="http://www.w3.org/2000/svg" style="stroke: none; fill: rgba(255,255,255,0.75)" id="sx_sort_alpha_desc" viewBox="0 0 32 32">
    <path d="M9 2.5 q-1 -1 -2 0 l -4.5 4.5 c-0.5 0.5 -0.5 1.5 1 1.5 h3v15 h-3 c-1.5 0 -1.5 1 -1 1.5 l 4.5 4.5 q 1 1 2 0 l 4.5 -4.5 c0.5 -0.5 0.5 -1.5 -1 -1.5 h-3 v-15 h3 c1.5 0 1.5 -1 1 -1.5z M18 2 q-1 0 -1 1 v1 q0 1 1 1 h6 l -6.8 6.8 q-0.2 0.2 -0.2 0.4 v0.8 q0 1 1 1 h10 q1 0 1 -1 v-1 q0 -1 -1 -1 h-6 l 6.8 -6.8 q0.2 -0.2 0.2 -0.4 v-0.8 q0 -1 -1 -1z M22.5 18 q-0.5 0 -1 1 l -5 10 c-0.25 0.75 0.25 1 0.5 1 h1.5 q0.5 0 0.75 -0.5 l 1.25 -2.5 h5 l 1.25 2.5 q0.25 0.5 0.75 0.5 h1.5 c0.25 0 0.75 -0.25 0.5 -1 l -5 -10 q-0.5 -1 -1 -1z m-1 7 l 1.5 -3 1.5 3z" />
</svg>


