<svg xmlns="http://www.w3.org/2000/svg" viewBox="0 0 32 32" id="sx_csv" style="fill:rgba(255,255,255,0.8)">
        <path
            d="M1 2 q0-1 1-1h28q1 0 1 1v20h-9v9h-20q-1 0 -1-1z M31 24 l-7 7 v-7z M11 8 q0 -4 -3.5 -4 q-4 0 -4 8 q0 8 4 8 q3.5 0 3.5 -4 h-2 q0 2 -1.5 2 q-2 0 -2 -6 q0 -6 2 -6 q1.5 0 1.5 2z M20 8 q0-4 -4-4 q-4 0 -4 4 q0 3 4 5 q2 1.2 2 3 q0 2 -2 2 q-2 0 -2 -2 h-2 q0 4 4 4 q4 0 4 -4 q0 -3 -4-5 q-2 -1.2 -2-3 q0-2 2 -2 q2 0 2 2z M20.5 4 l 2.75 16 h2.5 l 2.75 -16 h-2 l-2 12 l-2 -12z" />
    </svg>
