<svg xmlns="http://www.w3.org/2000/svg" style="stroke: none; fill: rgba(255,255,255,0.75)" id="sx_menu_apps" viewBox="0 0 32 32">
    <path d="M 0 1 q 0 -1 1 -1 h 6 q 1 0 1 1 v 6 q 0 1 -1 1 h -6 q -1 0 -1 -1 Z M 12 1 q 0 -1 1 -1 h 6 q 1 0 1 1 v 6 q 0 1 -1 1 h -6 q -1 0 -1 -1 Z M 24 1 q 0 -1 1 -1 h 6 q 1 0 1 1 v 6 q 0 1 -1 1 h -6 q -1 0 -1 -1 Z M 0 13 q 0 -1 1 -1 h 6 q 1 0 1 1 v 6 q 0 1 -1 1 h -6 q -1 0 -1 -1 Z M 12 13 q 0 -1 1 -1 h 6 q 1 0 1 1 v 6 q 0 1 -1 1 h -6 q -1 0 -1 -1 Z M 24 13 q 0 -1 1 -1 h 6 q 1 0 1 1 v 6 q 0 1 -1 1 h -6 q -1 0 -1 -1 Z M 0 24 q 0 -1 1 -1 h 6 q 1 0 1 1 v 6 q 0 1 -1 1 h -6 q -1 0 -1 -1 Z M 12 24 q 0 -1 1 -1 h 6 q 1 0 1 1 v 6 q 0 1 -1 1 h -6 q -1 0 -1 -1 Z M 24 24 q 0 -1 1 -1 h 6 q 1 0 1 1 v 6 q 0 1 -1 1 h -6 q -1 0 -1 -1 Z" />
</svg>