<svg xmlns="http://www.w3.org/2000/svg"
	 viewBox="-30 -35 360 180" style="background-color: #2D9788" xml:space="preserve">
<style type="text/css">
	.st0{fill:rgba(255,255,255, 0.9);}
	.st1{fill:rgba(19, 19, 19, 0.5)}
</style>
<path class="st0" d="M295,96.7c0-0.8-0.2-1.4-0.6-1.9s-0.9-0.9-2.3-1.3l-1.4-0.4c-1-0.3-1.4-0.6-1.4-1.2c0-0.7,0.6-1.1,1.4-1.1
	s1.7,0.2,2.8,0.8l1-2c-1-0.5-2.2-1.1-4-1.1c-2.6,0-4.4,1.5-4.4,3.7c0,0.7,0.2,1.5,0.6,2s1.3,1,2.1,1.2l1.3,0.2
	c1.2,0.2,1.7,0.6,1.7,1.4c0,0.7-0.7,1.3-1.5,1.3c-1.3,0-2.9-0.7-3.8-1.3l-1.1,2.2c1.7,0.9,3.2,1.3,4.6,1.3
	C293,100.7,295,99.1,295,96.7 M281.8,93.4h-3.4l0,0c0-1.6,0.6-2.5,1.8-2.5c0.6,0,1,0.2,1.3,0.7c0.3,0.4,0.4,0.9,0.4,1.7L281.8,93.4
	L281.8,93.4z M284.9,95.6v-0.7c0-2.4-0.5-3.9-1.5-5c-0.7-0.8-2-1.2-3.3-1.2c-1.5,0-2.6,0.5-3.6,1.5c-1,1.1-1.4,2.5-1.4,4.5
	c0,3.6,2.1,5.9,5.4,5.9c1.6,0,3-0.5,4.3-1.6l-1.1-1.8c-0.9,0.8-1.9,1.1-2.9,1.1c-1.5,0-2.4-1-2.4-2.7v-0.1L284.9,95.6L284.9,95.6z
	 M274,85.9c0-1-0.8-1.8-1.8-1.8s-1.9,0.8-1.9,1.8s0.8,1.8,1.8,1.8S274,86.9,274,85.9 M273.6,100.3V88.7l-3,0.5v11.1H273.6z
	 M269.6,100.1l-0.4-1.8c-0.5,0.2-0.8,0.2-1.1,0.2c-1,0-1.3-0.4-1.3-1.8V91h1.9l0.8-2h-2.7c0-1.1,0.1-2.4,0.2-3.4l-3,0.8
	c-0.1,0.8-0.1,1.6-0.1,2.7h-1.1v2h1.1v6.1c0,1,0,1.3,0.2,1.7c0.4,1,1.5,1.7,3.1,1.7C267.9,100.6,268.7,100.4,269.6,100.1 M262,85.9
	c0-1-0.8-1.8-1.8-1.8s-1.9,0.8-1.9,1.8s0.8,1.8,1.8,1.8C261.2,87.7,262,86.9,262,85.9 M261.6,100.3V88.7l-3,0.5v11.1H261.6z
	 M256.5,100.3V92c0-0.7-0.1-1.2-0.2-1.6c-0.4-1-1.5-1.6-2.7-1.6c-0.7,0-1.4,0.2-2,0.5c-0.5,0.3-0.9,0.5-1.3,0.8c0-0.5-0.2-1-0.4-1.4
	l-2.6,0.8c0.3,0.8,0.4,1.7,0.4,2.7v8.1h3v-8c0.7-0.6,1.5-1,2.1-1c0.8,0,1,0.4,1,1.7v7.3H256.5z M242.4,95.4v2.4
	c-0.4,0.5-1,0.8-1.5,0.8c-0.8,0-1.3-0.6-1.3-1.5C239.6,95.8,240.3,95.4,242.4,95.4C242.4,95.4,242.4,95.4,242.4,95.4z M246.3,99.1
	c-1-0.8-1.1-1.3-1.1-2.5l0.1-3.8c0-1.2,0-1.6-0.2-2c-0.4-1.3-1.7-2-3.6-2c-1,0-2,0.2-3.1,0.7c-0.8,0.3-1.2,0.6-1.8,0.9l1.3,2.1
	c1.2-0.8,2.3-1.3,3.3-1.3c1.1,0,1.3,0.4,1.3,1.7v0.4c-0.2,0-0.4,0-0.7,0c-3.6,0-5.4,1.2-5.4,3.9c0,2.3,1.4,3.5,3.9,3.5
	c0.9,0,1.7-0.2,2.3-0.6c0.2-0.2,0.5-0.4,0.7-0.6c0.3,0.6,0.9,1.1,1.6,1.4L246.3,99.1z M234.8,100.3v-8c0-1.5-0.2-2.2-0.8-2.8
	c-0.5-0.4-1.3-0.7-2.2-0.7c-1.2,0-2.2,0.4-3.2,1.5c-0.1-0.2-0.3-0.4-0.4-0.6c-0.6-0.6-1.4-0.9-2.3-0.9c-1,0-2,0.4-2.8,1.1
	c-0.1-0.6-0.2-0.8-0.4-1.1l-2.7,0.7c0.3,0.6,0.4,1.3,0.4,2.9v7.9h2.9v-8.2c0.6-0.6,1.4-0.9,1.9-0.9c0.8,0,1,0.3,1,1.7v7.4h2.8v-8.1
	c0.6-0.6,1.4-1,2-1c0.8,0,0.9,0.3,0.9,1.6v7.5H234.8z M218.7,99.4c-0.4-0.5-0.7-1.3-0.7-2.1v-8.6l-2.8,0.6v8
	c-0.2,0.6-1.1,1.1-1.8,1.1c-0.4,0-0.9-0.2-1-0.5c-0.2-0.3-0.2-0.8-0.2-1.9v-7.3l-2.9,0.6v7.3c0,1.1,0.1,1.7,0.2,2.3
	c0.4,1.1,1.7,1.8,3.3,1.8c1.2,0,2.3-0.4,3-1.1c0.2,0.5,0.5,0.8,0.9,1.1L218.7,99.4z M206.9,100.3V84.9h-3.1v6h-4.4v-6h-3.1v15.4h3.1
	v-6.9h4.4v6.9H206.9z"/>
<path class="st0" d="M241.7,74.1h-3.4l0,0c0-1.6,0.6-2.5,1.8-2.5c0.6,0,1,0.2,1.3,0.7c0.3,0.4,0.4,0.9,0.4,1.7v0.1 M244.8,76.2v-0.7
	c0-2.4-0.5-3.9-1.5-5c-0.7-0.8-2-1.2-3.3-1.2c-1.5,0-2.6,0.5-3.6,1.5c-1,1.1-1.4,2.5-1.4,4.5c0,3.6,2.1,5.9,5.4,5.9
	c1.6,0,3-0.5,4.3-1.6l-1.2-1.8c-0.9,0.8-1.9,1.1-2.9,1.1c-1.5,0-2.4-1-2.4-2.7v-0.1L244.8,76.2L244.8,76.2z M233.5,81v-7.9
	c0-1.1-0.1-1.5-0.3-2.1c-0.4-1-1.5-1.6-2.9-1.6c-1.1,0-2.4,0.5-3.2,1.2c0-0.1,0-0.6,0-1v-2.3c0-1.1-0.1-2.1-0.2-2.8l-3,0.7
	c0.1,0.5,0.2,1.5,0.2,2.6v13.1h3v-8.1c0.7-0.6,1.6-1,2.3-1c0.8,0,1.1,0.4,1.1,1.5v7.6L233.5,81L233.5,81z M223,80.7l-0.4-1.8
	c-0.5,0.2-0.8,0.2-1.1,0.2c-1,0-1.3-0.4-1.3-1.8v-5.7h1.9l0.8-2h-2.7c0-1.1,0.1-2.4,0.2-3.4l-3,0.8c-0.1,0.8-0.1,1.6-0.1,2.7h-1.1v2
	h1.1v6.1c0,1,0,1.3,0.2,1.7c0.4,1,1.5,1.7,3.1,1.7C221.4,81.2,222.1,81.1,223,80.7 M210.4,81v-8.3c0-0.7-0.1-1.2-0.2-1.6
	c-0.4-1-1.5-1.6-2.7-1.6c-0.7,0-1.4,0.2-2,0.5c-0.5,0.3-0.9,0.5-1.3,0.8c0-0.5-0.2-1-0.4-1.4l-2.6,0.8c0.3,0.8,0.4,1.7,0.4,2.7v8.2
	h3v-8c0.7-0.6,1.5-1,2.1-1c0.8,0,1,0.4,1,1.7v7.4h2.7V81z M199.6,66.5c0-1-0.8-1.8-1.8-1.8s-1.9,0.8-1.9,1.8s0.8,1.8,1.8,1.8
	C198.8,68.4,199.6,67.5,199.6,66.5 M199.2,81V69.4l-3,0.5V81C196.2,81,199.2,81,199.2,81z"/>
<path class="st0" d="M296.8,54.3c0,2.6-0.6,3.6-2,3.6c-0.6,0-1.2-0.3-1.6-0.7v-5.5c0.5-0.6,1.2-0.9,2-0.9c0.7,0,1.2,0.3,1.4,1
	C296.7,52.3,296.8,53.2,296.8,54.3 M300,54c0-2.6-0.9-4.1-2.1-4.9c-0.6-0.4-1.4-0.7-2.2-0.7c-1.2,0-2.3,0.4-2.8,1.1
	c0-0.4-0.1-0.7-0.2-1.1l-2.6,0.5c0.2,1,0.2,1.4,0.2,2.9v13.1l2.9-0.8v-3.5c0-0.3,0-0.7,0-0.9c0.6,0.4,1.5,0.6,2.4,0.6
	c1.2,0,2.3-0.5,3-1.3C299.6,57.7,300,56.4,300,54 M288.4,45.5c0-1-0.8-1.8-1.8-1.8s-1.9,0.8-1.9,1.8s0.8,1.8,1.8,1.8
	C287.6,47.3,288.4,46.5,288.4,45.5 M288,60V48.4l-3,0.5V60H288z M282.9,60v-7.9c0-1.1-0.1-1.5-0.3-2.1c-0.4-1-1.5-1.6-2.9-1.6
	c-1.1,0-2.4,0.5-3.2,1.2c0-0.1,0-0.6,0-0.9v-2.4c0-1.1-0.1-2.1-0.2-2.8l-3,0.7c0.1,0.5,0.2,1.5,0.2,2.6v13.1h3v-8.1
	c0.7-0.6,1.6-1,2.3-1c0.8,0,1.2,0.4,1.2,1.5v7.6h2.9V60z M272.1,56.4c0-0.8-0.2-1.4-0.6-1.9s-0.9-0.9-2.3-1.3l-1.4-0.4
	c-1-0.3-1.4-0.6-1.4-1.2c0-0.7,0.6-1.1,1.4-1.1s1.7,0.2,2.8,0.8l1-2c-1-0.5-2.2-1.1-4-1.1c-2.6,0-4.4,1.5-4.4,3.7
	c0,0.7,0.2,1.5,0.6,2s1.3,1,2.1,1.1l1.3,0.2c1.2,0.2,1.7,0.6,1.7,1.4c0,0.7-0.7,1.3-1.5,1.3c-1.3,0-2.9-0.7-3.8-1.3l-1.1,2.2
	c1.7,0.9,3.2,1.3,4.6,1.3C270.1,60.3,272.1,58.7,272.1,56.4 M263,48.6c-0.5-0.2-0.7-0.2-1.1-0.2c-1.1,0-2,0.8-2.7,1.6
	c0-0.6-0.2-1.2-0.5-1.6l-2.7,0.7c0.2,0.6,0.4,1.8,0.4,3.3V60h3v-8c0.6-0.6,1.1-1,1.8-1c0.3,0,0.6,0.1,0.9,0.2L263,48.6z M251.4,55
	v2.4c-0.4,0.5-1,0.8-1.5,0.8c-0.8,0-1.3-0.6-1.3-1.5C248.6,55.4,249.3,55,251.4,55L251.4,55z M255.4,58.7c-1-0.8-1.1-1.3-1.1-2.5
	l0.1-3.8c0-1.2,0-1.6-0.2-2c-0.4-1.3-1.7-2-3.6-2c-1,0-2,0.2-3.1,0.7c-0.8,0.3-1.2,0.6-1.8,0.9l1.3,2.1c1.2-0.8,2.3-1.3,3.3-1.3
	c1.1,0,1.3,0.4,1.3,1.7V53c-0.2,0-0.4,0-0.7,0c-3.6,0-5.4,1.2-5.4,3.9c0,2.3,1.4,3.5,3.9,3.5c0.9,0,1.7-0.2,2.3-0.6
	c0.2-0.2,0.5-0.4,0.7-0.6c0.3,0.6,0.9,1.1,1.6,1.4L255.4,58.7z M245.1,59.9l-0.5-1.8c-0.2,0-0.2,0-0.3,0c-0.2,0-0.5-0.1-0.6-0.3
	c-0.2-0.3-0.2-0.6-0.2-2.5v-8.8c0-1.6,0-2.3-0.2-2.9l-3,0.7c0.1,1,0.2,1.9,0.2,3.4v8.4c0,1.6,0,2,0.3,2.5c0.4,0.9,1.4,1.5,2.6,1.5
	C244,60.2,244.6,60.1,245.1,59.9 M235.7,54.2c0,2.7-0.6,3.8-1.8,3.8c-0.6,0-1.2-0.3-1.5-0.9c-0.2-0.6-0.4-1.5-0.4-2.9
	c0-1.1,0.1-1.9,0.3-2.5c0.2-0.7,0.8-1.1,1.5-1.1c0.5,0,1,0.2,1.3,0.6C235.5,51.7,235.7,52.7,235.7,54.2 M238.9,54.2
	c0-1.8-0.4-3.1-1.3-4.1c-1-1.1-2.2-1.7-3.8-1.7c-3.1,0-5.1,2.4-5.1,5.9c0,3.6,2,5.9,5.1,5.9c1.7,0,2.9-0.6,3.7-1.6
	C238.5,57.5,238.9,56.2,238.9,54.2 M227.2,60v-7.9c0-1.1-0.1-1.5-0.3-2.1c-0.4-1-1.5-1.6-2.9-1.6c-1.1,0-2.4,0.5-3.2,1.2
	c0-0.1,0-0.6,0-0.9v-2.4c0-1.1-0.1-2.1-0.2-2.8l-3,0.7c0.1,0.5,0.2,1.5,0.2,2.6v13.1h3v-8.1c0.7-0.6,1.6-1,2.3-1
	c0.8,0,1.1,0.4,1.1,1.5v7.6h3V60z M216.7,58.7l-1.3-1.8l-0.2,0.2c-0.7,0.6-1.3,0.9-2,0.9c-0.5,0-1-0.2-1.3-0.6
	c-0.4-0.5-0.6-1.4-0.6-2.9c0-2.7,0.6-3.8,1.9-3.8c0.6,0,1.2,0.3,1.8,0.9l1.4-1.9c-0.5-0.4-0.7-0.6-1.1-0.8c-0.6-0.3-1.4-0.5-2.2-0.5
	c-1,0-2.1,0.3-2.8,0.8c-1.3,0.9-2.3,2.6-2.3,5.2c0,3.7,1.8,5.8,4.9,5.8c1.1,0,2-0.2,2.8-0.7C216,59.3,216.2,59.1,216.7,58.7
	 M207,55.1c0-2.3-1.4-3.9-3.9-4.6l-1.9-0.5c-1.3-0.4-1.7-0.8-1.7-1.5c0-1,0.9-1.8,2.1-1.8c1.1,0,2.2,0.3,3.6,1.2l1.5-2.2
	c-1.3-1-3.3-1.5-5.1-1.5c-3.3,0-5.5,1.9-5.5,4.8c0,0.9,0.2,1.7,0.6,2.3c0.6,0.9,1.5,1.5,3,1.9l1.7,0.5c1.4,0.4,2,1,2,2
	c0,1.4-0.9,2.1-2.7,2.1c-1.5,0-2.8-0.5-4.2-1.2l-1.2,2.4c1.5,0.9,3.5,1.4,5.2,1.4C204.5,60.3,207,58.2,207,55.1"/>
<path class="st0" d="M253.5,37.2l-0.5-1.8c-0.2,0-0.2,0-0.3,0c-0.2,0-0.5-0.1-0.6-0.3c-0.2-0.3-0.2-0.6-0.2-2.5v-8.7
	c0-1.6,0-2.3-0.2-2.9l-3,0.7c0.1,1,0.2,1.9,0.2,3.4v8.4c0,1.6,0,2,0.3,2.5c0.4,1,1.4,1.5,2.6,1.5C252.4,37.6,253,37.4,253.5,37.2
	 M243.7,32.3v2.4c-0.4,0.5-1,0.8-1.5,0.8c-0.8,0-1.3-0.6-1.3-1.5C240.9,32.7,241.6,32.3,243.7,32.3L243.7,32.3z M247.7,36
	c-1-0.8-1.1-1.3-1.1-2.5l0.1-3.8c0-1.2,0-1.6-0.2-2c-0.4-1.3-1.7-2-3.6-2c-1,0-2,0.2-3.1,0.7c-0.8,0.3-1.2,0.6-1.8,0.9l1.3,2.1
	c1.2-0.8,2.3-1.3,3.3-1.3c1.1,0,1.3,0.4,1.3,1.7v0.5c-0.2,0-0.4,0-0.7,0c-3.6,0-5.4,1.2-5.4,3.9c0,2.3,1.4,3.5,3.9,3.5
	c0.9,0,1.7-0.2,2.3-0.6c0.2-0.2,0.5-0.4,0.7-0.6c0.3,0.6,0.9,1.1,1.6,1.4L247.7,36z M237.2,37l-0.4-1.8c-0.5,0.2-0.8,0.2-1.1,0.2
	c-1,0-1.3-0.4-1.3-1.8V28h1.9l0.8-2h-2.7c0-1.1,0.1-2.4,0.2-3.4l-3,0.8c-0.1,0.8-0.1,1.6-0.1,2.7h-1.1v2h1.1v6.1c0,1,0,1.3,0.2,1.7
	c0.4,1,1.5,1.7,3.1,1.7C235.6,37.6,236.3,37.4,237.2,37 M229.6,22.8c0-1-0.8-1.8-1.8-1.8s-1.9,0.8-1.9,1.8s0.8,1.8,1.8,1.8
	C228.8,24.7,229.6,23.9,229.6,22.8 M229.2,37.3V25.7l-3,0.5v11.1H229.2z M220.4,29.6c0,1-0.6,1.6-1.8,1.6c-1,0-1.7-0.5-1.7-1.6
	c0-1.1,0.6-1.7,1.8-1.7C219.7,27.9,220.4,28.6,220.4,29.6 M225.6,27.2l-1.2-1.9c-0.7,0.6-1.5,1-2.3,1c-0.4,0-0.8-0.1-1.4-0.2
	c-0.8-0.2-1.4-0.3-2-0.3c-2.9,0-4.8,1.5-4.8,3.8c0,1.7,0.8,2.7,2.4,3.1c-1.9,0.5-2.1,1.2-2.1,1.9c0,0.8,0.3,1.3,0.9,1.5
	c0.5,0.2,1.4,0.3,2.7,0.4h1.3c1.2,0,2.1,0.3,2.1,1.3c0,0.5-0.3,0.9-0.7,1.2c-0.5,0.3-1.1,0.4-1.9,0.4c-1.4,0-2.1-0.5-2.1-1.4
	c0-0.3,0-0.5,0.1-0.7h-2.7c-0.1,0.2-0.3,0.5-0.3,1.1c0,0.8,0.3,1.4,0.9,2c1,1,2.7,1.2,4.3,1.2c1.8,0,3.5-0.4,4.5-1.5
	c0.6-0.7,0.9-1.4,0.9-2.3c0-1-0.3-1.8-1-2.4c-0.8-0.7-1.7-1-3.4-1h-1.6c-0.3,0-0.5-0.1-0.5-0.3c0-0.3,0.4-0.6,1.2-0.9
	c0.2,0,0.3,0,0.4,0c2.4,0,4.2-1.4,4.2-3.4c0-0.8-0.2-1.3-0.7-1.9c0.2,0,0.5,0.1,0.8,0.1C224.3,28,225,27.8,225.6,27.2 M212.5,22.8
	c0-1-0.8-1.8-1.8-1.8s-1.9,0.8-1.9,1.8s0.8,1.8,1.8,1.8C211.7,24.7,212.5,23.9,212.5,22.8 M212.2,37.3V25.7l-3,0.5v11.1H212.2z
	 M204,29.9c0,3.3-0.9,4.8-3,4.8h-1.7V24.3h1.4c1.2,0,1.9,0.4,2.4,1.3C203.9,26.6,204,28.2,204,29.9 M207.5,29.7
	c0-2.8-0.7-4.7-2.1-6.1c-0.9-0.9-2.1-1.4-3.4-1.5c-0.6,0-1.8-0.1-2.7-0.1h-3.1v15.3h3.7c0.9,0,1.6,0,2.2-0.1c1.4-0.1,2.8-1,3.7-2.2
	C207,33.6,207.5,31.8,207.5,29.7"/>
<path class="st1" d="M178,100.4V22.6h-15.9v30.2h-22.4V22.6h-15.5v77.7h15.5V65.7h22.4v34.7L178,100.4 M117.1,75.9
	c0-11.5-6.9-19.7-19.7-23.1L88,50.2c-6.5-1.8-8.6-3.8-8.6-7.8c0-5.3,4.5-8.9,10.8-8.9c5.8,0,11.1,1.7,18.1,5.9l7.4-11.2
	c-6.8-5-16.4-7.9-25.9-7.9c-16.5,0-27.9,9.8-27.9,24c0,4.4,1.1,8.4,3.2,11.9c2.8,4.7,7.6,7.7,15.3,9.8l8.6,2.3
	c6.9,1.9,10.2,5,10.2,10.1c0,6.9-4.7,10.6-13.6,10.6c-7.8,0-14.1-2.5-21.4-6.3l-5.8,12.2c7.8,4.5,17.7,7,26.5,7
	C104.3,102,117.1,91.6,117.1,75.9 M39.2,63.2c0,16.4-4.7,24.4-15,24.4h-8.4V34.9H23c6.2,0,9.7,2.2,12.3,6.5
	C38.5,46.6,39.2,54.2,39.2,63.2 M56.8,61.8c0-14-3.5-23.9-10.6-31c-4.7-4.7-10.4-7.2-17-7.7c-3.1-0.2-9.1-0.4-13.5-0.4H0v77.7h18.9
	c4.6,0,8.3-0.2,11.2-0.4c7.3-0.6,14.2-4.8,18.9-11.2C54.2,81.7,56.8,72.4,56.8,61.8"/>
</svg>
