<svg xmlns="http://www.w3.org/2000/svg" id="sx_delicious" viewBox="0 0 448 512" style="fill:rgba(255,255,255,0.8)">
        <path
            d="M 446.5 68 c -0.4 -1.5 -0.9 -3 -1.4 -4.5 c -0.9 -2.5 -2 -4.8 -3.3 -7.1 c -1.4 -2.4 -3 -4.8 -4.7 -6.9 c -2.1 -2.5 -4.4 -4.8 -6.9 -6.8 c -1.1 -0.9 -2.2 -1.7 -3.3 -2.5 c -1.3 -0.9 -2.6 -1.7 -4 -2.4 c -1.8 -1 -3.6 -1.8 -5.5 -2.5 c -1.7 -0.7 -3.5 -1.3 -5.4 -1.7 c -3.8 -1 -7.9 -1.5 -12 -1.5 H 48 C 21.5 32 0 53.5 0 80 v 352 c 0 4.1 0.5 8.2 1.5 12 c 2 7.7 5.8 14.6 11 20.3 c 1 1.1 2.1 2.2 3.3 3.3 c 5.7 5.2 12.6 9 20.3 11 c 3.8 1 7.9 1.5 12 1.5 h 352 c 26.5 0 48 -21.5 48 -48 V 80 c -0.1 -4.1 -0.6 -8.2 -1.6 -12 Z M 416 432 c 0 8.8 -7.2 16 -16 16 H 224 V 256 H 32 V 80 c 0 -8.8 7.2 -16 16 -16 h 176 v 192 h 192 v 176 Z" />
    </svg>
