<svg xmlns="http://www.w3.org/2000/svg" id="sx_linkedin" viewBox="0 0 448 512" style="fill:rgba(255,255,255,0.8)">
        <path
            d="M 100.3 480 H 7.4 V 180.9 h 92.9 V 480 Z M 53.8 140.1 C 24.1 140.1 0 115.5 0 85.8 C 0 56.1 24.1 32 53.8 32 c 29.7 0 53.8 24.1 53.8 53.8 c 0 29.7 -24.1 54.3 -53.8 54.3 Z M 448 480 h -92.7 V 334.4 c 0 -34.7 -0.7 -79.2 -48.3 -79.2 c -48.3 0 -55.7 37.7 -55.7 76.7 V 480 h -92.8 V 180.9 h 89.1 v 40.8 h 1.3 c 12.4 -23.5 42.7 -48.3 87.9 -48.3 c 94 0 111.3 61.9 111.3 142.3 V 480 Z" />
    </svg>
