<svg xmlns="http://www.w3.org/2000/svg" id="sx_pinterest_square" viewBox="0 0 448 512" style="fill:rgba(255,255,255,0.8)">
        <path
            d="M 448 80 v 352 c 0 26.5 -21.5 48 -48 48 H 154.4 c 9.8 -16.4 22.4 -40 27.4 -59.3 c 3 -11.5 15.3 -58.4 15.3 -58.4 c 8 15.3 31.4 28.2 56.3 28.2 c 74.1 0 127.4 -68.1 127.4 -152.7 c 0 -81.1 -66.2 -141.8 -151.4 -141.8 c -106 0 -162.2 71.1 -162.2 148.6 c 0 36 19.2 80.8 49.8 95.1 c 4.7 2.2 7.1 1.2 8.2 -3.3 c 0.8 -3.4 5 -20.1 6.8 -27.8 c 0.6 -2.5 0.3 -4.6 -1.7 -7 c -10.1 -12.3 -18.3 -34.9 -18.3 -56 c 0 -54.2 41 -106.6 110.9 -106.6 c 60.3 0 102.6 41.1 102.6 99.9 c 0 66.4 -33.5 112.4 -77.2 112.4 c -24.1 0 -42.1 -19.9 -36.4 -44.4 c 6.9 -29.2 20.3 -60.7 20.3 -81.8 c 0 -53 -75.5 -45.7 -75.5 25 c 0 21.7 7.3 36.5 7.3 36.5 c -31.4 132.8 -36.1 134.5 -29.6 192.6 l 2.2 0.8 H 48 c -26.5 0 -48 -21.5 -48 -48 V 80 c 0 -26.5 21.5 -48 48 -48 h 352 c 26.5 0 48 21.5 48 48 Z" />
    </svg>
