<svg xmlns="http://www.w3.org/2000/svg" id="sx_pinterest" viewBox="0 0 384 512" style="fill:rgba(255,255,255,0.8)">
        <path
            d="M 204 6.5 C 101.4 6.5 0 74.9 0 185.6 C 0 256 39.6 296 63.6 296 c 9.9 0 15.6 -27.6 15.6 -35.4 c 0 -9.3 -23.7 -29.1 -23.7 -67.8 c 0 -80.4 61.2 -137.4 140.4 -137.4 c 68.1 0 118.5 38.7 118.5 109.8 c 0 53.1 -21.3 152.7 -90.3 152.7 c -24.9 0 -46.2 -18 -46.2 -43.8 c 0 -37.8 26.4 -74.4 26.4 -113.4 c 0 -66.2 -93.9 -54.2 -93.9 25.8 c 0 16.8 2.1 35.4 9.6 50.7 c -13.8 59.4 -42 147.9 -42 209.1 c 0 18.9 2.7 37.5 4.5 56.4 c 3.4 3.8 1.7 3.4 6.9 1.5 c 50.4 -69 48.6 -82.5 71.4 -172.8 c 12.3 23.4 44.1 36 69.3 36 c 106.2 0 153.9 -103.5 153.9 -196.8 C 384 71.3 298.2 6.5 204 6.5 Z" />
    </svg>
