<svg xmlns="http://www.w3.org/2000/svg" id="sx_share-alt" viewBox="0 0 448 512" style="fill:rgba(255,255,255,0.8)">
        <path
            d="M 304 296 c -14.562 0 -27.823 5.561 -37.783 14.671 l -67.958 -40.775 a 56.339 56.339 0 0 0 0 -27.793 l 67.958 -40.775 C 276.177 210.439 289.438 216 304 216 c 30.928 0 56 -25.072 56 -56 s -25.072 -56 -56 -56 s -56 25.072 -56 56 c 0 4.797 0.605 9.453 1.74 13.897 l -67.958 40.775 C 171.823 205.561 158.562 200 144 200 c -30.928 0 -56 25.072 -56 56 s 25.072 56 56 56 c 14.562 0 27.823 -5.561 37.783 -14.671 l 67.958 40.775 a 56.088 56.088 0 0 0 -1.74 13.897 c 0 30.928 25.072 56 56 56 s 56 -25.072 56 -56 C 360 321.072 334.928 296 304 296 Z" />
    </svg>
