<svg xmlns="http://www.w3.org/2000/svg" id="sx_share-variant-square" viewBox="-60 -120 640 640" style="fill:rgba(255,255,255,0.8)">
        <path
            d="M20 -80 c-20 0 -40 20 -40 40 v480 c0 20 20 40 40 40 h480 c20 0 40 -20 40 -40 v-480 c0 -20 -20 -40 -40 -40z M 384 104.96 C 367.787 104.96 353.28 98.56 342.187 88.5333 L 190.08 177.067 C 191.147 181.973 192 186.88 192 192 C 192 197.12 191.147 202.027 190.08 206.933 L 340.48 294.613 C 352 283.947 367.147 277.333 384 277.333 C 419.413 277.333 448 305.92 448 341.333 S 419.413 405.333 384 405.333 S 320 376.747 320 341.333 C 320 336.213 320.853 331.307 321.92 326.4 L 171.52 238.72 C 160 249.387 144.853 256 128 256 C 92.5867 256 64 227.413 64 192 S 92.5867 128 128 128 C 144.853 128 160 134.613 171.52 145.28 L 323.413 56.7467 C 322.347 52.2667 321.707 47.5733 321.707 42.6667 C 321.707 8.32 349.653 -19.4133 384 -19.4133 C 418.347 -19.4133 446.293 8.32 446.293 42.6667 S 418.347 104.96 384 104.96 Z" />
    </svg>
