<svg xmlns="http://www.w3.org/2000/svg" id="sx_youtube-square" viewBox="0 0 448 512" style="fill:rgba(255,255,255,0.8)">
        <path
            d="M 186.8 202.1 l 95.2 54.1 l -95.2 54.1 V 202.1 Z M 448 80 v 352 c 0 26.5 -21.5 48 -48 48 H 48 c -26.5 0 -48 -21.5 -48 -48 V 80 c 0 -26.5 21.5 -48 48 -48 h 352 c 26.5 0 48 21.5 48 48 Z m -42 176.3 s 0 -59.6 -7.6 -88.2 c -4.2 -15.8 -16.5 -28.2 -32.2 -32.4 C 337.9 128 224 128 224 128 s -113.9 0 -142.2 7.7 c -15.7 4.2 -28 16.6 -32.2 32.4 c -7.6 28.5 -7.6 88.2 -7.6 88.2 s 0 59.6 7.6 88.2 c 4.2 15.8 16.5 27.7 32.2 31.9 C 110.1 384 224 384 224 384 s 113.9 0 142.2 -7.7 c 15.7 -4.2 28 -16.1 32.2 -31.9 c 7.6 -28.5 7.6 -88.1 7.6 -88.1 Z" />
    </svg>
