<svg xmlns="http://www.w3.org/2000/svg" id="sx_forum" viewBox="0 0 32 32">
        <path
            d="M 0.6 17.4 q 0 -8 8 -8 h 3 q 0 8 8 8 q 0 8 -8 8 l 1 3 l -4 -3 q -8 0 -8 -8 z M 4.5 17.5 a 1 1 0 0 0 0 3 a 1 1 0 0 0 0 -3 z M 10 17.5 a 1 1 0 0 0 0 3 a 1 1 0 0 0 0 -3 z M 15.5 17.5 a 1 1 0 0 0 0 3 a 1 1 0 0 0 0 -3 z M 12.4 8.6 q 0 -8 8 -8 h 3 q 8 0 8 8 q 0 8 -8 8 l 1 3 l -4 -3 q -8 0 -8 -8 z M 16 7.5 a 1 1 0 0 0 0 3 a 1 1 0 0 0 0 -3 z M 21.5 7.5 a 1 1 0 0 0 0 3 a 1 1 0 0 0 0 -3 z M 27 7.5 a 1 1 0 0 0 0 3 a 1 1 0 0 0 0 -3 z" />
    </svg>
