<svg xmlns="http://www.w3.org/2000/svg" viewBox="0 0 32 32" id="sx_menu_cards">
        <path
            d="M2 3 q0 -1 1-1h4q1 0 1 1v4q0 1 -1 1h-4q-1 0 -1-1z M12.5 3 q0 -1 1-1h4q1 0 1 1v4q0 1 -1 1h-4q-1 0 -1-1z M24 3 q0 -1 1-1h4q1 0 1 1v4q0 1 -1 1h-4q-1 0 -1-1z M2 14 q0 -1 1-1h4q1 0 1 1v4q0 1 -1 1h-4q-1 0 -1-1z M12.5 14 q0 -1 1-1h4q1 0 1 1v4q0 1 -1 1h-4q-1 0 -1-1z M24 14 q0 -1 1-1h4q1 0 1 1v4q0 1 -1 1h-4q-1 0 -1-1z M2 25 q0 -1 1-1h4q1 0 1 1v4q0 1 -1 1h-4q-1 0 -1-1z M12.5 25 q0 -1 1-1h4q1 0 1 1v4q0 1 -1 1h-4q-1 0 -1-1z M24 25 q0 -1 1-1h4q1 0 1 1v4q0 1 -1 1h-4q-1 0 -1-1z">
        </path>
    </svg>
