<svg xmlns="http://www.w3.org/2000/svg" id="sx_menu_bold_list" viewBox="0 0 32 32">
        <path
            d=" M 1 2 q 0 -1 1 -1 h 6 q 1 0 1 1 v 6 q 0 1 -1 1 h -6 q -1 0 -1 -1 Z M 1 13 q 0 -1 1 -1 h 6 q 1 0 1 1 v 6 q 0 1 -1 1 h -6 q -1 0 -1 -1 Z M 1 24 q 0 -1 1 -1 h 6 q 1 0 1 1 v 6 q 0 1 -1 1 h -6 q -1 0 -1 -1 Z M 12 2 q 0 -1 1 -1 h 17 q 1 0 1 1 v 6 q 0 1 -1 1 h -17 q -1 0 -1 -1 Z M 12 13 q 0 -1 1 -1 h 17 q 1 0 1 1 v 6 q 0 1 -1 1 h -17 q -1 0 -1 -1 Z M 12 24 q 0 -1 1 -1 h 17 q 1 0 1 1 v 6 q 0 1 -1 1 h -17 q -1 0 -1 -1 Z" />
    </svg>
