<svg xmlns="http://www.w3.org/2000/svg" id="sx_menu_apps" viewBox="0 0 32 32">
        <path
            d=" M2 0 q-2 0 -2 2 v28 q0 2 2 2 h28 q2 0 2 -2 v-28 q0 -2 -2 -2 h-2 v2 h-4 v-2 h-5 v2 h-4 v-2 h-5 v2 h-4 v-2  z M3 4 h26 q1 0 1 1 v24 q0 1 -1 1 h-26 q-1 0 -1 -1 v-24 q0 -1 1 -1 z M4 7 q0 -1 1-1h4q1 0 1 1v4q0 1 -1 1h-4q-1 0 -1-1z M13 7 q0 -1 1-1h4q1 0 1 1v4q0 1 -1 1h-4q-1 0 -1-1z M22 7 q0 -1 1-1h4q1 0 1 1v4q0 1 -1 1h-4q-1 0 -1-1z M4 15 q0 -1 1-1h4q1 0 1 1v4q0 1 -1 1h-4q-1 0 -1-1z M13 15 q0 -1 1-1h4q1 0 1 1v4q0 1 -1 1h-4q-1 0 -1-1z M22 15 q0 -1 1-1h4q1 0 1 1v4q0 1 -1 1h-4q-1 0 -1-1z M4 23 q0 -1 1-1h4q1 0 1 1v4q0 1 -1 1h-4q-1 0 -1-1z M13 23 q0 -1 1-1h4q1 0 1 1v4q0 1 -1 1h-4q-1 0 -1-1z M22 23 q0 -1 1-1h4q1 0 1 1v4q0 1 -1 1h-4q-1 0 -1-1z" />
    </svg>
