<svg xmlns="http://www.w3.org/2000/svg" style="stroke: none; fill: #ffffff; background: transparent" id="sx_pencil" viewBox="0 0 32 32">
    <path d="M-4 -4 h40 v40 h-40 z M27 2 q-2.5 -2.5 -5 0 l -2 2 q-0.5 0.5 0 1 l 7 7 q0.5 0.5 1 0 l 2 -2 q2.5 -2.5 0 -5z m-8.5 4.5 q-0.5 -0.5 -1 0 l-14.5 14.5 -2 8 q0 2 2 2 l 8 -2 14.5 -14.5 q0.5 -0.5 0 -1 z m-1.5 3.5 a1 1 0 0 1 1.5 1.5 l -9 9 a1 1 0 0 1 -1.5 -1.5z m3.5 3.5 a1 1 0 0 1 1.5 1.5 l -9 9 a1 1 0 0 1 -1.5 -1.5z m-13.5 11.5 h3 v2 l -4 1 -2 -2 1 -4 h2z" />
</svg>

