<svg xmlns="http://www.w3.org/2000/svg" style="stroke: none; fill: #ffffff; background: transparent" id="sx_PDF_archives_small" viewBox="0 0 32 32">
    <path d="M-4 -4 v40 h40 v-40 z M 1 2 q 0 -1 1 -1 l 28 0 q 1 0 1 1 l 0 19 l -27 0 l -3 -3 Z M 6 23 h 25 v 3 h -21 Z M 12 28 h 19 v 3 h -15 Z M 2 4 l 0 14 3 0 0 -6 2 0 a 4 4 0 0 0 0 -8 Z M 5 9.5 l 0 -3 1.5 0 a 1 1 0 0 1 0 3 Z M 12 4 l 0 14 l 3 0 c8.6 0 8.6 -14 0 -14 Z M 15 6.5 c5 0 5 9 0 9 Z M 22 4 l 0 14 3 0 0 -6 3 0 a 1 1 0 0 0 0 -2.5 l -3 0 0 -3 4 0 a 1 1 0 0 0 0 -2.5 Z"/>
</svg>

