<svg xmlns="http://www.w3.org/2000/svg" id="sia_logo_aside" viewBox="-10 -8 260 112">
    <defs>        <!--0b28b9,0B4CB8-->
        <style>.a{fill:#0B4CB8;}.b{fill:#f5b000;}</style>
    </defs>
    <title>sia-logo-aside</title>
    <g transform="scale(0.88, 0.88) translate(3.6, 3.6)">
        <path class="a" d="M62.44,67.11c-3.82,0-7.16,2.3-7.16,4.92v0.5H69.61V72C69.61,69.41,66.26,67.11,62.44,67.11Zm-6.1,4.42c0.43-1.68,2.94-3.42,6.1-3.42s5.68,1.74,6.11,3.42H56.34ZM105.09,9.39H19.77V10.1h85.32V9.39Zm2.54,92.74V97.65h-3V91h0.92v-0.7h-0.92V89.19h0.92V88.48h-0.92V54.14h2.44V53.08h-2.44v-6h2.44V46h-2.44V12.81l3.09-2.49V5.56h-3.09V0H20.2V5.56H17.11v4.77l3.09,2.49V46H17.76v1.06H20.2v6H17.76v1.06H20.2V88.48H19.48v0.71H20.2v1.11H19.48V91H20.2v6.66h-3v4.47H0v1.06H124.86v-1.06H107.63ZM21.27,1.06h82.34v4.5H21.27V1.06ZM18.17,9.82V6.62h88.52v3.2L103.94,12h-83Zm81.4,86.05V91h4v4.87h-4Zm4,0.7v1.08h-4V96.57h4ZM77,90.29V89.19h26.59v1.11H77Zm-4.47,3.41V92.6H76v1.11H72.55ZM76,94.42v3.24H72.55V94.42H76ZM72.55,91.9V64.77H76V91.9H72.55ZM47.74,63.71V60.29H77.12v3.42H47.74Zm7.5,10.07V97.65H53.38V64.77h0.8v1h1.06v-1h0.87v1h1.06v-1H58v1H59.1v-1H60v1H61v-1h0.87v1H63v-1h0.87v1H64.9v-1h0.87v1h1.06v-1H67.7v1h1.06v-1h0.87v1h1.06v-1h0.8V97.65H69.63V73.78H55.24Zm7.55,16.56V74.84h5.78v15.5H62.79ZM68.58,91v6.61H62.79V91h5.78Zm-12.27-.7V74.84h5.78v15.5H56.3ZM62.09,91v6.61H56.3V91h5.78ZM48.91,93.71V92.6h3.41v1.11H48.91Zm3.41,0.71v3.24H48.91V94.42h3.41ZM48.91,91.9V64.77h3.41V91.9H48.91Zm-27.64-1.6V89.19H47.85v1.11H21.27ZM47.85,91v6.66H26V91H47.85ZM21.27,95.87V91h4v4.87h-4Zm4,0.7v1.08h-4V96.57h4Zm0-77.3V25h-4V19.27h4Zm-4-.71V13.09h4v5.47h-4Zm4,7.15v5.74h-4V25.72h4Zm0,6.44v5.74h-4V32.16h4Zm0,6.45v5.73h-4V38.6h4Zm0,6.44v1h-4V45h4Zm20.92,2v6h-25v-6h25ZM27,14.57V13.09h1.3v1.48H29V13.09h1.3v1.48H31V13.09h1.3v1.48H33V13.09h1.3v1.48H35V13.09h1.3v1.48H37V13.09h1.3v1.48H39V13.09h1.3v1.48H41V13.09h1.3v1.48h0.71V13.09h1.3v1.48h0.71V13.09h1.3v1.48h0.71V13.09h1.3v1.48h0.71V13.09h1.45v1.48h0.71V13.09h1.45v1.48H53.4V13.09h1.45v1.48h0.71V13.09H57v1.48h0.71V13.09h1.45v1.48h0.71V13.09h1.45v1.48H62V13.09h1.45v1.48H64.2V13.09h1.45v1.48h0.71V13.09h1.45v1.48h0.7V13.09H70v1.48h0.71V13.09h1.45v1.48h0.71V13.09h1.45v1.48H75V13.09H76.3v1.48H77V13.09h1.45v1.48h0.71V13.09h1.46v1.48h0.7V13.09h1.46v1.48h0.7V13.09h1.46v1.48h0.7V13.09h1.45v1.48H87.8V13.09h1.45v1.48H90V13.09h1.45v1.48h0.71V13.09h1.45v1.48h0.71V13.09h1.45v1.48h0.71V13.09h1.45v1.48H98.6V13.09h0.27V46H95.73V24.14H96.8v-4h-16v4H81.9V46H78.65V44.37h-9.3V24.14h1.08v-4H69.61l-6.91-3.87a0.53,0.53,0,0,0-.52,0l-6.91,3.87H54.44v4h1.08V44.37h-9.3V46H43V24.14H44v-4h-16v4h1.08V46H26V13.09h0.27v1.48H27Zm54.91,8.51V21.21H95.74v1.87H81.89ZM95,24.14V46h-1.2V24.14H95ZM84.51,25.64V24.14h8.61v1.51H84.51Zm8.61,1.06V46H84.51V26.7h8.61ZM83.8,24.14V46H82.61V24.14H83.8ZM81.91,59V88.48H77V64.77h1.16V59.23H77v-2h1.63V54.14h2.18V59h1.08Zm13.84-1.06H81.89V54.19H95.74v3.72ZM96.8,59V54.14h2.07V88.48H95.73V59H96.8ZM95,59V88.48h-1.2V59H95ZM84.51,82.7V63.45h8.61V82.7H84.51Zm8.61,1.06v4.72H84.51V83.76h8.61ZM84.51,62.39V59h8.61v3.42H84.51ZM83.8,59V88.48H82.61V59H83.8Zm-36.52-2.8V45.43h1.54v8.89H76V45.43h1.55V56.17H47.28ZM76,57.23v2H72.55v-2H76Zm-4.47,0v2H53.38v-2h18.1Zm-19.17,0v2H48.91v-2h3.41Zm-2.44-4V45.43h1.07v7.83H49.88Zm1.42,0V45.43h1.53v7.83H51.3Zm1.88,0V45.43h1.53v7.83H53.19Zm16.14-32,0,0v1.85H55.51V21.23l0,0H69.33Zm-11.9-1.06,5-2.8,5,2.8h-10ZM68.64,44.37H67.45V24.14h1.19V44.37Zm1.15,1.06v7.83H68.26V45.43h1.53ZM58.13,44.37V26.7h8.61V44.37H58.13ZM66,45.43v7.83H64.49V45.43H66Zm-1.88,0v7.83H62.61V45.43h1.53Zm-1.88,0v7.83H60.73V45.43h1.53Zm-1.89,0v7.83H58.84V45.43h1.53Zm-1.88,0v7.83H57V45.43h1.53ZM58.13,25.64V24.14h8.61v1.51H58.13Zm8.25,19.78h1.53v7.83H66.38V45.43ZM56.23,24.14h1.19V44.37H56.23V24.14ZM56.6,45.43v7.83H55.07V45.43H56.6Zm13.54,7.83V45.43h1.53v7.83H70.15Zm1.88,0V45.43h1.53v7.83H72Zm1.88,0V45.43H75v7.83H73.92ZM29.12,23.08V21.21H43v1.87H29.12Zm13.13,1.06V46H41.06V24.14h1.19ZM31.75,25.64V24.14h8.61v1.51H31.75Zm8.61,1.06V46H31.75V26.7h8.61ZM31,24.14V46H29.85V24.14H31ZM29.12,57.91V54.19H43v3.72H29.12ZM42.26,59V88.48H41.06V59h1.19ZM31.75,82.7V63.45h8.61V82.7H31.75Zm8.61,1.06v4.72H31.75V83.76h8.61ZM31.75,62.39V59h8.61v3.42H31.75ZM31,59V88.48H29.85V59H31Zm-1.9,0V88.48H26V54.14h2.06V59h1.08Zm-3.85-4.83v3.07h-4V54.14h4Zm0,3.78v5.74h-4V57.92h4Zm0,6.44V70.1h-4V64.36h4Zm0,6.44v5.73h-4V70.81h4Zm0,6.44V83h-4V77.25h4Zm0,6.44v4.8h-4v-4.8h4ZM43,88.48V59H44V54.14h2.18v3.09h1.63v2H46.69v5.53h1.16V88.48H43ZM77,91H98.87v6.66H77V91Zm22.55-2.52V83.69h4v4.79h-4Zm0-5.5V77.25h4V83h-4Zm0-6.44V70.81h4v5.73h-4Zm0-6.44V64.36h4V70.1h-4Zm0-6.44V57.93h4v5.73h-4Zm0-6.44V54.14h4v3.07h-4ZM78.65,53.08v-6h25v6h-25ZM99.57,46V45h4v1h-4Zm0-1.68V38.6h4v5.73h-4Zm0-6.44V32.16h4v5.74h-4Zm0-6.44V25.72h4v5.74h-4Zm0-6.44V19.27h4V25h-4Zm0-6.44V13.09h4v5.47h-4Zm7,83.56H18.3V98.71h88.27v3.42Z"/>
    </g>
    <g transform="scale(1,1) translate(121, -80.5)">
        <g transform="scale(0.9,0.9) translate(14, -3)">
            <path class="a" d="M11.71,130.64l0.72-.35a4.11,4.11,0,0,0,3.95,2.41c1.83,0,3.33-1.07,3.33-2.84s-0.91-2.51-2.86-3.41l-1.29-.6c-2-.91-2.92-1.83-2.92-3.6a3.16,3.16,0,0,1,3.43-3.12,4,4,0,0,1,3.58,2l-0.66.43a3.19,3.19,0,0,0-2.92-1.71,2.32,2.32,0,0,0-2.61,2.37c0,1.4.7,2.08,2.43,2.88l1.3,0.6c2.26,1,3.35,2.22,3.35,4.16,0,2.18-1.73,3.58-4.13,3.58A4.84,4.84,0,0,1,11.71,130.64Z"/>
            <path class="a" d="M25.3,119.29h0.9l3.42,11.25c0.1,0.37.21,0.92,0.23,1a5.75,5.75,0,0,1,.27-1l4-11.41h0.25l4,11.41c0.12,0.37.23,0.92,0.25,1a7.42,7.42,0,0,1,.25-1l3.41-11.25h0.86l-4.38,14.15H38.54l-4.07-11.6a7.48,7.48,0,0,1-.23-1c0,0.08-.12.62-0.25,1l-4.09,11.6H29.68Z"/>
            <path class="a" d="M49,119.29h8.17V120H49.83v7.48h6.56v0.74H49.83v4.28h7.61v0.74H49v-14Z"/>
            <path class="a" d="M63.64,119.29h3c4.83,0,7.65,2.69,7.65,7s-2.8,7-7.65,7h-3v-14Zm2.88,13.22c4.63,0,6.87-2.57,6.87-6.23S71.15,120,66.52,120h-2v12.46h2Z"/>
            <path class="a" d="M80.52,119.29h0.85v14H80.52v-14Z"/>
            <path class="a" d="M87.2,130.64l0.72-.35a4.1,4.1,0,0,0,3.94,2.41c1.83,0,3.34-1.07,3.34-2.84s-0.91-2.51-2.86-3.41l-1.29-.6c-2-.91-2.93-1.83-2.93-3.6a3.17,3.17,0,0,1,3.44-3.12,4,4,0,0,1,3.58,2l-0.66.43a3.19,3.19,0,0,0-2.92-1.71A2.32,2.32,0,0,0,89,122.23c0,1.4.69,2.08,2.42,2.88l1.3,0.6c2.26,1,3.35,2.22,3.35,4.16,0,2.18-1.73,3.58-4.13,3.58A4.83,4.83,0,0,1,87.2,130.64Z"/>
            <path class="a" d="M102.27,119.29h0.84v8.22h8.15v-8.22h0.84v14h-0.84v-5h-8.15v5h-0.84v-14Z"/>
        </g>

        <g transform="scale(0.9,0.9) translate(6.2, -1.5)">
            <path class="a" d="M6.17,144H7v14H6.17V144Z"/>
            <path class="a" d="M15.57,146.51c-0.27-.35-0.64-0.93-0.64-0.93s0.06,0.64.06,1v11.31H14.21V143.79h0.25l8.95,11.6c0.27,0.35.64,0.93,0.64,0.93S24,155.68,24,155.26V144h0.78v14.15H24.51Z"/>
            <path class="a" d="M30.51,155.31l0.72-.35a4.11,4.11,0,0,0,3.95,2.41c1.83,0,3.33-1.07,3.33-2.84,0-1.62-.91-2.5-2.86-3.41l-1.3-.6c-2-.9-2.92-1.83-2.92-3.6a3.17,3.17,0,0,1,3.44-3.12,4,4,0,0,1,3.58,2l-0.66.43a3.19,3.19,0,0,0-2.92-1.71,2.32,2.32,0,0,0-2.61,2.37c0,1.4.7,2.08,2.43,2.87l1.29,0.6c2.26,1,3.35,2.22,3.35,4.15,0,2.18-1.73,3.58-4.13,3.58A4.84,4.84,0,0,1,30.51,155.31Z"/>
            <path class="a" d="M48.27,144.69H43.83V144h9.73v0.74H49.12v13.24H48.27V144.69Z"/>
            <path class="a" d="M59.31,144h0.84v14H59.31V144Z"/>
            <path class="a" d="M70.35,144.69H65.91V144h9.73v0.74H71.2v13.24H70.35V144.69Z"/>
            <path class="a" d="M81.17,153.29V144H82v9.28c0,2.69,1.57,4.13,3.87,4.13s3.89-1.44,3.89-4.13V144h0.84v9.34A4.72,4.72,0,1,1,81.17,153.29Z"/>
            <path class="a" d="M100.57,144.69H96.13V144h9.73v0.74h-4.45v13.24h-0.84V144.69Z"/>
            <path class="a" d="M111.53,144h8.16v0.74h-7.32v7.49h6.56v0.74h-6.56v4.28H120v0.74h-8.45V144Z"/>
        </g>

        <g transform="scale(0.9,0.9) translate(5.4, 0)">
            <path class="a" d="M10.47,177.35c0-1.89-.86-2.61-2.24-2.61a3.06,3.06,0,0,0-2.73,1.44l-0.58-.41A3.83,3.83,0,0,1,8.25,174a2.88,2.88,0,0,1,3,3.23v5.35h-0.8l0-1.3a3.31,3.31,0,0,1-2.9,1.46c-1.91,0-3.17-.89-3.17-2.57s1.46-2.45,3.07-2.45h3v-0.41Zm-2.86,1.07c-1.27,0-2.37.49-2.37,1.77s0.84,1.87,2.45,1.87c1.4,0,2.78-.82,2.78-2.12v-1.52H7.61Z"/>
            <path class="a" d="M17.75,180.39V174.9H16.43v-0.68h1.32v-4.38h0.8v4.38H21v0.68H18.55v5.47c0,1.24.43,1.69,1.13,1.69a1.57,1.57,0,0,0,1.34-.62l0.51,0.5a2.22,2.22,0,0,1-1.85.84C18.61,182.78,17.75,182.1,17.75,180.39Z"/>
            <path class="a" d="M39.46,168.46H39.7l5.68,14.15H44.51l-1.07-2.72H35.71l-1.07,2.72H33.8Zm3.68,10.69-3.15-8a11.7,11.7,0,0,1-.41-1.25c0,0.06-.23.78-0.41,1.25l-3.17,8h7.14Z"/>
            <path class="a" d="M52.84,169.36H48.4v-0.74h9.73v0.74H53.68v13.25H52.84V169.36Z"/>
            <path class="a" d="M63.8,168.62h0.84v8.23h8.14v-8.23h0.84v14H72.78v-5H64.64v5H63.8v-14Z"/>
            <path class="a" d="M80.73,168.62H88.9v0.74H81.58v7.49h6.56v0.74H81.58v4.28h7.61v0.74H80.73v-14Z"/>
            <path class="a" d="M96.75,171.17c-0.27-.35-0.64-0.93-0.64-0.93s0.06,0.64.06,1.05v11.31H95.39V168.46h0.25l9,11.6c0.26,0.35.64,0.92,0.64,0.92s-0.06-.64-0.06-1V168.62h0.78v14.15H105.7Z"/>
            <path class="a" d="M111.7,180l0.72-.35a4.11,4.11,0,0,0,3.95,2.41c1.83,0,3.33-1.07,3.33-2.84s-0.91-2.51-2.86-3.41l-1.29-.6c-2-.9-2.93-1.83-2.93-3.6a3.17,3.17,0,0,1,3.44-3.13,4,4,0,0,1,3.58,2l-0.66.43a3.19,3.19,0,0,0-2.92-1.71,2.32,2.32,0,0,0-2.61,2.37c0,1.4.7,2.08,2.42,2.88l1.3,0.6c2.26,1,3.35,2.22,3.35,4.15,0,2.18-1.73,3.58-4.13,3.58A4.84,4.84,0,0,1,111.7,180Z"/>
        </g>
    </g>
    <rect class="a" y="13.6" x="123" width="114" height="1"/>
    <rect class="b" y="93" x="123" width="114" height="1"/>
</svg>