<svg version="1.1" id="Layer_1" xmlns="http://www.w3.org/2000/svg" xmlns:xlink="http://www.w3.org/1999/xlink" x="0px" y="0px" viewBox="0 0 358 45" xml:space="preserve">
	<g>
		<path fill="#12100B" d="M57.672,24.917V14.03h-3.899v-1.988H63.83v1.988H59.93v10.887H57.672z" />
		<path fill="#12100B" d="M74.694,24.917V19.28h-6.698v5.637h-2.258V12.042h2.258v5.251h6.698v-5.251h2.258v12.875H74.694z" />
		<path fill="#12100B" d="M79.691,24.917V12.042h8.821v1.988H81.95v3.32h6.428v1.988H81.95v3.59h6.563v1.988H79.691z" />
		<path fill="#12100B" d="M105.65,24.917l-2.49-9.516l-2.509,9.516h-2.413L94.57,12.042h2.509l2.509,9.902l2.664-9.902h1.795
		l2.664,9.902l2.509-9.902h2.529l-3.687,12.875H105.65z" />
		<path fill="#12100B" d="M121.397,24.917l-0.946-2.49h-5.906l-0.946,2.49h-2.567l5.057-12.875h2.818l5.057,12.875H121.397z
		 M117.499,14.301l-2.316,6.138h4.633L117.499,14.301z" />
		<path fill="#12100B" d="M125.197,24.917V12.042h2.259v10.887h5.675v1.988H125.197z" />
		<path fill="#12100B" d="M134.962,24.917V12.042h2.259v10.887h5.675v1.988H134.962z" />
		<path fill="#12100B" d="M144.882,24.917V12.042h8.821v1.988h-6.563v3.32h6.428v1.988h-6.428v3.59h6.563v1.988H144.882z" />
		<path fill="#12100B" d="M164.993,24.917l-6.717-9.207v9.207h-2.258V12.042h2.316l6.583,8.918v-8.918h2.258v12.875H164.993z" />
		<path fill="#12100B" d="M169.912,24.917V12.042h6.331c2.374,0,3.667,1.468,3.667,3.281c0,1.603-1.042,2.703-2.239,2.954
		c1.39,0.212,2.49,1.582,2.49,3.146c0,2.008-1.313,3.494-3.745,3.494H169.912z M177.594,15.69c0-0.945-0.656-1.66-1.795-1.66h-3.629
		v3.32h3.629C176.938,17.351,177.594,16.675,177.594,15.69z M177.845,21.134c0-0.965-0.676-1.795-1.95-1.795h-3.725v3.59h3.725
		C177.112,22.929,177.845,22.253,177.845,21.134z" />
		<path fill="#12100B" d="M182.438,24.917V12.042h8.821v1.988h-6.563v3.32h6.428v1.988h-6.428v3.59h6.563v1.988H182.438z" />
		<path fill="#12100B" d="M200.926,24.917l-2.837-4.807h-2.259v4.807h-2.259V12.042h5.656c2.548,0,4.227,1.641,4.227,4.034
		c0,2.278-1.506,3.532-3.068,3.783l3.165,5.058H200.926z M201.138,16.058c0-1.235-0.926-2.027-2.2-2.027h-3.107v4.093h3.107
		C200.212,18.123,201.138,17.312,201.138,16.058z" />
		<path fill="#12100B" d="M205.152,18.489c0-4.054,3.012-6.659,6.756-6.659c2.51,0,4.15,1.196,5.174,2.664l-1.834,1.062
		c-0.695-0.966-1.911-1.718-3.34-1.718c-2.548,0-4.439,1.93-4.439,4.651c0,2.683,1.892,4.652,4.439,4.652
		c1.313,0,2.471-0.599,3.05-1.158v-1.988h-3.86v-1.988h6.1v4.807c-1.255,1.408-3.069,2.354-5.289,2.354
		C208.164,25.168,205.152,22.523,205.152,18.489z" />
		<path fill="#12100B" d="M224.527,24.917V12.042h8.821v1.988h-6.563v3.32h6.428v1.988h-6.428v5.578H224.527z" />
		<path fill="#12100B" d="M234.833,18.489c0-3.841,2.722-6.659,6.582-6.659c3.841,0,6.583,2.818,6.583,6.659
		s-2.742,6.659-6.583,6.659C237.554,25.148,234.833,22.33,234.833,18.489z M245.681,18.489c0-2.664-1.68-4.651-4.267-4.651
		c-2.605,0-4.266,1.987-4.266,4.651c0,2.645,1.66,4.652,4.266,4.652C244.001,23.142,245.681,21.134,245.681,18.489z" />
		<path fill="#12100B" d="M250.156,19.821v-7.779h2.296v7.722c0,2.046,1.139,3.378,3.281,3.378s3.282-1.332,3.282-3.378v-7.722h2.297
		v7.779c0,3.185-1.834,5.327-5.579,5.327C252.009,25.148,250.156,23.006,250.156,19.821z" />
		<path fill="#12100B" d="M273.026,24.917l-6.717-9.207v9.207h-2.258V12.042h2.315l6.582,8.918v-8.918h2.259v12.875H273.026z" />
		<path fill="#12100B" d="M277.945,24.917V12.042h4.787c4.034,0,6.736,2.664,6.736,6.428c0,3.803-2.702,6.447-6.717,6.447H277.945z
		 M287.153,18.47c0-2.471-1.545-4.439-4.401-4.439h-2.548v8.898h2.528C285.531,22.929,287.153,20.922,287.153,18.47z" />
		<path fill="#12100B" d="M300.006,24.917l-0.946-2.49h-5.906l-0.946,2.49h-2.566l5.057-12.875h2.818l5.058,12.875H300.006z
		 M296.106,14.301l-2.316,6.138h4.633L296.106,14.301z" />
		<path fill="#12100B" d="M305.775,24.917V14.03h-3.899v-1.988h10.057v1.988h-3.898v10.887H305.775z" />
		<path fill="#12100B" d="M313.842,24.917V12.042h2.259v12.875H313.842z" />
		<path fill="#12100B" d="M318.28,18.489c0-3.841,2.722-6.659,6.582-6.659c3.842,0,6.582,2.818,6.582,6.659s-2.74,6.659-6.582,6.659
		C321.002,25.148,318.28,22.33,318.28,18.489z M329.128,18.489c0-2.664-1.679-4.651-4.266-4.651c-2.605,0-4.266,1.987-4.266,4.651
		c0,2.645,1.66,4.652,4.266,4.652C327.449,23.142,329.128,21.134,329.128,18.489z" />
		<path fill="#12100B" d="M342.579,24.917l-6.717-9.207v9.207h-2.259V12.042h2.316l6.582,8.918v-8.918h2.259v12.875H342.579z" />
		<path fill="#12100B" d="M346.668,23.103l1.274-1.757c0.868,0.946,2.277,1.796,4.073,1.796c1.853,0,2.566-0.907,2.566-1.776
		c0-2.702-7.489-1.022-7.489-5.752c0-2.143,1.854-3.783,4.69-3.783c1.988,0,3.629,0.656,4.807,1.814l-1.274,1.679
		c-1.022-1.022-2.393-1.485-3.744-1.485c-1.313,0-2.162,0.656-2.162,1.602c0,2.413,7.489,0.927,7.489,5.714
		c0,2.143-1.524,3.995-4.979,3.995C349.545,25.148,347.826,24.299,346.668,23.103z" />
	</g>
	<g>
		<path fill="#12100B" d="M73.99,37.115l0.949-3.032c0.041-0.129,0.1-0.34,0.176-0.633c0.012-0.059,0.023-0.105,0.035-0.141
		c0.123-0.384,0.185-0.629,0.185-0.733c0-0.075-0.038-0.146-0.114-0.21c-0.158-0.122-0.425-0.227-0.8-0.313L74.236,32l0.07-0.255
		c0.996,0,1.658-0.067,1.986-0.202l0.105-0.009c0.07,0,0.146,0.012,0.229,0.035c-0.041,0.176-0.07,0.296-0.088,0.36l-0.009,0.053
		l-0.729,2.18l-0.878,2.813c-0.158,0.48-0.264,0.835-0.316,1.063c-0.076,0.34-0.164,0.656-0.264,0.949l-1.247,3.735l0.026,0.053
		c0.21-0.035,0.749-0.53,1.615-1.485c0.093,0.041,0.164,0.094,0.21,0.158c-0.486,0.732-1.031,1.324-1.635,1.775
		c-0.434,0.322-0.759,0.483-0.976,0.483c-0.047,0-0.111-0.012-0.193-0.035c-0.035-0.053-0.053-0.1-0.053-0.141
		c0-0.176,0.1-0.583,0.299-1.222s0.337-1.102,0.413-1.389c-0.153,0.146-0.377,0.39-0.671,0.729c-0.561,0.65-1.153,1.187-1.777,1.608
		c-0.448,0.305-0.853,0.457-1.215,0.457c-0.199,0-0.354-0.082-0.468-0.246c-0.181-0.252-0.272-0.606-0.272-1.063
		c0-0.568,0.125-1.154,0.376-1.758c0.148-0.369,0.396-0.844,0.741-1.424s0.73-1.086,1.156-1.516c0.425-0.432,0.83-0.741,1.215-0.932
		s0.735-0.286,1.049-0.286c0.245,0,0.462,0.059,0.65,0.176C73.713,36.743,73.848,36.893,73.99,37.115z M70.101,42.811
		c0.227,0,0.49-0.108,0.79-0.325c0.549-0.398,1.066-0.927,1.55-1.587c0.484-0.658,0.824-1.316,1.02-1.973s0.293-1.046,0.293-1.169
		c0-0.188-0.071-0.366-0.212-0.536s-0.271-0.255-0.391-0.255c-0.209,0-0.463,0.076-0.76,0.229s-0.61,0.413-0.938,0.782
		c-0.187,0.205-0.473,0.633-0.858,1.283s-0.671,1.21-0.858,1.679s-0.28,0.829-0.28,1.081c0,0.246,0.061,0.439,0.183,0.58
		S69.914,42.811,70.101,42.811z" />
		<path fill="#12100B" d="M77.22,40.191c-0.193,0.531-0.29,1.069-0.29,1.612c0,0.397,0.094,0.716,0.281,0.955
		c0.123,0.163,0.29,0.245,0.501,0.245c0.129,0,0.243-0.026,0.343-0.079c0.217-0.11,0.403-0.241,0.558-0.394
		c0.155-0.151,0.318-0.35,0.488-0.595s0.308-0.519,0.413-0.822h0.123c0.07,0,0.149,0.006,0.237,0.018
		c-0.176,0.654-0.609,1.296-1.301,1.927c-0.434,0.392-0.882,0.587-1.345,0.587c-0.311,0-0.574-0.141-0.791-0.422
		c-0.287-0.369-0.431-0.879-0.431-1.529c0-0.281,0.042-0.618,0.127-1.011s0.183-0.721,0.294-0.984
		c0.176-0.41,0.372-0.797,0.589-1.16l0.677-0.984c0.439-0.469,0.686-0.727,0.738-0.773c0.205-0.176,0.412-0.309,0.62-0.4
		c0.208-0.09,0.423-0.136,0.646-0.136c0.287,0,0.539,0.12,0.756,0.361s0.325,0.543,0.325,0.907c0,0.323-0.083,0.642-0.25,0.956
		c-0.167,0.313-0.347,0.544-0.541,0.691l-0.729,0.476c-0.082,0.041-0.302,0.116-0.659,0.225S77.783,40.08,77.22,40.191z
		 M77.37,39.743c0.188,0.006,0.48-0.067,0.879-0.22c0.217-0.082,0.504-0.243,0.861-0.483c0.141-0.094,0.302-0.253,0.483-0.479
		c0.182-0.225,0.319-0.459,0.413-0.703c0.094-0.242,0.141-0.493,0.141-0.751c0-0.17-0.05-0.311-0.149-0.422
		s-0.211-0.167-0.334-0.167c-0.158,0-0.346,0.091-0.563,0.272c-0.363,0.316-0.744,0.847-1.143,1.591
		C77.66,38.949,77.463,39.403,77.37,39.743z" />
		<path fill="#12100B" d="M86.91,37.115l0.949-3.032c0.041-0.129,0.1-0.34,0.176-0.633c0.012-0.059,0.023-0.105,0.035-0.141
		c0.123-0.384,0.185-0.629,0.185-0.733c0-0.075-0.038-0.146-0.114-0.21c-0.158-0.122-0.425-0.227-0.8-0.313L87.156,32l0.07-0.255
		c0.996,0,1.658-0.067,1.986-0.202l0.105-0.009c0.07,0,0.146,0.012,0.229,0.035c-0.041,0.176-0.07,0.296-0.088,0.36l-0.009,0.053
		l-0.729,2.18l-0.878,2.813c-0.158,0.48-0.264,0.835-0.316,1.063c-0.076,0.34-0.164,0.656-0.264,0.949l-1.247,3.735l0.026,0.053
		c0.21-0.035,0.749-0.53,1.615-1.485c0.093,0.041,0.164,0.094,0.21,0.158c-0.486,0.732-1.031,1.324-1.635,1.775
		c-0.434,0.322-0.759,0.483-0.976,0.483c-0.047,0-0.111-0.012-0.193-0.035c-0.035-0.053-0.053-0.1-0.053-0.141
		c0-0.176,0.1-0.583,0.299-1.222s0.337-1.102,0.413-1.389c-0.153,0.146-0.377,0.39-0.671,0.729c-0.561,0.65-1.153,1.187-1.777,1.608
		c-0.448,0.305-0.853,0.457-1.215,0.457c-0.199,0-0.354-0.082-0.468-0.246c-0.181-0.252-0.272-0.606-0.272-1.063
		c0-0.568,0.125-1.154,0.376-1.758c0.148-0.369,0.396-0.844,0.741-1.424s0.73-1.086,1.156-1.516c0.425-0.432,0.83-0.741,1.215-0.932
		s0.735-0.286,1.049-0.286c0.245,0,0.462,0.059,0.65,0.176C86.633,36.743,86.767,36.893,86.91,37.115z M83.02,42.811
		c0.227,0,0.49-0.108,0.79-0.325c0.549-0.398,1.066-0.927,1.55-1.587c0.484-0.658,0.824-1.316,1.02-1.973s0.293-1.046,0.293-1.169
		c0-0.188-0.071-0.366-0.212-0.536s-0.271-0.255-0.391-0.255c-0.209,0-0.463,0.076-0.76,0.229s-0.61,0.413-0.938,0.782
		c-0.187,0.205-0.473,0.633-0.858,1.283s-0.671,1.21-0.858,1.679s-0.28,0.829-0.28,1.081c0,0.246,0.061,0.439,0.183,0.58
		S82.833,42.811,83.02,42.811z" />
		<path fill="#12100B" d="M91.247,36.904c-0.123,0-0.214,0.009-0.272,0.026c-0.275,0.146-0.478,0.272-0.606,0.378
		c-0.264,0.205-0.513,0.445-0.747,0.721l-0.51,0.114c0.451-0.609,0.953-1.087,1.504-1.433s0.985-0.519,1.302-0.519
		c0.135,0,0.236,0.034,0.303,0.102c0.067,0.067,0.101,0.153,0.101,0.259c0,0.287-0.164,0.766-0.492,1.434
		c-0.041,0.082-0.138,0.293-0.291,0.633c-0.352,0.768-0.727,1.494-1.126,2.179c-0.129,0.223-0.27,0.486-0.422,0.791
		c-0.082,0.164-0.155,0.302-0.22,0.413c-0.182,0.305-0.272,0.53-0.272,0.677c0,0.041,0.016,0.078,0.048,0.11
		s0.072,0.048,0.119,0.048c0.064,0,0.163-0.035,0.294-0.105c0.22-0.117,0.483-0.312,0.788-0.585
		c0.305-0.271,0.574-0.584,0.807-0.936h0.387c-0.178,0.316-0.44,0.68-0.786,1.09c-0.346,0.41-0.74,0.738-1.181,0.984
		c-0.331,0.188-0.625,0.281-0.882,0.281c-0.196,0-0.34-0.039-0.432-0.119c-0.092-0.078-0.138-0.183-0.138-0.312
		c0-0.451,0.331-1.301,0.993-2.549l1.415-2.672c0.146-0.275,0.249-0.492,0.308-0.65c0.035-0.1,0.053-0.167,0.053-0.202
		C91.291,37.033,91.276,36.98,91.247,36.904z M91.748,32.958c0-0.205,0.079-0.388,0.237-0.55c0.158-0.16,0.343-0.241,0.554-0.241
		c0.199,0,0.369,0.07,0.51,0.211s0.211,0.302,0.211,0.483c0,0.234-0.088,0.448-0.264,0.642c-0.105,0.111-0.299,0.167-0.58,0.167
		c-0.188,0-0.346-0.064-0.475-0.193S91.748,33.175,91.748,32.958z" />
		<path fill="#12100B" d="M97.597,37.73c-0.088-0.07-0.155-0.135-0.202-0.193c-0.029-0.041-0.085-0.154-0.167-0.338
		c-0.082-0.186-0.144-0.298-0.185-0.339c-0.07-0.064-0.144-0.097-0.22-0.097c-0.205,0-0.425,0.126-0.659,0.377
		c-0.434,0.463-0.872,1.227-1.314,2.291s-0.664,1.948-0.664,2.65c0,0.264,0.038,0.447,0.114,0.553
		c0.058,0.076,0.143,0.114,0.254,0.114c0.228,0,0.479-0.123,0.753-0.369c0.368-0.328,0.741-0.785,1.121-1.371
		c0.114-0.023,0.201-0.035,0.261-0.035l0.135,0.009c-0.023,0.105-0.188,0.384-0.492,0.835c-0.439,0.645-0.844,1.095-1.213,1.349
		c-0.369,0.256-0.709,0.383-1.02,0.383c-0.27,0-0.478-0.097-0.624-0.29c-0.193-0.251-0.29-0.649-0.29-1.193
		c0-0.469,0.113-1.039,0.338-1.712s0.558-1.322,0.998-1.949c0.439-0.626,0.798-1.075,1.077-1.347
		c0.278-0.272,0.62-0.505,1.024-0.698c0.275-0.135,0.533-0.202,0.773-0.202c0.246,0,0.464,0.107,0.655,0.321
		s0.286,0.464,0.286,0.751c0,0.176-0.045,0.312-0.136,0.409c-0.091,0.096-0.198,0.145-0.321,0.145
		C97.802,37.783,97.708,37.766,97.597,37.73z" />
		<path fill="#12100B" d="M104.167,36.992c0.059-0.1,0.097-0.179,0.114-0.237c0.07-0.176,0.141-0.29,0.211-0.343
		c0.164-0.018,0.285-0.026,0.361-0.026c0.1,0,0.197,0.021,0.291,0.062l0.026,0.106c0,0.035-0.015,0.088-0.044,0.158
		c-0.018,0.035-0.056,0.146-0.114,0.334l-0.07,0.176l-0.581,1.572c-0.247,0.709-0.462,1.274-0.646,1.696s-0.344,0.852-0.479,1.288
		c-0.135,0.437-0.258,0.748-0.37,0.936l-0.035,0.084c0,0.034,0.031,0.079,0.093,0.136c0.247-0.146,0.456-0.305,0.625-0.475
		c0.439-0.439,0.7-0.712,0.782-0.817c0.061-0.076,0.118-0.146,0.173-0.211c0.066,0.059,0.126,0.12,0.181,0.185
		c-0.157,0.229-0.421,0.539-0.792,0.932c-0.371,0.393-0.705,0.671-1.002,0.835c-0.23,0.123-0.447,0.185-0.649,0.185
		c-0.129,0-0.226-0.028-0.291-0.086s-0.097-0.132-0.097-0.225c0-0.08,0.029-0.231,0.088-0.454c0.146-0.387,0.249-0.642,0.308-0.765
		s0.138-0.313,0.237-0.571c0.059-0.158,0.179-0.434,0.36-0.826c-0.115,0.111-0.256,0.275-0.425,0.492
		c-0.488,0.598-1.048,1.163-1.681,1.696c-0.145,0.123-0.494,0.319-1.048,0.589c-0.205,0.076-0.446,0.126-0.723,0.149
		c-0.235-0.006-0.392-0.029-0.47-0.07c-0.145-0.076-0.262-0.196-0.352-0.36c-0.066-0.123-0.1-0.313-0.1-0.571
		c0-0.375,0.084-0.791,0.251-1.248c0.288-0.779,0.578-1.356,0.872-1.731c0.503-0.65,1.001-1.166,1.496-1.547
		c0.494-0.381,0.947-0.659,1.361-0.835c0.545-0.234,1.018-0.352,1.419-0.352c0.132,0,0.258,0.012,0.377,0.035
		S104.059,36.945,104.167,36.992z M99.876,42.758c0.145-0.035,0.272-0.085,0.381-0.149c0.066-0.035,0.302-0.196,0.707-0.483
		c0.737-0.721,1.154-1.134,1.251-1.239c0.211-0.229,0.45-0.542,0.716-0.94c0.073-0.1,0.227-0.375,0.462-0.826l0.229-0.606
		c0.082-0.357,0.123-0.563,0.123-0.615c0-0.164-0.068-0.319-0.205-0.466c-0.09-0.088-0.238-0.132-0.443-0.132
		c-0.235,0-0.438,0.038-0.606,0.114c-0.38,0.176-0.727,0.398-1.041,0.668c-0.422,0.369-0.83,0.843-1.222,1.42
		s-0.67,1.059-0.833,1.445c-0.224,0.533-0.335,0.932-0.335,1.195c0,0.217,0.045,0.378,0.136,0.483
		c0.091,0.105,0.206,0.158,0.345,0.158C99.589,42.784,99.701,42.775,99.876,42.758z" />
		<path fill="#12100B" d="M108.134,36.966h-0.536l-0.246-0.009l-0.571,0.018h-0.114c0.012-0.129,0.063-0.278,0.151-0.448
		c0.854-0.023,1.361-0.044,1.521-0.062c0.114-0.281,0.211-0.507,0.292-0.677c0.173-0.381,0.351-0.832,0.535-1.354
		c0.058-0.17,0.121-0.325,0.19-0.466c0.129-0.018,0.278-0.026,0.448-0.026c0.141,0,0.275,0.015,0.404,0.044l0.017,0.141
		c0,0.111-0.258,0.756-0.775,1.934c-0.058,0.135-0.106,0.272-0.146,0.413c0.168,0.029,0.267,0.044,0.295,0.044h0.183l0.295,0.009
		l0.834-0.018c0,0.193-0.035,0.352-0.105,0.475c-0.231,0.023-0.535,0.035-0.911,0.035c-0.185,0-0.304,0.003-0.356,0.009
		c-0.295,0.03-0.465,0.06-0.512,0.089l-1.43,3.431c-0.16,0.331-0.433,0.96-0.819,1.888c0,0.034,0.018,0.075,0.053,0.121l0.114,0.018
		c0.158,0,0.354-0.1,0.589-0.299c0.509-0.439,0.99-0.952,1.441-1.538c0.097,0.053,0.183,0.114,0.257,0.185
		c-0.578,0.709-0.984,1.177-1.218,1.401c-0.234,0.227-0.532,0.461-0.892,0.703c-0.36,0.244-0.578,0.38-0.652,0.409
		c-0.132,0.053-0.266,0.079-0.403,0.079c-0.143,0-0.249-0.031-0.317-0.092c-0.069-0.063-0.103-0.151-0.103-0.269
		c0-0.17,0.14-0.565,0.42-1.187l0.369-0.817l1.294-3.12C107.897,37.625,108.031,37.271,108.134,36.966z" />
		<path fill="#12100B" d="M111.672,40.191c-0.193,0.531-0.29,1.069-0.29,1.612c0,0.397,0.094,0.716,0.281,0.955
		c0.123,0.163,0.29,0.245,0.501,0.245c0.129,0,0.243-0.026,0.343-0.079c0.217-0.11,0.403-0.241,0.558-0.394
		c0.155-0.151,0.318-0.35,0.488-0.595s0.308-0.519,0.413-0.822h0.123c0.07,0,0.149,0.006,0.237,0.018
		c-0.176,0.654-0.609,1.296-1.301,1.927c-0.434,0.392-0.882,0.587-1.345,0.587c-0.311,0-0.574-0.141-0.791-0.422
		c-0.287-0.369-0.431-0.879-0.431-1.529c0-0.281,0.042-0.618,0.127-1.011s0.183-0.721,0.294-0.984
		c0.176-0.41,0.372-0.797,0.589-1.16l0.677-0.984c0.439-0.469,0.686-0.727,0.738-0.773c0.205-0.176,0.412-0.309,0.62-0.4
		c0.208-0.09,0.423-0.136,0.646-0.136c0.287,0,0.539,0.12,0.756,0.361s0.325,0.543,0.325,0.907c0,0.323-0.083,0.642-0.25,0.956
		c-0.167,0.313-0.347,0.544-0.541,0.691l-0.729,0.476c-0.082,0.041-0.302,0.116-0.659,0.225S112.234,40.08,111.672,40.191z
		 M111.821,39.743c0.188,0.006,0.48-0.067,0.879-0.22c0.217-0.082,0.504-0.243,0.861-0.483c0.141-0.094,0.302-0.253,0.483-0.479
		c0.182-0.225,0.319-0.459,0.413-0.703c0.094-0.242,0.141-0.493,0.141-0.751c0-0.17-0.05-0.311-0.149-0.422
		s-0.211-0.167-0.334-0.167c-0.158,0-0.346,0.091-0.563,0.272c-0.363,0.316-0.744,0.847-1.143,1.591
		C112.111,38.949,111.915,39.403,111.821,39.743z" />
		<path fill="#12100B" d="M121.362,37.115l0.949-3.032c0.041-0.129,0.1-0.34,0.176-0.633c0.012-0.059,0.023-0.105,0.035-0.141
		c0.123-0.384,0.185-0.629,0.185-0.733c0-0.075-0.038-0.146-0.114-0.21c-0.158-0.122-0.425-0.227-0.8-0.313L121.608,32l0.07-0.255
		c0.996,0,1.658-0.067,1.986-0.202l0.105-0.009c0.07,0,0.146,0.012,0.229,0.035c-0.041,0.176-0.07,0.296-0.088,0.36l-0.009,0.053
		l-0.729,2.18l-0.878,2.813c-0.158,0.48-0.264,0.835-0.316,1.063c-0.076,0.34-0.164,0.656-0.264,0.949l-1.247,3.735l0.026,0.053
		c0.21-0.035,0.749-0.53,1.615-1.485c0.093,0.041,0.164,0.094,0.21,0.158c-0.486,0.732-1.031,1.324-1.635,1.775
		c-0.434,0.322-0.759,0.483-0.976,0.483c-0.047,0-0.111-0.012-0.193-0.035c-0.035-0.053-0.053-0.1-0.053-0.141
		c0-0.176,0.1-0.583,0.299-1.222s0.337-1.102,0.413-1.389c-0.153,0.146-0.377,0.39-0.671,0.729c-0.561,0.65-1.153,1.187-1.777,1.608
		c-0.448,0.305-0.853,0.457-1.215,0.457c-0.199,0-0.354-0.082-0.468-0.246c-0.181-0.252-0.272-0.606-0.272-1.063
		c0-0.568,0.125-1.154,0.376-1.758c0.148-0.369,0.396-0.844,0.741-1.424s0.73-1.086,1.156-1.516c0.425-0.432,0.83-0.741,1.215-0.932
		s0.735-0.286,1.049-0.286c0.245,0,0.462,0.059,0.65,0.176C121.085,36.743,121.219,36.893,121.362,37.115z M117.472,42.811
		c0.227,0,0.49-0.108,0.79-0.325c0.549-0.398,1.066-0.927,1.55-1.587c0.484-0.658,0.824-1.316,1.02-1.973s0.293-1.046,0.293-1.169
		c0-0.188-0.071-0.366-0.212-0.536s-0.271-0.255-0.391-0.255c-0.209,0-0.463,0.076-0.76,0.229s-0.61,0.413-0.938,0.782
		c-0.187,0.205-0.473,0.633-0.858,1.283s-0.671,1.21-0.858,1.679s-0.28,0.829-0.28,1.081c0,0.246,0.061,0.439,0.183,0.58
		S117.285,42.811,117.472,42.811z" />
		<path fill="#12100B" d="M130.414,36.966h-0.536l-0.246-0.009l-0.571,0.018h-0.114c0.012-0.129,0.063-0.278,0.151-0.448
		c0.854-0.023,1.361-0.044,1.521-0.062c0.114-0.281,0.211-0.507,0.292-0.677c0.173-0.381,0.351-0.832,0.535-1.354
		c0.058-0.17,0.121-0.325,0.19-0.466c0.129-0.018,0.278-0.026,0.448-0.026c0.141,0,0.275,0.015,0.404,0.044l0.017,0.141
		c0,0.111-0.258,0.756-0.775,1.934c-0.058,0.135-0.106,0.272-0.146,0.413c0.168,0.029,0.267,0.044,0.295,0.044h0.183l0.295,0.009
		l0.834-0.018c0,0.193-0.035,0.352-0.105,0.475c-0.231,0.023-0.535,0.035-0.911,0.035c-0.185,0-0.304,0.003-0.356,0.009
		c-0.295,0.03-0.465,0.06-0.512,0.089l-1.43,3.431c-0.16,0.331-0.433,0.96-0.819,1.888c0,0.034,0.018,0.075,0.053,0.121l0.114,0.018
		c0.158,0,0.354-0.1,0.589-0.299c0.509-0.439,0.99-0.952,1.441-1.538c0.097,0.053,0.183,0.114,0.257,0.185
		c-0.578,0.709-0.984,1.177-1.218,1.401c-0.234,0.227-0.532,0.461-0.892,0.703c-0.36,0.244-0.578,0.38-0.652,0.409
		c-0.132,0.053-0.266,0.079-0.403,0.079c-0.143,0-0.249-0.031-0.317-0.092c-0.069-0.063-0.103-0.151-0.103-0.269
		c0-0.17,0.14-0.565,0.42-1.187l0.369-0.817l1.294-3.12C130.176,37.625,130.311,37.271,130.414,36.966z" />
		<path fill="#12100B" d="M138.214,38.363c0,1.359-0.412,2.566-1.235,3.621s-1.677,1.582-2.562,1.582
		c-0.475,0-0.858-0.178-1.151-0.531c-0.293-0.354-0.439-0.91-0.439-1.666c0-0.51,0.114-1.097,0.343-1.762s0.524-1.218,0.888-1.657
		c0.082-0.1,0.176-0.22,0.281-0.36c0.311-0.404,0.68-0.744,1.107-1.02s0.864-0.413,1.31-0.413c0.41,0,0.756,0.171,1.037,0.515
		C138.074,37.014,138.214,37.578,138.214,38.363z M133.644,42.362c0,0.27,0.063,0.469,0.189,0.598s0.33,0.193,0.611,0.193
		c0.275,0,0.554-0.135,0.835-0.404c0.504-0.492,1.008-1.339,1.512-2.54s0.756-2.147,0.756-2.839c0-0.246-0.062-0.44-0.185-0.585
		c-0.123-0.143-0.264-0.215-0.422-0.215c-0.346,0-0.706,0.202-1.081,0.606c-0.639,0.68-1.189,1.617-1.652,2.813
		C133.832,40.962,133.644,41.753,133.644,42.362z" />
		<path fill="#12100B" d="M145.184,40.191c-0.193,0.531-0.29,1.069-0.29,1.612c0,0.397,0.094,0.716,0.281,0.955
		c0.123,0.163,0.29,0.245,0.501,0.245c0.129,0,0.243-0.026,0.343-0.079c0.217-0.11,0.403-0.241,0.558-0.394
		c0.155-0.151,0.318-0.35,0.488-0.595s0.308-0.519,0.413-0.822h0.123c0.07,0,0.149,0.006,0.237,0.018
		c-0.176,0.654-0.609,1.296-1.301,1.927c-0.434,0.392-0.882,0.587-1.345,0.587c-0.311,0-0.574-0.141-0.791-0.422
		c-0.287-0.369-0.431-0.879-0.431-1.529c0-0.281,0.042-0.618,0.127-1.011s0.183-0.721,0.294-0.984
		c0.176-0.41,0.372-0.797,0.589-1.16l0.677-0.984c0.439-0.469,0.686-0.727,0.738-0.773c0.205-0.176,0.412-0.309,0.62-0.4
		c0.208-0.09,0.423-0.136,0.646-0.136c0.287,0,0.539,0.12,0.756,0.361s0.325,0.543,0.325,0.907c0,0.323-0.083,0.642-0.25,0.956
		c-0.167,0.313-0.347,0.544-0.541,0.691l-0.729,0.476c-0.082,0.041-0.302,0.116-0.659,0.225S145.746,40.08,145.184,40.191z
		 M145.333,39.743c0.188,0.006,0.48-0.067,0.879-0.22c0.217-0.082,0.504-0.243,0.861-0.483c0.141-0.094,0.302-0.253,0.483-0.479
		c0.182-0.225,0.319-0.459,0.413-0.703c0.094-0.242,0.141-0.493,0.141-0.751c0-0.17-0.05-0.311-0.149-0.422
		s-0.211-0.167-0.334-0.167c-0.158,0-0.346,0.091-0.563,0.272c-0.363,0.316-0.744,0.847-1.143,1.591
		C145.623,38.949,145.427,39.403,145.333,39.743z" />
		<path fill="#12100B" d="M149.908,41.721c-0.029,0.082-0.053,0.144-0.07,0.185c-0.111,0.275-0.167,0.457-0.167,0.545
		c0,0.082,0.032,0.155,0.097,0.22s0.141,0.097,0.229,0.097c0.082,0,0.158-0.017,0.229-0.051c0.252-0.118,0.712-0.479,1.38-1.079
		c0.667-0.602,1.183-1.092,1.546-1.474c-0.146-0.339-0.311-0.657-0.492-0.956l-0.905-1.529c-0.123-0.176-0.234-0.296-0.334-0.36
		c-0.07-0.041-0.141-0.062-0.211-0.062c-0.1,0-0.182,0.041-0.246,0.123c-0.1,0.75-0.164,1.181-0.193,1.292
		c-0.146-0.111-0.24-0.223-0.281-0.334c-0.094-0.205-0.141-0.466-0.141-0.782c0-0.299,0.088-0.601,0.264-0.905
		s0.366-0.457,0.571-0.457c0.229,0,0.463,0.114,0.703,0.343c0.369,0.357,0.928,1.214,1.676,2.567
		c0.125,0.224,0.214,0.373,0.268,0.449l1.694-1.531c0.803-0.721,1.395-1.21,1.775-1.468c0.158-0.111,0.325-0.196,0.501-0.255
		c0.082-0.029,0.164-0.044,0.246-0.044c0.123,0,0.23,0.055,0.321,0.162c0.091,0.109,0.136,0.257,0.136,0.444
		c0,0.521-0.173,0.917-0.519,1.187c-0.135,0.07-0.234,0.105-0.299,0.105c-0.082,0-0.185-0.018-0.308-0.053
		c0.234-0.316,0.352-0.53,0.352-0.642c0-0.094-0.035-0.182-0.105-0.264c-0.07-0.018-0.12-0.026-0.149-0.026
		c-0.059,0-0.152,0.023-0.281,0.07c-0.082,0.029-0.275,0.146-0.58,0.352c-0.475,0.334-0.929,0.706-1.362,1.117l-1.203,1.142
		c0.739,1.399,1.185,2.189,1.337,2.371c0.11,0.142,0.219,0.213,0.329,0.213c0.098,0,0.188-0.047,0.269-0.141
		c0.133-0.141,0.199-0.243,0.199-0.308l-0.035-0.589l0.018-0.079c0.078,0,0.14,0.015,0.188,0.044
		c0.149,0.211,0.225,0.501,0.225,0.87c0,0.111-0.047,0.316-0.141,0.615c-0.064,0.205-0.17,0.368-0.316,0.488
		c-0.146,0.119-0.293,0.18-0.439,0.18s-0.289-0.049-0.426-0.145c-0.138-0.098-0.365-0.368-0.681-0.813
		c-0.046-0.076-0.341-0.586-0.884-1.528l-0.333-0.522c-0.088,0.081-0.336,0.316-0.743,0.706c-1.072,1.037-1.84,1.705-2.303,2.004
		c-0.334,0.211-0.621,0.316-0.861,0.316c-0.234,0-0.428-0.072-0.58-0.216c-0.152-0.145-0.229-0.326-0.229-0.544
		c0-0.265,0.11-0.514,0.33-0.746s0.435-0.349,0.646-0.349C149.688,41.677,149.785,41.691,149.908,41.721z" />
		<path fill="#12100B" d="M162.709,37.73c-0.088-0.07-0.155-0.135-0.202-0.193c-0.029-0.041-0.085-0.154-0.167-0.338
		c-0.082-0.186-0.144-0.298-0.185-0.339c-0.07-0.064-0.144-0.097-0.22-0.097c-0.205,0-0.425,0.126-0.659,0.377
		c-0.434,0.463-0.872,1.227-1.314,2.291s-0.664,1.948-0.664,2.65c0,0.264,0.038,0.447,0.114,0.553
		c0.058,0.076,0.143,0.114,0.254,0.114c0.228,0,0.479-0.123,0.753-0.369c0.368-0.328,0.741-0.785,1.121-1.371
		c0.114-0.023,0.201-0.035,0.261-0.035l0.135,0.009c-0.023,0.105-0.188,0.384-0.492,0.835c-0.439,0.645-0.844,1.095-1.213,1.349
		c-0.369,0.256-0.709,0.383-1.02,0.383c-0.27,0-0.478-0.097-0.624-0.29c-0.193-0.251-0.29-0.649-0.29-1.193
		c0-0.469,0.113-1.039,0.338-1.712s0.558-1.322,0.998-1.949c0.439-0.626,0.798-1.075,1.077-1.347
		c0.278-0.272,0.62-0.505,1.024-0.698c0.275-0.135,0.533-0.202,0.773-0.202c0.246,0,0.464,0.107,0.655,0.321
		s0.286,0.464,0.286,0.751c0,0.176-0.045,0.312-0.136,0.409c-0.091,0.096-0.198,0.145-0.321,0.145
		C162.914,37.783,162.82,37.766,162.709,37.73z" />
		<path fill="#12100B" d="M164.611,40.191c-0.193,0.531-0.29,1.069-0.29,1.612c0,0.397,0.094,0.716,0.281,0.955
		c0.123,0.163,0.29,0.245,0.501,0.245c0.129,0,0.243-0.026,0.343-0.079c0.217-0.11,0.403-0.241,0.558-0.394
		c0.155-0.151,0.318-0.35,0.488-0.595s0.308-0.519,0.413-0.822h0.123c0.07,0,0.149,0.006,0.237,0.018
		c-0.176,0.654-0.609,1.296-1.301,1.927c-0.434,0.392-0.882,0.587-1.345,0.587c-0.311,0-0.574-0.141-0.791-0.422
		c-0.287-0.369-0.431-0.879-0.431-1.529c0-0.281,0.042-0.618,0.127-1.011s0.183-0.721,0.294-0.984
		c0.176-0.41,0.372-0.797,0.589-1.16l0.677-0.984c0.439-0.469,0.686-0.727,0.738-0.773c0.205-0.176,0.412-0.309,0.62-0.4
		c0.208-0.09,0.423-0.136,0.646-0.136c0.287,0,0.539,0.12,0.756,0.361s0.325,0.543,0.325,0.907c0,0.323-0.083,0.642-0.25,0.956
		c-0.167,0.313-0.347,0.544-0.541,0.691l-0.729,0.476c-0.082,0.041-0.302,0.116-0.659,0.225S165.174,40.08,164.611,40.191z
		 M164.761,39.743c0.188,0.006,0.48-0.067,0.879-0.22c0.217-0.082,0.504-0.243,0.861-0.483c0.141-0.094,0.302-0.253,0.483-0.479
		c0.182-0.225,0.319-0.459,0.413-0.703c0.094-0.242,0.141-0.493,0.141-0.751c0-0.17-0.05-0.311-0.149-0.422
		s-0.211-0.167-0.334-0.167c-0.158,0-0.346,0.091-0.563,0.272c-0.363,0.316-0.744,0.847-1.143,1.591
		C165.051,38.949,164.854,39.403,164.761,39.743z" />
		<path fill="#12100B" d="M172.042,32.009l0.026-0.255c0.718-0.059,1.263-0.088,1.633-0.088h0.389v0.118l-0.272,0.853
		c-0.012,0.023-0.226,0.565-0.642,1.626l-1.187,3.094c-0.211,0.58-0.563,1.476-1.055,2.688l-0.29,0.765
		c-0.205,0.557-0.37,0.932-0.493,1.125c-0.193,0.315-0.29,0.549-0.29,0.701l0.035,0.14c0.192-0.018,0.429-0.149,0.712-0.396
		c0.414-0.346,0.789-0.788,1.126-1.327c0.109-0.023,0.193-0.035,0.253-0.035l0.098,0.009c-0.219,0.428-0.456,0.776-0.709,1.046
		c-0.399,0.422-0.675,0.688-0.827,0.8c-0.337,0.258-0.661,0.454-0.97,0.589c-0.197,0.088-0.391,0.132-0.583,0.132
		c-0.101,0-0.177-0.026-0.228-0.079c-0.051-0.053-0.076-0.12-0.076-0.202c0-0.275,0.469-1.485,1.406-3.63
		c0.287-0.65,0.586-1.395,0.896-2.232c0.545-1.465,0.964-2.508,1.257-3.129s0.507-1.181,0.642-1.679
		c0.012-0.051,0.018-0.093,0.018-0.127c0-0.084-0.041-0.163-0.123-0.236C172.684,32.188,172.435,32.099,172.042,32.009z" />
		<path fill="#12100B" d="M176.16,32.009l0.026-0.255c0.718-0.059,1.263-0.088,1.633-0.088h0.389v0.118l-0.272,0.853
		c-0.012,0.023-0.226,0.565-0.642,1.626l-1.187,3.094c-0.211,0.58-0.563,1.476-1.055,2.688l-0.29,0.765
		c-0.205,0.557-0.37,0.932-0.493,1.125c-0.193,0.315-0.29,0.549-0.29,0.701l0.035,0.14c0.192-0.018,0.429-0.149,0.712-0.396
		c0.414-0.346,0.789-0.788,1.126-1.327c0.109-0.023,0.193-0.035,0.253-0.035l0.098,0.009c-0.219,0.428-0.456,0.776-0.709,1.046
		c-0.399,0.422-0.675,0.688-0.827,0.8c-0.337,0.258-0.661,0.454-0.97,0.589c-0.197,0.088-0.391,0.132-0.583,0.132
		c-0.101,0-0.177-0.026-0.228-0.079c-0.051-0.053-0.076-0.12-0.076-0.202c0-0.275,0.469-1.485,1.406-3.63
		c0.287-0.65,0.586-1.395,0.896-2.232c0.545-1.465,0.964-2.508,1.257-3.129s0.507-1.181,0.642-1.679
		c0.012-0.051,0.018-0.093,0.018-0.127c0-0.084-0.041-0.163-0.123-0.236C176.802,32.188,176.553,32.099,176.16,32.009z" />
		<path fill="#12100B" d="M178.273,40.191c-0.193,0.531-0.29,1.069-0.29,1.612c0,0.397,0.094,0.716,0.281,0.955
		c0.123,0.163,0.29,0.245,0.501,0.245c0.129,0,0.243-0.026,0.343-0.079c0.217-0.11,0.403-0.241,0.558-0.394
		c0.155-0.151,0.318-0.35,0.488-0.595s0.308-0.519,0.413-0.822h0.123c0.07,0,0.149,0.006,0.237,0.018
		c-0.176,0.654-0.609,1.296-1.301,1.927c-0.434,0.392-0.882,0.587-1.345,0.587c-0.311,0-0.574-0.141-0.791-0.422
		c-0.287-0.369-0.431-0.879-0.431-1.529c0-0.281,0.042-0.618,0.127-1.011s0.183-0.721,0.294-0.984
		c0.176-0.41,0.372-0.797,0.589-1.16l0.677-0.984c0.439-0.469,0.686-0.727,0.738-0.773c0.205-0.176,0.412-0.309,0.62-0.4
		c0.208-0.09,0.423-0.136,0.646-0.136c0.287,0,0.539,0.12,0.756,0.361s0.325,0.543,0.325,0.907c0,0.323-0.083,0.642-0.25,0.956
		c-0.167,0.313-0.347,0.544-0.541,0.691l-0.729,0.476c-0.082,0.041-0.302,0.116-0.659,0.225S178.836,40.08,178.273,40.191z
		 M178.423,39.743c0.188,0.006,0.48-0.067,0.879-0.22c0.217-0.082,0.504-0.243,0.861-0.483c0.141-0.094,0.302-0.253,0.483-0.479
		c0.182-0.225,0.319-0.459,0.413-0.703c0.094-0.242,0.141-0.493,0.141-0.751c0-0.17-0.05-0.311-0.149-0.422
		s-0.211-0.167-0.334-0.167c-0.158,0-0.346,0.091-0.563,0.272c-0.363,0.316-0.744,0.847-1.143,1.591
		C178.713,38.949,178.517,39.403,178.423,39.743z" />
		<path fill="#12100B" d="M184.755,37.265c-0.012-0.047-0.028-0.079-0.048-0.097s-0.045-0.026-0.075-0.026
		c-0.305,0-0.779,0.48-1.424,1.441c-0.064,0.006-0.111,0.009-0.141,0.009c-0.035,0-0.094-0.003-0.176-0.009
		c0.123-0.246,0.323-0.557,0.602-0.932c0.278-0.375,0.574-0.687,0.887-0.937c0.313-0.248,0.61-0.435,0.892-0.558
		c0.094-0.041,0.178-0.062,0.255-0.062c0.029,0,0.073,0.003,0.131,0.009c0.105,0.105,0.158,0.213,0.158,0.324
		c0,0.07-0.007,0.141-0.022,0.211s-0.045,0.179-0.092,0.325c-0.175,0.504-0.304,0.858-0.386,1.063l-0.5,1.302
		c-0.117,0.299-0.231,0.615-0.342,0.949c0.046-0.059,0.087-0.114,0.123-0.167c0.545-0.797,1.133-1.56,1.764-2.29
		c0.63-0.729,1.151-1.217,1.561-1.463c0.293-0.182,0.571-0.272,0.835-0.272c0.199,0,0.355,0.055,0.467,0.163
		s0.167,0.247,0.167,0.418c0,0.105-0.012,0.208-0.035,0.308c-0.041,0.223-0.132,0.533-0.272,0.932s-0.51,1.262-1.108,2.592
		l-0.88,2.03l-0.035,0.114c0,0.035,0.021,0.088,0.062,0.158c0.328-0.07,0.82-0.592,1.477-1.564l0.36,0.009
		c-0.182,0.328-0.48,0.75-0.896,1.266c-0.322,0.393-0.668,0.697-1.037,0.914c-0.205,0.123-0.425,0.185-0.659,0.185
		c-0.141,0-0.246-0.029-0.316-0.088s-0.105-0.123-0.105-0.193c0-0.311,0.149-0.791,0.448-1.441l1.274-2.786l0.492-1.169
		c0.111-0.258,0.179-0.437,0.202-0.536s0.035-0.199,0.035-0.299c0-0.076-0.021-0.137-0.062-0.18
		c-0.041-0.045-0.094-0.066-0.158-0.066c-0.094,0-0.202,0.038-0.325,0.114c-0.434,0.258-0.912,0.7-1.434,1.327
		c-0.75,0.902-1.249,1.55-1.495,1.942c-0.615,0.973-1.15,1.966-1.607,2.979c-0.07,0.164-0.155,0.284-0.255,0.36
		c-0.123,0.018-0.217,0.026-0.281,0.026c-0.076,0-0.193-0.015-0.352-0.044c-0.023-0.047-0.035-0.085-0.035-0.114
		c0-0.047,0.029-0.152,0.088-0.316c0.129-0.381,0.445-1.184,0.949-2.408l0.202-0.475L184.755,37.265z" />
		<path fill="#12100B" d="M194.726,37.73c-0.088-0.07-0.155-0.135-0.202-0.193c-0.029-0.041-0.085-0.154-0.167-0.338
		c-0.082-0.186-0.144-0.298-0.185-0.339c-0.07-0.064-0.144-0.097-0.22-0.097c-0.205,0-0.425,0.126-0.659,0.377
		c-0.434,0.463-0.872,1.227-1.313,2.291c-0.443,1.064-0.664,1.948-0.664,2.65c0,0.264,0.038,0.447,0.113,0.553
		c0.059,0.076,0.144,0.114,0.254,0.114c0.229,0,0.479-0.123,0.754-0.369c0.367-0.328,0.74-0.785,1.12-1.371
		c0.114-0.023,0.2-0.035,0.261-0.035l0.135,0.009c-0.023,0.105-0.188,0.384-0.492,0.835c-0.439,0.645-0.844,1.095-1.213,1.349
		c-0.369,0.256-0.709,0.383-1.02,0.383c-0.27,0-0.478-0.097-0.624-0.29c-0.193-0.251-0.29-0.649-0.29-1.193
		c0-0.469,0.113-1.039,0.338-1.712c0.227-0.673,0.559-1.322,0.998-1.949c0.439-0.626,0.799-1.075,1.076-1.347
		c0.279-0.272,0.62-0.505,1.024-0.698c0.275-0.135,0.533-0.202,0.773-0.202c0.246,0,0.464,0.107,0.655,0.321
		c0.189,0.214,0.285,0.464,0.285,0.751c0,0.176-0.045,0.312-0.137,0.409c-0.09,0.096-0.197,0.145-0.32,0.145
		C194.931,37.783,194.837,37.766,194.726,37.73z" />
		<path fill="#12100B" d="M196.628,40.191c-0.193,0.531-0.289,1.069-0.289,1.612c0,0.397,0.094,0.716,0.281,0.955
		c0.123,0.163,0.289,0.245,0.5,0.245c0.129,0,0.244-0.026,0.344-0.079c0.217-0.11,0.402-0.241,0.558-0.394
		c0.155-0.151,0.317-0.35,0.487-0.595s0.309-0.519,0.414-0.822h0.123c0.07,0,0.148,0.006,0.236,0.018
		c-0.176,0.654-0.609,1.296-1.301,1.927c-0.434,0.392-0.881,0.587-1.344,0.587c-0.311,0-0.574-0.141-0.791-0.422
		c-0.287-0.369-0.432-0.879-0.432-1.529c0-0.281,0.043-0.618,0.128-1.011s0.183-0.721,0.294-0.984c0.176-0.41,0.373-0.797,0.59-1.16
		l0.676-0.984c0.439-0.469,0.686-0.727,0.738-0.773c0.205-0.176,0.412-0.309,0.62-0.4c0.208-0.09,0.423-0.136,0.646-0.136
		c0.287,0,0.539,0.12,0.756,0.361s0.326,0.543,0.326,0.907c0,0.323-0.084,0.642-0.251,0.956c-0.167,0.313-0.347,0.544-0.54,0.691
		l-0.73,0.476c-0.082,0.041-0.301,0.116-0.658,0.225S197.191,40.08,196.628,40.191z M196.779,39.743
		c0.188,0.006,0.48-0.067,0.879-0.22c0.217-0.082,0.504-0.243,0.861-0.483c0.141-0.094,0.301-0.253,0.482-0.479
		c0.182-0.225,0.32-0.459,0.414-0.703c0.094-0.242,0.141-0.493,0.141-0.751c0-0.17-0.051-0.311-0.15-0.422s-0.211-0.167-0.334-0.167
		c-0.158,0-0.346,0.091-0.563,0.272c-0.363,0.316-0.744,0.847-1.143,1.591C197.068,38.949,196.873,39.403,196.779,39.743z" />
		<path fill="#12100B" d="M207.843,36.904c-0.123,0-0.214,0.009-0.272,0.026c-0.275,0.146-0.478,0.272-0.606,0.378
		c-0.264,0.205-0.513,0.445-0.747,0.721l-0.51,0.114c0.451-0.609,0.952-1.087,1.504-1.433s0.985-0.519,1.302-0.519
		c0.135,0,0.236,0.034,0.303,0.102c0.067,0.067,0.102,0.153,0.102,0.259c0,0.287-0.164,0.766-0.492,1.434
		c-0.041,0.082-0.139,0.293-0.291,0.633c-0.352,0.768-0.727,1.494-1.125,2.179c-0.129,0.223-0.271,0.486-0.423,0.791
		c-0.082,0.164-0.155,0.302-0.22,0.413c-0.182,0.305-0.272,0.53-0.272,0.677c0,0.041,0.017,0.078,0.048,0.11
		c0.033,0.032,0.072,0.048,0.119,0.048c0.064,0,0.162-0.035,0.295-0.105c0.22-0.117,0.482-0.312,0.787-0.585
		c0.305-0.271,0.574-0.584,0.807-0.936h0.388c-0.178,0.316-0.44,0.68-0.786,1.09s-0.74,0.738-1.181,0.984
		c-0.331,0.188-0.625,0.281-0.882,0.281c-0.197,0-0.34-0.039-0.433-0.119c-0.092-0.078-0.138-0.183-0.138-0.312
		c0-0.451,0.331-1.301,0.993-2.549l1.415-2.672c0.146-0.275,0.249-0.492,0.308-0.65c0.035-0.1,0.053-0.167,0.053-0.202
		C207.887,37.033,207.873,36.98,207.843,36.904z M208.344,32.958c0-0.205,0.079-0.388,0.237-0.55
		c0.158-0.16,0.343-0.241,0.554-0.241c0.199,0,0.369,0.07,0.51,0.211s0.211,0.302,0.211,0.483c0,0.234-0.088,0.448-0.264,0.642
		c-0.105,0.111-0.299,0.167-0.58,0.167c-0.188,0-0.346-0.064-0.475-0.193S208.344,33.175,208.344,32.958z" />
		<path fill="#12100B" d="M212.093,37.265c-0.012-0.047-0.028-0.079-0.049-0.097s-0.045-0.026-0.074-0.026
		c-0.305,0-0.779,0.48-1.424,1.441c-0.064,0.006-0.111,0.009-0.141,0.009c-0.035,0-0.094-0.003-0.176-0.009
		c0.123-0.246,0.322-0.557,0.602-0.932c0.277-0.375,0.573-0.687,0.887-0.937c0.313-0.248,0.609-0.435,0.891-0.558
		c0.094-0.041,0.179-0.062,0.256-0.062c0.028,0,0.072,0.003,0.131,0.009c0.105,0.105,0.158,0.213,0.158,0.324
		c0,0.07-0.008,0.141-0.021,0.211c-0.016,0.07-0.046,0.179-0.093,0.325c-0.175,0.504-0.304,0.858-0.386,1.063l-0.501,1.302
		c-0.117,0.299-0.231,0.615-0.343,0.949c0.047-0.059,0.088-0.114,0.123-0.167c0.545-0.797,1.133-1.56,1.764-2.29
		c0.631-0.729,1.15-1.217,1.561-1.463c0.293-0.182,0.572-0.272,0.836-0.272c0.199,0,0.355,0.055,0.467,0.163
		s0.166,0.247,0.166,0.418c0,0.105-0.012,0.208-0.035,0.308c-0.041,0.223-0.131,0.533-0.271,0.932
		c-0.142,0.398-0.511,1.262-1.109,2.592l-0.879,2.03l-0.035,0.114c0,0.035,0.02,0.088,0.061,0.158
		c0.328-0.07,0.82-0.592,1.477-1.564l0.361,0.009c-0.182,0.328-0.48,0.75-0.896,1.266c-0.322,0.393-0.668,0.697-1.037,0.914
		c-0.205,0.123-0.426,0.185-0.66,0.185c-0.141,0-0.246-0.029-0.316-0.088s-0.105-0.123-0.105-0.193c0-0.311,0.15-0.791,0.449-1.441
		l1.273-2.786l0.492-1.169c0.111-0.258,0.18-0.437,0.203-0.536s0.035-0.199,0.035-0.299c0-0.076-0.021-0.137-0.063-0.18
		c-0.041-0.045-0.094-0.066-0.158-0.066c-0.094,0-0.202,0.038-0.325,0.114c-0.434,0.258-0.911,0.7-1.433,1.327
		c-0.751,0.902-1.249,1.55-1.495,1.942c-0.614,0.973-1.15,1.966-1.606,2.979c-0.07,0.164-0.156,0.284-0.256,0.36
		c-0.123,0.018-0.217,0.026-0.281,0.026c-0.076,0-0.193-0.015-0.352-0.044c-0.023-0.047-0.035-0.085-0.035-0.114
		c0-0.047,0.029-0.152,0.088-0.316c0.129-0.381,0.445-1.184,0.949-2.408l0.203-0.475L212.093,37.265z" />
		<path fill="#12100B" d="M224.344,36.904c-0.193,0.141-0.375,0.305-0.545,0.492c-0.047,0.053-0.313,0.404-0.8,1.055l-0.36,0.018
		c0.146-0.316,0.418-0.706,0.815-1.169s0.742-0.779,1.035-0.949c0.187-0.111,0.396-0.176,0.631-0.193
		c0.146,0.041,0.247,0.096,0.303,0.165c0.055,0.07,0.083,0.154,0.083,0.253s-0.012,0.197-0.035,0.296
		c-0.064,0.319-0.192,0.778-0.384,1.376c-0.192,0.598-0.363,1.069-0.515,1.415l-0.457,1.081l-0.035,0.158
		c0.082-0.141,0.249-0.454,0.501-0.94c0.955-1.811,1.644-2.927,2.065-3.351c0.311-0.302,0.674-0.453,1.09-0.453
		c0.234,0,0.454,0.094,0.659,0.281c0.152,0.146,0.229,0.34,0.229,0.58c0,0.27-0.085,0.501-0.255,0.694
		c-0.117,0.135-0.284,0.202-0.501,0.202c-0.182,0-0.309-0.042-0.383-0.128c-0.072-0.084-0.118-0.297-0.136-0.637
		c-0.076-0.152-0.161-0.229-0.255-0.229s-0.193,0.05-0.299,0.149c-0.281,0.251-0.813,1.058-1.594,2.417
		c-0.78,1.36-1.27,2.305-1.466,2.834c-0.196,0.53-0.356,0.894-0.479,1.093c-0.064,0.101-0.184,0.151-0.357,0.151
		c-0.157,0-0.27-0.028-0.336-0.084c-0.067-0.056-0.101-0.127-0.101-0.215c0-0.117,0.029-0.252,0.088-0.404
		c0.252-0.615,0.656-1.749,1.213-3.401l0.615-1.881c0.041-0.168,0.07-0.274,0.088-0.321l0.053-0.13
		C224.52,37.072,224.461,36.997,224.344,36.904z" />
		<path fill="#12100B" d="M229.658,40.191c-0.193,0.531-0.291,1.069-0.291,1.612c0,0.397,0.094,0.716,0.281,0.955
		c0.123,0.163,0.291,0.245,0.502,0.245c0.129,0,0.242-0.026,0.342-0.079c0.217-0.11,0.403-0.241,0.559-0.394
		c0.155-0.151,0.318-0.35,0.488-0.595s0.307-0.519,0.412-0.822h0.123c0.07,0,0.15,0.006,0.238,0.018
		c-0.176,0.654-0.609,1.296-1.301,1.927c-0.434,0.392-0.883,0.587-1.346,0.587c-0.311,0-0.574-0.141-0.791-0.422
		c-0.287-0.369-0.43-0.879-0.43-1.529c0-0.281,0.042-0.618,0.127-1.011s0.184-0.721,0.295-0.984c0.176-0.41,0.371-0.797,0.588-1.16
		l0.678-0.984c0.439-0.469,0.686-0.727,0.738-0.773c0.205-0.176,0.411-0.309,0.619-0.4c0.208-0.09,0.424-0.136,0.646-0.136
		c0.287,0,0.539,0.12,0.756,0.361s0.324,0.543,0.324,0.907c0,0.323-0.083,0.642-0.25,0.956c-0.167,0.313-0.348,0.544-0.541,0.691
		l-0.729,0.476c-0.082,0.041-0.303,0.116-0.66,0.225S230.22,40.08,229.658,40.191z M229.806,39.743
		c0.188,0.006,0.48-0.067,0.879-0.22c0.217-0.082,0.504-0.243,0.861-0.483c0.141-0.094,0.303-0.253,0.484-0.479
		c0.182-0.225,0.318-0.459,0.412-0.703c0.094-0.242,0.141-0.493,0.141-0.751c0-0.17-0.049-0.311-0.148-0.422
		s-0.211-0.167-0.334-0.167c-0.158,0-0.346,0.091-0.563,0.272c-0.363,0.316-0.744,0.847-1.143,1.591
		C230.097,38.949,229.9,39.403,229.806,39.743z" />
		<path fill="#12100B" d="M233.968,41.853c0.293,0,0.533,0.226,0.721,0.677c0.094,0.223,0.185,0.369,0.272,0.439
		c0.082,0.076,0.19,0.114,0.325,0.114c0.252,0,0.492-0.117,0.721-0.352c0.176-0.177,0.264-0.446,0.264-0.81
		c0-0.282-0.1-0.704-0.299-1.268c-0.281-0.815-0.422-1.455-0.422-1.919c0-0.674,0.182-1.272,0.545-1.795s0.938-0.783,1.723-0.783
		c0.334,0,0.601,0.091,0.8,0.272s0.299,0.401,0.299,0.659c0,0.176-0.048,0.318-0.146,0.427c-0.096,0.108-0.206,0.162-0.329,0.162
		c-0.258,0-0.489-0.124-0.694-0.373s-0.343-0.395-0.413-0.436c-0.07-0.035-0.179-0.053-0.325-0.053c-0.164,0-0.309,0.07-0.436,0.211
		c-0.125,0.142-0.188,0.312-0.188,0.511c0,0.476,0.142,1.138,0.424,1.984c0.283,0.848,0.423,1.506,0.42,1.976
		c0,0.299-0.093,0.603-0.276,0.911c-0.186,0.308-0.473,0.569-0.861,0.783c-0.391,0.214-0.79,0.321-1.2,0.321
		c-0.492,0-0.86-0.105-1.103-0.316c-0.244-0.211-0.365-0.463-0.365-0.756c0-0.176,0.05-0.317,0.149-0.426
		S233.804,41.853,233.968,41.853z" />
		<path fill="#12100B" d="M240.511,40.191c-0.193,0.531-0.29,1.069-0.29,1.612c0,0.397,0.094,0.716,0.281,0.955
		c0.123,0.163,0.29,0.245,0.501,0.245c0.129,0,0.243-0.026,0.343-0.079c0.217-0.11,0.403-0.241,0.558-0.394
		c0.156-0.151,0.318-0.35,0.488-0.595s0.308-0.519,0.413-0.822h0.123c0.07,0,0.149,0.006,0.237,0.018
		c-0.176,0.654-0.609,1.296-1.301,1.927c-0.434,0.392-0.882,0.587-1.345,0.587c-0.311,0-0.574-0.141-0.791-0.422
		c-0.287-0.369-0.431-0.879-0.431-1.529c0-0.281,0.043-0.618,0.127-1.011c0.086-0.393,0.184-0.721,0.295-0.984
		c0.176-0.41,0.372-0.797,0.589-1.16l0.677-0.984c0.439-0.469,0.686-0.727,0.738-0.773c0.205-0.176,0.412-0.309,0.619-0.4
		c0.209-0.09,0.424-0.136,0.646-0.136c0.287,0,0.539,0.12,0.756,0.361s0.325,0.543,0.325,0.907c0,0.323-0.083,0.642-0.251,0.956
		c-0.166,0.313-0.347,0.544-0.54,0.691l-0.729,0.476c-0.082,0.041-0.302,0.116-0.659,0.225S241.074,40.08,240.511,40.191z
		 M240.661,39.743c0.188,0.006,0.48-0.067,0.879-0.22c0.217-0.082,0.504-0.243,0.861-0.483c0.141-0.094,0.302-0.253,0.483-0.479
		c0.182-0.225,0.319-0.459,0.413-0.703c0.094-0.242,0.141-0.493,0.141-0.751c0-0.17-0.05-0.311-0.149-0.422
		s-0.211-0.167-0.334-0.167c-0.158,0-0.346,0.091-0.563,0.272c-0.363,0.316-0.744,0.847-1.143,1.591
		C240.951,38.949,240.754,39.403,240.661,39.743z" />
		<path fill="#12100B" d="M250.605,36.992c0.059-0.1,0.098-0.179,0.115-0.237c0.07-0.176,0.141-0.29,0.211-0.343
		c0.164-0.018,0.285-0.026,0.361-0.026c0.1,0,0.196,0.021,0.29,0.062l0.026,0.106c0,0.035-0.015,0.088-0.044,0.158
		c-0.018,0.035-0.056,0.146-0.114,0.334l-0.07,0.176l-0.58,1.572c-0.247,0.709-0.463,1.274-0.646,1.696
		c-0.186,0.422-0.345,0.852-0.479,1.288c-0.136,0.437-0.259,0.748-0.37,0.936l-0.035,0.084c0,0.034,0.031,0.079,0.094,0.136
		c0.246-0.146,0.455-0.305,0.625-0.475c0.439-0.439,0.699-0.712,0.782-0.817c0.061-0.076,0.118-0.146,0.173-0.211
		c0.066,0.059,0.126,0.12,0.181,0.185c-0.158,0.229-0.421,0.539-0.792,0.932s-0.705,0.671-1.003,0.835
		c-0.23,0.123-0.446,0.185-0.648,0.185c-0.129,0-0.227-0.028-0.291-0.086s-0.096-0.132-0.096-0.225c0-0.08,0.029-0.231,0.088-0.454
		c0.146-0.387,0.248-0.642,0.307-0.765s0.139-0.313,0.238-0.571c0.059-0.158,0.178-0.434,0.359-0.826
		c-0.114,0.111-0.256,0.275-0.424,0.492c-0.488,0.598-1.049,1.163-1.682,1.696c-0.145,0.123-0.494,0.319-1.048,0.589
		c-0.205,0.076-0.446,0.126-0.724,0.149c-0.234-0.006-0.391-0.029-0.47-0.07c-0.145-0.076-0.262-0.196-0.353-0.36
		c-0.066-0.123-0.1-0.313-0.1-0.571c0-0.375,0.084-0.791,0.252-1.248c0.287-0.779,0.578-1.356,0.871-1.731
		c0.504-0.65,1.002-1.166,1.496-1.547s0.947-0.659,1.361-0.835c0.545-0.234,1.018-0.352,1.418-0.352
		c0.133,0,0.258,0.012,0.378,0.035S250.498,36.945,250.605,36.992z M246.315,42.758c0.146-0.035,0.272-0.085,0.381-0.149
		c0.066-0.035,0.302-0.196,0.707-0.483c0.737-0.721,1.154-1.134,1.251-1.239c0.211-0.229,0.45-0.542,0.716-0.94
		c0.073-0.1,0.227-0.375,0.462-0.826l0.229-0.606c0.082-0.357,0.123-0.563,0.123-0.615c0-0.164-0.068-0.319-0.204-0.466
		c-0.091-0.088-0.238-0.132-0.443-0.132c-0.235,0-0.438,0.038-0.606,0.114c-0.38,0.176-0.727,0.398-1.041,0.668
		c-0.422,0.369-0.83,0.843-1.222,1.42s-0.67,1.059-0.833,1.445c-0.223,0.533-0.334,0.932-0.334,1.195
		c0,0.217,0.045,0.378,0.135,0.483c0.092,0.105,0.206,0.158,0.346,0.158C246.028,42.784,246.14,42.775,246.315,42.758z" />
		<path fill="#12100B" d="M254.187,36.904c-0.193,0.141-0.375,0.305-0.545,0.492c-0.047,0.053-0.314,0.404-0.801,1.055l-0.359,0.018
		c0.146-0.316,0.418-0.706,0.814-1.169c0.398-0.463,0.742-0.779,1.035-0.949c0.188-0.111,0.397-0.176,0.631-0.193
		c0.146,0.041,0.248,0.096,0.303,0.165c0.056,0.07,0.084,0.154,0.084,0.253s-0.012,0.197-0.035,0.296
		c-0.064,0.319-0.193,0.778-0.385,1.376s-0.363,1.069-0.514,1.415l-0.457,1.081l-0.035,0.158c0.082-0.141,0.248-0.454,0.5-0.94
		c0.955-1.811,1.645-2.927,2.066-3.351c0.311-0.302,0.674-0.453,1.09-0.453c0.234,0,0.453,0.094,0.658,0.281
		c0.152,0.146,0.229,0.34,0.229,0.58c0,0.27-0.084,0.501-0.254,0.694c-0.117,0.135-0.285,0.202-0.502,0.202
		c-0.182,0-0.309-0.042-0.382-0.128c-0.073-0.084-0.118-0.297-0.136-0.637c-0.076-0.152-0.162-0.229-0.256-0.229
		s-0.193,0.05-0.299,0.149c-0.281,0.251-0.813,1.058-1.594,2.417c-0.779,1.36-1.269,2.305-1.465,2.834
		c-0.197,0.53-0.357,0.894-0.48,1.093c-0.063,0.101-0.184,0.151-0.357,0.151c-0.156,0-0.27-0.028-0.336-0.084s-0.1-0.127-0.1-0.215
		c0-0.117,0.029-0.252,0.088-0.404c0.252-0.615,0.656-1.749,1.213-3.401l0.615-1.881c0.041-0.168,0.07-0.274,0.088-0.321l0.053-0.13
		C254.362,37.072,254.304,36.997,254.187,36.904z" />
		<path fill="#12100B" d="M262.426,37.73c-0.088-0.07-0.155-0.135-0.202-0.193c-0.029-0.041-0.085-0.154-0.167-0.338
		c-0.082-0.186-0.144-0.298-0.185-0.339c-0.07-0.064-0.144-0.097-0.22-0.097c-0.205,0-0.425,0.126-0.659,0.377
		c-0.434,0.463-0.871,1.227-1.314,2.291c-0.441,1.064-0.663,1.948-0.663,2.65c0,0.264,0.038,0.447,0.114,0.553
		c0.058,0.076,0.143,0.114,0.254,0.114c0.227,0,0.479-0.123,0.752-0.369c0.368-0.328,0.742-0.785,1.121-1.371
		c0.113-0.023,0.201-0.035,0.261-0.035l0.135,0.009c-0.023,0.105-0.188,0.384-0.492,0.835c-0.439,0.645-0.844,1.095-1.213,1.349
		c-0.369,0.256-0.709,0.383-1.02,0.383c-0.27,0-0.478-0.097-0.624-0.29c-0.193-0.251-0.29-0.649-0.29-1.193
		c0-0.469,0.112-1.039,0.339-1.712c0.225-0.673,0.558-1.322,0.997-1.949c0.439-0.626,0.798-1.075,1.077-1.347
		c0.277-0.272,0.619-0.505,1.023-0.698c0.275-0.135,0.533-0.202,0.773-0.202c0.246,0,0.465,0.107,0.654,0.321
		c0.191,0.214,0.286,0.464,0.286,0.751c0,0.176-0.046,0.312-0.136,0.409c-0.092,0.096-0.198,0.145-0.321,0.145
		C262.631,37.783,262.537,37.766,262.426,37.73z" />
		<path fill="#12100B" d="M265.823,32.009l0.035-0.185c0.996-0.111,1.598-0.167,1.805-0.167c0.063,0,0.155,0.003,0.276,0.009
		l-0.043,0.167l-0.233,0.59l-0.51,1.47c-0.08,0.223-0.193,0.568-0.336,1.038c-0.266,0.868-0.543,1.649-0.834,2.345
		s-0.563,1.45-0.816,2.266c0.092-0.117,0.211-0.281,0.354-0.492c0.836-1.184,1.536-1.992,2.102-2.426
		c0.382-0.293,0.759-0.439,1.13-0.439c0.301,0,0.559,0.126,0.773,0.378s0.322,0.639,0.322,1.16c0,0.668-0.167,1.458-0.5,2.368
		c-0.334,0.912-0.729,1.651-1.185,2.22s-0.847,0.935-1.171,1.099c-0.325,0.164-0.619,0.246-0.882,0.246
		c-0.228,0-0.401-0.062-0.518-0.185c-0.176-0.182-0.263-0.369-0.263-0.563c0-0.088,0.047-0.171,0.14-0.251
		c0.094-0.078,0.216-0.118,0.368-0.118c0.117,0,0.211,0.025,0.281,0.075s0.178,0.183,0.324,0.399c0.1,0.094,0.182,0.141,0.245,0.141
		c0.11,0,0.263-0.126,0.456-0.378c0.38-0.504,0.807-1.462,1.28-2.874c0.38-1.119,0.569-1.966,0.569-2.54
		c0-0.316-0.044-0.53-0.132-0.642c-0.089-0.111-0.21-0.167-0.362-0.167c-0.082,0-0.177,0.026-0.283,0.079
		c-0.318,0.158-0.662,0.431-1.033,0.817s-0.957,1.134-1.758,2.241c-0.174,0.247-0.459,0.811-0.859,1.688s-0.672,1.496-0.816,1.855
		c-0.074,0.179-0.145,0.294-0.213,0.345c-0.068,0.05-0.16,0.075-0.273,0.075c-0.126,0-0.216-0.023-0.27-0.07
		c-0.055-0.047-0.082-0.114-0.082-0.202c0-0.1,0.047-0.261,0.139-0.483l0.619-1.573c0.034-0.076,0.065-0.152,0.094-0.229
		l2.436-7.102l0.352-1.02c0.094-0.26,0.141-0.438,0.141-0.532c0-0.07-0.018-0.126-0.053-0.164s-0.102-0.066-0.199-0.084
		C266.212,32.147,266.007,32.086,265.823,32.009z" />
		<path fill="#12100B" d="M275.569,41.853c0.293,0,0.533,0.226,0.721,0.677c0.094,0.223,0.185,0.369,0.272,0.439
		c0.082,0.076,0.19,0.114,0.325,0.114c0.252,0,0.492-0.117,0.721-0.352c0.176-0.177,0.264-0.446,0.264-0.81
		c0-0.282-0.1-0.704-0.299-1.268c-0.281-0.815-0.422-1.455-0.422-1.919c0-0.674,0.182-1.272,0.545-1.795s0.938-0.783,1.723-0.783
		c0.334,0,0.601,0.091,0.8,0.272s0.299,0.401,0.299,0.659c0,0.176-0.049,0.318-0.145,0.427c-0.098,0.108-0.207,0.162-0.33,0.162
		c-0.258,0-0.489-0.124-0.694-0.373s-0.343-0.395-0.413-0.436c-0.07-0.035-0.179-0.053-0.325-0.053c-0.164,0-0.31,0.07-0.435,0.211
		c-0.127,0.142-0.189,0.312-0.189,0.511c0,0.476,0.142,1.138,0.424,1.984c0.283,0.848,0.423,1.506,0.42,1.976
		c0,0.299-0.092,0.603-0.277,0.911c-0.184,0.308-0.472,0.569-0.861,0.783s-0.789,0.321-1.199,0.321c-0.492,0-0.86-0.105-1.104-0.316
		s-0.364-0.463-0.364-0.756c0-0.176,0.05-0.317,0.149-0.426S275.405,41.853,275.569,41.853z" />
		<path fill="#12100B" d="M283.221,36.904c-0.123,0-0.214,0.009-0.272,0.026c-0.275,0.146-0.478,0.272-0.606,0.378
		c-0.264,0.205-0.513,0.445-0.747,0.721l-0.51,0.114c0.451-0.609,0.953-1.087,1.504-1.433s0.985-0.519,1.302-0.519
		c0.135,0,0.235,0.034,0.303,0.102s0.102,0.153,0.102,0.259c0,0.287-0.164,0.766-0.492,1.434c-0.041,0.082-0.138,0.293-0.29,0.633
		c-0.353,0.768-0.728,1.494-1.126,2.179c-0.13,0.223-0.271,0.486-0.423,0.791c-0.082,0.164-0.155,0.302-0.22,0.413
		c-0.182,0.305-0.272,0.53-0.272,0.677c0,0.041,0.016,0.078,0.048,0.11s0.072,0.048,0.119,0.048c0.064,0,0.162-0.035,0.294-0.105
		c0.221-0.117,0.483-0.312,0.788-0.585c0.306-0.271,0.574-0.584,0.808-0.936h0.387c-0.178,0.316-0.439,0.68-0.786,1.09
		c-0.346,0.41-0.739,0.738-1.181,0.984c-0.331,0.188-0.625,0.281-0.883,0.281c-0.195,0-0.34-0.039-0.432-0.119
		c-0.092-0.078-0.138-0.183-0.138-0.312c0-0.451,0.331-1.301,0.993-2.549l1.415-2.672c0.146-0.275,0.249-0.492,0.308-0.65
		c0.035-0.1,0.053-0.167,0.053-0.202C283.265,37.033,283.25,36.98,283.221,36.904z M283.722,32.958c0-0.205,0.079-0.388,0.237-0.55
		c0.158-0.16,0.343-0.241,0.554-0.241c0.199,0,0.369,0.07,0.51,0.211s0.211,0.302,0.211,0.483c0,0.234-0.088,0.448-0.264,0.642
		c-0.105,0.111-0.299,0.167-0.58,0.167c-0.188,0-0.346-0.064-0.475-0.193S283.722,33.175,283.722,32.958z" />
		<path fill="#12100B" d="M287.47,37.265c-0.012-0.047-0.028-0.079-0.049-0.097s-0.045-0.026-0.074-0.026
		c-0.305,0-0.779,0.48-1.424,1.441c-0.064,0.006-0.111,0.009-0.141,0.009c-0.035,0-0.094-0.003-0.176-0.009
		c0.123-0.246,0.323-0.557,0.602-0.932s0.573-0.687,0.887-0.937c0.313-0.248,0.61-0.435,0.892-0.558
		c0.094-0.041,0.179-0.062,0.255-0.062c0.029,0,0.073,0.003,0.132,0.009c0.104,0.105,0.157,0.213,0.157,0.324
		c0,0.07-0.007,0.141-0.021,0.211s-0.046,0.179-0.092,0.325c-0.176,0.504-0.305,0.858-0.387,1.063l-0.501,1.302
		c-0.116,0.299-0.23,0.615-0.342,0.949c0.047-0.059,0.088-0.114,0.123-0.167c0.545-0.797,1.133-1.56,1.763-2.29
		c0.631-0.729,1.151-1.217,1.562-1.463c0.293-0.182,0.571-0.272,0.836-0.272c0.199,0,0.354,0.055,0.466,0.163
		s0.167,0.247,0.167,0.418c0,0.105-0.012,0.208-0.035,0.308c-0.041,0.223-0.132,0.533-0.272,0.932s-0.511,1.262-1.108,2.592
		l-0.88,2.03l-0.035,0.114c0,0.035,0.021,0.088,0.062,0.158c0.328-0.07,0.82-0.592,1.477-1.564l0.36,0.009
		c-0.182,0.328-0.48,0.75-0.896,1.266c-0.322,0.393-0.668,0.697-1.037,0.914c-0.205,0.123-0.425,0.185-0.659,0.185
		c-0.141,0-0.246-0.029-0.316-0.088s-0.105-0.123-0.105-0.193c0-0.311,0.149-0.791,0.448-1.441l1.274-2.786l0.492-1.169
		c0.111-0.258,0.179-0.437,0.202-0.536s0.035-0.199,0.035-0.299c0-0.076-0.021-0.137-0.062-0.18
		c-0.041-0.045-0.094-0.066-0.158-0.066c-0.094,0-0.202,0.038-0.325,0.114c-0.435,0.258-0.912,0.7-1.434,1.327
		c-0.75,0.902-1.249,1.55-1.495,1.942c-0.614,0.973-1.15,1.966-1.606,2.979c-0.07,0.164-0.155,0.284-0.255,0.36
		c-0.123,0.018-0.217,0.026-0.281,0.026c-0.076,0-0.193-0.015-0.352-0.044c-0.023-0.047-0.035-0.085-0.035-0.114
		c0-0.047,0.029-0.152,0.088-0.316c0.129-0.381,0.445-1.184,0.949-2.408l0.202-0.475L287.47,37.265z" />
		<path fill="#12100B" d="M297.44,37.73c-0.088-0.07-0.155-0.135-0.202-0.193c-0.029-0.041-0.085-0.154-0.167-0.338
		c-0.082-0.186-0.144-0.298-0.185-0.339c-0.07-0.064-0.144-0.097-0.22-0.097c-0.205,0-0.425,0.126-0.659,0.377
		c-0.434,0.463-0.872,1.227-1.314,2.291s-0.663,1.948-0.663,2.65c0,0.264,0.038,0.447,0.114,0.553
		c0.058,0.076,0.143,0.114,0.254,0.114c0.228,0,0.479-0.123,0.752-0.369c0.368-0.328,0.741-0.785,1.121-1.371
		c0.114-0.023,0.201-0.035,0.261-0.035l0.135,0.009c-0.023,0.105-0.188,0.384-0.492,0.835c-0.439,0.645-0.844,1.095-1.213,1.349
		c-0.369,0.256-0.709,0.383-1.02,0.383c-0.27,0-0.478-0.097-0.624-0.29c-0.193-0.251-0.29-0.649-0.29-1.193
		c0-0.469,0.112-1.039,0.339-1.712c0.225-0.673,0.558-1.322,0.997-1.949c0.439-0.626,0.798-1.075,1.077-1.347
		c0.277-0.272,0.619-0.505,1.023-0.698c0.275-0.135,0.533-0.202,0.773-0.202c0.246,0,0.464,0.107,0.654,0.321
		s0.286,0.464,0.286,0.751c0,0.176-0.046,0.312-0.136,0.409c-0.092,0.096-0.198,0.145-0.321,0.145
		C297.646,37.783,297.552,37.766,297.44,37.73z" />
		<path fill="#12100B" d="M299.344,40.191c-0.193,0.531-0.29,1.069-0.29,1.612c0,0.397,0.094,0.716,0.281,0.955
		c0.123,0.163,0.29,0.245,0.501,0.245c0.129,0,0.243-0.026,0.343-0.079c0.217-0.11,0.402-0.241,0.558-0.394
		c0.155-0.151,0.318-0.35,0.488-0.595s0.308-0.519,0.413-0.822h0.123c0.07,0,0.149,0.006,0.237,0.018
		c-0.176,0.654-0.609,1.296-1.301,1.927c-0.434,0.392-0.882,0.587-1.345,0.587c-0.311,0-0.574-0.141-0.791-0.422
		c-0.287-0.369-0.431-0.879-0.431-1.529c0-0.281,0.042-0.618,0.127-1.011s0.184-0.721,0.295-0.984
		c0.176-0.41,0.372-0.797,0.589-1.16l0.677-0.984c0.439-0.469,0.686-0.727,0.738-0.773c0.205-0.176,0.411-0.309,0.619-0.4
		c0.208-0.09,0.424-0.136,0.646-0.136c0.287,0,0.539,0.12,0.756,0.361s0.325,0.543,0.325,0.907c0,0.323-0.083,0.642-0.251,0.956
		c-0.166,0.313-0.347,0.544-0.54,0.691l-0.729,0.476c-0.082,0.041-0.302,0.116-0.659,0.225S299.906,40.08,299.344,40.191z
		 M299.493,39.743c0.188,0.006,0.48-0.067,0.879-0.22c0.217-0.082,0.504-0.243,0.861-0.483c0.141-0.094,0.302-0.253,0.483-0.479
		c0.182-0.225,0.319-0.459,0.413-0.703c0.094-0.242,0.141-0.493,0.141-0.751c0-0.17-0.05-0.311-0.149-0.422
		s-0.211-0.167-0.334-0.167c-0.158,0-0.346,0.091-0.563,0.272c-0.363,0.316-0.744,0.847-1.143,1.591
		C299.783,38.949,299.587,39.403,299.493,39.743z" />
		<path fill="#12100B" d="M310.052,43.355l2.805-9.633c-0.932,0.68-1.898,1.228-2.9,1.644l-0.035-0.492
		c1.816-0.844,3.18-1.808,4.088-2.892h0.58l-3.33,11.373H310.052z" />
		<path fill="#12100B" d="M316.451,43.452c0.006-0.158,0.031-0.262,0.074-0.312c0.045-0.05,0.157-0.098,0.339-0.146
		c0.738-0.187,1.532-0.628,2.382-1.321s1.548-1.432,2.096-2.213c0.548-0.782,1.064-1.758,1.547-2.929
		c0.484-1.171,0.726-2.064,0.726-2.679c0-0.463-0.105-0.816-0.316-1.063s-0.46-0.369-0.747-0.369c-0.445,0-0.931,0.194-1.455,0.584
		c-0.524,0.389-0.975,0.985-1.354,1.79c-0.377,0.804-0.566,1.508-0.566,2.11c0,0.304,0.088,0.556,0.264,0.755
		c0.176,0.198,0.372,0.298,0.589,0.298c0.146,0,0.314-0.027,0.505-0.084c0.19-0.055,0.368-0.139,0.532-0.25
		c0.035,0,0.062,0.015,0.079,0.044c0.035,0.053,0.053,0.129,0.053,0.229c0,0.129-0.082,0.243-0.246,0.343
		c-0.328,0.205-0.741,0.308-1.239,0.308c-0.281,0-0.556-0.074-0.821-0.224c-0.268-0.149-0.477-0.385-0.629-0.707
		c-0.152-0.321-0.229-0.67-0.229-1.044c0-1.218,0.524-2.329,1.573-3.336c0.902-0.854,1.808-1.281,2.716-1.281
		c0.674,0,1.213,0.221,1.617,0.663s0.606,1.108,0.606,1.998c0,0.516-0.056,1.001-0.167,1.458c-0.205,0.813-0.541,1.623-1.006,2.428
		c-0.467,0.806-1.063,1.554-1.789,2.244c-0.551,0.527-1.163,1.013-1.837,1.458c-0.873,0.568-1.594,0.934-2.162,1.098
		c-0.381,0.105-0.598,0.17-0.65,0.193c-0.111,0.047-0.188,0.07-0.229,0.07C316.647,43.566,316.563,43.528,316.451,43.452z" />
		<path fill="#12100B" d="M327.287,43.355l2.805-9.633c-0.932,0.68-1.898,1.228-2.9,1.644l-0.035-0.492
		c1.816-0.844,3.18-1.808,4.088-2.892h0.58l-3.33,11.373H327.287z" />
		<path fill="#12100B" d="M341.077,33.494l-1.134-0.035h-1.723c-0.498,0-0.832,0.018-1.002,0.053c-0.328,0.07-0.595,0.105-0.8,0.105
		s-0.366-0.035-0.483-0.105c-0.059-0.035-0.088-0.079-0.088-0.132l0.053-0.158l0.309-0.879c1.525,0.023,3.112,0.035,4.761,0.035
		c0.271,0,0.464-0.006,0.581-0.018c0.24-0.035,0.431-0.053,0.571-0.053s0.252,0.026,0.334,0.08c0.041,0.029,0.062,0.067,0.062,0.114
		c0,0.065-0.39,0.67-1.169,1.814l-5.994,8.975c-0.147,0.184-0.287,0.275-0.417,0.275c-0.125,0-0.211-0.015-0.258-0.044
		c-0.03-0.018-0.045-0.044-0.045-0.079c0-0.082,0.094-0.229,0.281-0.438c0.252-0.293,0.621-0.873,1.107-1.739l0.053-0.105
		c0.029-0.053,0.179-0.284,0.448-0.693l2.663-4.058C339.48,35.965,340.11,34.993,341.077,33.494z" />
	</g>
	<g>
		<path fill="#706F6F" d="M31.214,21.723c0.314-0.328,3.408-3.838,6.361-7.609C41.463,9.146,46.369,4.03,52.793,2.506
		c1.421-0.338,2.66-0.353,3.671-0.233c1.622,0.191,0.912,0.204,1.15,0.309c0.366,0.159-0.368,0.042-0.383,0.12
		c-0.108,0.31-0.169,0.097-0.241,0.143l-0.216,0.025c-1.412-0.461-0.296,0.176-1.321,0.109c-0.881-0.057-1.607,0.006-2.17,0.144
		l-1.115,0.325c-1.615,0.486-6.681,2.021-15.313,12.71l-0.319,0.397c-5.84,7.232-6.066,7.513-8.19,8.262
		c-0.774,0.273-0.937,0.122-0.953,0.103c-0.024-0.026-0.034-0.075-0.032-0.139c0.003-0.159,0.079-0.365,0.131-0.466
		c0.606-1.157,1.75-3.464,2.497-5.034c0-0.002,1.41-3.119,1.41-3.119c0.349-0.787,0.782-1.765,0.837-1.85
		c-0.013-0.016,0.676-1.641,0.676-1.641l-0.713,0.923L31.86,14.03c-0.063,0.088-6.327,8.407-8.579,9.806
		c-1.959,1.218-2.146,0.985-2.27,0.836c-0.003-0.002-0.08-0.093-0.08-0.093c-0.003-0.002-0.014-0.064-0.014-0.064
		c0.002-0.147,0.111-0.558,0.827-1.666c1.178-1.823,2.438-4.605,3.663-7.3c0.629-1.392,1.28-2.825,1.893-4.066
		c1.984-4.017,3.368-5.259,4.018-5.642c0.008-0.005,0.359-0.234,0.359-0.234L31.617,5.45l-0.243,0.047
		c-0.008,0.002-0.173,0.024-0.173,0.024c-0.179,0.032-1.116,0.297-3.072-0.034c-1.029-0.174-2.141-0.399-3.316-0.738
		c-1.616-0.466-3.442-1.204-5.446-1.457c-4.227-0.534-9.18,0.812-12.925,3.511c-2.83,2.039-4.535,4.535-4.676,6.848
		c-0.079,1.294,0.338,2.437,1.177,3.21c3.552,3.293,10.853,1.522,15.436-1.78c2.28-1.643,3.296-3.336,3.68-3.973
		c0,0.003,0.053-0.059,0.053-0.059c0.013-0.005,0.411,0.115,0.123,0.594c-0.143,0.527-1.712,2.731-3.888,4.299
		c-4.632,3.338-12.248,4.783-15.772,1.519c-1.153-1.067-1.652-2.649-1.563-4.111c0.147-2.387,2.05-5.177,4.964-7.279
		c3.89-2.803,8.891-4.262,13.377-3.906c2.032,0.163,3.152,0.714,4.336,1.297c1.06,0.521,2.156,1.06,3.939,1.321
		c3.919,0.574,6.362-0.421,6.813-0.625c0.384-0.175,0.497-0.134,0.565-0.062c-0.058,0.064-0.209,0.186-0.265,0.23
		c-0.001,0-0.194,0.155-0.194,0.155c-0.002,0.001-0.213,0.175-0.213,0.175c-0.757,0.619-3.06,2.504-3.656,3.383
		c-1.407,2.071-2.078,3.803-3.293,6.946l-0.263,0.677c-0.593,1.527-2.339,4.868-2.508,5.154l-0.092,0.269
		c-0.001,0.089,0.033,0.162,0.103,0.217c0.217,0.173,0.508-0.055,0.786-0.324c0.178-0.169,0.933-1.155,2.365-3.029
		c1.758-2.297,3.943-5.154,5.022-6.393c1.88-2.152,3.212-3.163,3.466-3.315l0.034-0.021c0.314-0.191,0.332-0.177,0.415-0.11
		c0.063,0.05,0.065,0.111-0.145,0.554c-0.171,0.367-0.729,1.687-1.5,3.514l-0.636,1.501c-1.095,2.591-1.928,4.19-2.837,5.798
		c-0.33,0.581-0.583,1.224-0.751,1.649c0.003-0.003-0.158,0.382-0.158,0.382c-0.143,0.274-0.013,0.41,0.051,0.454
		C30.977,22.133,31.118,21.823,31.214,21.723" />
	</g>
	<path fill="#B2B2B2" d="M49.917,7.138c2.219-2.679,2.606-3.041,6.861-5.069c2.671-0.996,6.387-1.805,8.876,0.016
	c1.007,0.737,1.664,1.909,1.789,2.688c0.081,0.477-0.19,0.868-0.493,1.045c-0.236,0.138-0.48,0.137-0.651-0.003
	c-0.465-0.375-0.481-0.977-0.495-1.508c-0.014-0.487-0.025-0.942-0.356-1.217c-1.851-1.542-4.464-1.665-7.767-0.367
	c-6.808,2.679-8.638,7.646-11.408,15.163l-0.627,1.698c-2.996,8.046-9.422,12.729-18.259,12.574c-0.053,0-5.522-0.25-8.361-3.228
	c-1.312-1.374-1.939-3.165-1.866-5.318c0.186-5.441,8.246-9.298,8.326-9.338c0.105-0.045,10.477-4.599,13.911,2.79
	c0.574,1.236,0.577,2.519,0.01,3.802c-1.462,3.312-6.212,5.735-7.684,6.198c-1.972,0.617-4.478,0.78-5.708,0.367
	c-0.606-0.203-0.82-0.536-0.882-0.707c0.238-0.027,0.829,0.007,1.368,0.197c1.241,0.437,6.051,0.115,9.532-3.197
	c2.663-2.536,3.378-5.21,1.961-7.345c-1.702-2.565-6.593-3.949-12.301-1.457c-4.677,2.043-6.946,5.885-7.471,8.559
	c-0.303,1.548,0.005,3.017,0.893,4.244c1.397,1.935,4.193,3.465,8.156,3.72c3.162,0.203,12.145-1.26,16.925-13.43
	C46.475,12.22,47.812,9.678,49.917,7.138" />
</svg>