<svg xmlns="http://www.w3.org/2000/svg" viewBox="-20 0 260 230">
    <defs>
        <style>
            .cls-1 {
                fill: #1d1d1b;
            }
            .cls-2 {
                fill: #004489;
            }
            .cls-3 {
                fill: #F5C500;
            }
            .cls-4 {
                fill: #D2072A;
            }
        </style>
    </defs>
    <title>Vetenskapsrådet - Swedish Research Council</title>
    <g transform="matrix(4,0,0,4,48,5)">
        <path class="cls-1" d="M.29,39.81A1.1,1.1,0,0,1,0,39v-.08a1.17,1.17,0,0,1,.74-1,20.67,20.67,0,0,1,3.41-1.17c.57-.13,3.43-.73,4-.82s3.85-.45,4.29-.5,5.73-.48,6.2-.52l3.94-.2a19.71,19.71,0,0,0,3.17-.41,10.5,10.5,0,0,1,1.4-.39,1.85,1.85,0,0,1,2,1s.85,1.43.4,2.22a.64.64,0,0,1-.07.12,3.4,3.4,0,0,1-1.31,1.18,1.8,1.8,0,0,1-.82.26,14.67,14.67,0,0,1-2.42,0l-.66-.05L21,38.51c-1.62-.07-3-.17-3.77-.15s-2.22,0-3.48.1-4.3.37-5,.43-3.14.3-3.91.43-2.11.42-2.42.5A4.88,4.88,0,0,1,.57,40a.61.61,0,0,1-.28-.14" />
        <path class="cls-2" d="M17.57,29.8c-.57,0-.73-.67-1.06-1.25s-1.73-3.33-2.06-3.95-2.25-4.33-2.54-4.79c-.2-.31-1.31-2.35-2-3.57-.34-.58-1-1.55-1.43-2.19L6.88,11.9c-.48-.62-1.45-1.93-2.26-3a1.54,1.54,0,0,1,.24-2,3.17,3.17,0,0,1,1.55-.46A1.61,1.61,0,0,1,7,6.54a4.26,4.26,0,0,1,1.09.57,16.21,16.21,0,0,1,3.09,3.32c.76,1,2,3.48,2.48,4.27s1.68,3.79,1.94,4.38,1.19,3.27,1.58,4.31.89,2.56,1.22,3.8a3.94,3.94,0,0,1,.24,1.54,1.14,1.14,0,0,1-.08.4,1.22,1.22,0,0,1-1,.67" />
        <path class="cls-3" d="M19.71,16.44s-.2.08-.4-.32a.83.83,0,0,1,0-.42,32,32,0,0,1,1.88-6.22A37.23,37.23,0,0,1,23.5,4.7c.95-1.38,2.32-3.34,3.19-3.88A3.88,3.88,0,0,1,29.06,0,1.93,1.93,0,0,1,30.55,1a2,2,0,0,1-.18,1.68A3.79,3.79,0,0,1,29.1,4a23.6,23.6,0,0,0-2.43,1.59A17.82,17.82,0,0,0,25.34,7l-.95,1.15c-.17.2-.56.73-.66.85a23.44,23.44,0,0,0-1.84,3.13c-.88,1.83-1,2.18-1.59,3.49,0,0-.26.79-.59.85" />
        <path class="cls-4" d="M21.72,22.4s-.52-.11-.49-.52a3.15,3.15,0,0,1,.2-.74A29.36,29.36,0,0,1,23,17.31a24.62,24.62,0,0,1,5.14-6.6A6.79,6.79,0,0,1,31.24,9a1.66,1.66,0,0,1,.91,0,1.51,1.51,0,0,1,1.13,1,2.11,2.11,0,0,1-1.05,2s-3.67,2.52-4.3,3.05a20.79,20.79,0,0,0-2.18,1.88,34.86,34.86,0,0,0-2.33,2.89s-.57,1-1.08,1.86a2.56,2.56,0,0,1-.39.58.33.33,0,0,1-.23.13" />
    </g>
    <g class="cls-1" transform="matrix(1,0,0,1,6,170)">
        <path d="M0,1.93H2.1L8.18,18.62A24.89,24.89,0,0,1,9,21.39h.05a26.14,26.14,0,0,1,.87-2.74L16,1.93h2L10.14,23.35H7.92Z" />
        <path d="M24.25,23.72c-4.48,0-6.53-3-6.53-7.59S20,8.32,24.16,8.32c4.34,0,5.88,3.47,5.88,6.94v1.2H19.68c.12,3.56,1.52,5.72,4.6,5.72A3.56,3.56,0,0,0,28,19.68h1.85A5.53,5.53,0,0,1,24.25,23.72Zm3.83-8.88c0-2.3-.81-5-3.92-5C21.42,9.83,20,12,19.71,15h8.37Z" />
        <path d="M36.09,4.28v4.4h3.75v1.51H36.09v9.49c0,1.57.67,2.24,2.35,2.24a10.29,10.29,0,0,0,1.68-.16v1.62A9.33,9.33,0,0,1,38,23.6c-2.83,0-3.81-1.51-3.81-3.69V10.19h-2.8V8.74H32c1.88,0,2.27-.42,2.27-3.11V4.28Z" />
        <path d="M48.08,23.72c-4.48,0-6.53-3-6.53-7.59S43.82,8.32,48,8.32c4.34,0,5.88,3.47,5.88,6.94v1.2H43.51C43.62,20,45,22.18,48.1,22.18a3.56,3.56,0,0,0,3.7-2.5h1.85A5.53,5.53,0,0,1,48.08,23.72Zm3.83-8.88c0-2.3-.81-5-3.92-5-2.74,0-4.2,2.13-4.45,5.15h8.37Z" />
        <path d="M66.61,14.08A5.39,5.39,0,0,0,66,11a2.82,2.82,0,0,0-2.47-1c-3,0-4.34,2.21-4.34,4.73v8.65h-2V8.68H59v2.6h.06a5.18,5.18,0,0,1,4.87-3c3.17,0,4.59,1.7,4.59,5.06v10H66.61Z" />
        <path d="M80.72,12.21c-.22-1.43-1.43-2.38-3.41-2.38S74,11,74,12.46s.81,2.1,2.3,2.3l2.63.36c2.8.39,4,1.82,4,4.06,0,2.77-2.27,4.54-5.6,4.54-3,0-5.38-1.21-5.77-4.48h1.9c.31,1.73,1.4,2.94,3.9,2.94C79.6,22.18,81,21,81,19.35c0-1.32-.42-2.16-2.54-2.47l-2.41-.33c-2.47-.34-3.87-1.51-3.87-3.92,0-2.58,2.1-4.31,5.18-4.31s5,1.42,5.24,3.89Z" />
        <path d="M88.2,23.35h-2V1.29h2V16.16l6.69-7.48h2.32l-5,5.52,5.87,9.15H95.76l-4.9-7.7L88.2,18.59Z" />
        <path d="M100,12.57c0-2.29,2-4.25,5.32-4.25,4.06,0,5.21,2.24,5.21,5.4V20.1c0,1.35.39,1.82,1.43,1.85v1.54h-.26c-2.1,0-2.85-.92-3-2.88h-.06a5.19,5.19,0,0,1-4.93,3c-2.74,0-4.51-1.52-4.51-4.12a3.81,3.81,0,0,1,2-3.58c1.46-.82,3.86-1.07,7.42-1.26v-.93c0-2.29-.81-3.89-3.42-3.89-2.24,0-3.3,1.26-3.41,2.77Zm8.65,4.17v-.61c-3.64.22-5.49.45-6.41,1.12a2.46,2.46,0,0,0-1,2.13c0,1.73,1.15,2.63,2.91,2.63C106.2,22,108.61,20.36,108.61,16.74Z" />
        <path d="M115.12,8.68H117v2.6H117a5.26,5.26,0,0,1,4.89-3c3.06,0,5.91,1.87,5.91,7.53,0,5.32-2.85,7.87-6.21,7.87a4.8,4.8,0,0,1-4.48-2.8h-.06v7.7h-2Zm6.36,13.47c2.91,0,4.36-2.44,4.36-6.3,0-3.31-1.06-6-4.31-6-2.94,0-4.5,2.41-4.5,5V17C117,19.6,118.42,22.15,121.48,22.15Z" />
        <path d="M139.17,12.21c-.22-1.43-1.42-2.38-3.41-2.38s-3.28,1.15-3.28,2.63.81,2.1,2.3,2.3l2.63.36c2.8.39,4,1.82,4,4.06,0,2.77-2.27,4.54-5.6,4.54-3,0-5.38-1.21-5.77-4.48h1.9c.31,1.73,1.4,2.94,3.9,2.94,2.26,0,3.66-1.18,3.66-2.83,0-1.32-.42-2.16-2.55-2.47l-2.4-.33c-2.47-.34-3.87-1.51-3.87-3.92,0-2.58,2.1-4.31,5.18-4.31s5,1.42,5.24,3.89Z" />
        <path d="M144.83,8.68h1.82v3.05h.06a5.07,5.07,0,0,1,4.61-3.33h.26v1.93h-.4c-2.29,0-4.39,1.51-4.39,5v8h-2Z" />
        <path d="M153.65,12.57c0-2.29,2-4.25,5.32-4.25,4.06,0,5.21,2.24,5.21,5.4V20.1c0,1.35.39,1.82,1.42,1.85v1.54h-.25c-2.1,0-2.85-.92-3-2.88h0a5.19,5.19,0,0,1-4.93,3c-2.74,0-4.51-1.52-4.51-4.12a3.81,3.81,0,0,1,2-3.58c1.45-.82,3.86-1.07,7.42-1.26v-.93c0-2.29-.81-3.89-3.42-3.89-2.24,0-3.3,1.26-3.41,2.77Zm8.65,4.17v-.61c-3.64.22-5.49.45-6.41,1.12a2.46,2.46,0,0,0-1,2.13c0,1.73,1.15,2.63,2.91,2.63C159.89,22,162.3,20.36,162.3,16.74Zm-6-13.91A2.71,2.71,0,0,1,159.19,0a2.68,2.68,0,0,1,2.89,2.83,2.72,2.72,0,0,1-2.89,2.83A2.68,2.68,0,0,1,156.34,2.83Zm1.34,0c0,1,.53,1.73,1.51,1.73a1.55,1.55,0,0,0,1.54-1.73,1.54,1.54,0,1,0-3,0Z" />
        <path d="M180.48,23.35h-1.85V20.8h-.08a5.06,5.06,0,0,1-4.65,2.92c-2.94,0-6.16-1.77-6.16-7.62,0-5,2.52-7.78,6.3-7.78a4.55,4.55,0,0,1,4.42,2.77h.06V1.29h2Zm-1.91-8.43c0-2.74-1.62-5-4.31-5-3.08,0-4.51,2.55-4.51,6.11s1.24,6.16,4.34,6.16,4.48-2.44,4.48-4.93Z" />
        <path d="M190.33,23.72c-4.48,0-6.52-3-6.52-7.59s2.27-7.81,6.44-7.81c4.34,0,5.88,3.47,5.88,6.94v1.2H185.77c.11,3.56,1.51,5.72,4.59,5.72a3.56,3.56,0,0,0,3.7-2.5h1.85A5.54,5.54,0,0,1,190.33,23.72Zm3.84-8.88c0-2.3-.81-5-3.92-5-2.74,0-4.2,2.13-4.45,5.15h8.37Z" />
        <path d="M202.32,4.28v4.4h3.75v1.51h-3.75v9.49c0,1.57.67,2.24,2.35,2.24a10.29,10.29,0,0,0,1.68-.16v1.62a9.37,9.37,0,0,1-2.16.22c-2.82,0-3.81-1.51-3.81-3.69V10.19h-2.79V8.74h.64c1.88,0,2.27-.42,2.27-3.11V4.28Z" />
    </g>

    <g class="cls-1" transform="matrix(0.5,0,0,0.5,26,200)">
        <path d="M13.13,6.36c-.22-2.38-1.48-4.43-5-4.43C5,1.93,2.94,3.5,2.94,6.05,2.94,8.34,4,9.41,6.8,9.91l3.59.65c3.55.64,5.35,2.54,5.35,5.54,0,3.78-2.75,6.41-7.76,6.41S.25,19.46,0,16.1H2c.3,2.35,2,4.79,6,4.79s5.71-2.16,5.71-4.62c0-2-1-3.31-3.75-3.81l-3.45-.62C2.32,11.09.9,9.16.9,6.16.9,2.63,3.89.34,8.09.34c4.37,0,6.86,2.35,7,6Z" />
        <path d="M17.16,7.39h2l3.28,10.87c.22.78.42,1.54.42,1.54h0s.23-.79.48-1.57L26.77,7.39h2L32.2,18.23c.2.64.47,1.57.47,1.57h.06s.2-.93.39-1.57L36.4,7.39h1.9L33.68,22.06h-2.1l-3-9.77c-.36-1.17-.75-2.57-.75-2.57h-.06s-.39,1.4-.76,2.57l-3.05,9.77H21.78Z" />
        <path d="M46.12,22.43c-4.48,0-6.53-3-6.53-7.59S41.86,7,46,7c4.34,0,5.88,3.47,5.88,6.94v1.21H41.55c.11,3.55,1.51,5.71,4.59,5.71a3.57,3.57,0,0,0,3.7-2.49h1.85A5.52,5.52,0,0,1,46.12,22.43ZM50,13.55c0-2.29-.81-5-3.92-5-2.74,0-4.2,2.13-4.45,5.15H50Z" />
        <path d="M67.31,22.06H65.46V19.52h-.08a5.07,5.07,0,0,1-4.65,2.91c-2.94,0-6.16-1.77-6.16-7.62,0-5,2.52-7.78,6.3-7.78A4.57,4.57,0,0,1,65.29,9.8h.06V0h2ZM65.4,13.64c0-2.75-1.62-5-4.31-5-3.08,0-4.51,2.54-4.51,6.1s1.24,6.16,4.34,6.16,4.48-2.44,4.48-4.93Z" />
        <path d="M71.62,1.54h2.1V3.75h-2.1Zm.06,5.85h2V22.06h-2Z" />
        <path d="M85.87,10.92c-.22-1.43-1.43-2.38-3.41-2.38s-3.28,1.15-3.28,2.63.81,2.1,2.3,2.3l2.63.36c2.8.39,4,1.82,4,4.06,0,2.77-2.27,4.54-5.6,4.54-3,0-5.38-1.21-5.77-4.48h1.9c.31,1.73,1.4,2.94,3.89,2.94,2.27,0,3.67-1.18,3.67-2.83,0-1.32-.42-2.16-2.55-2.46l-2.4-.34c-2.47-.34-3.87-1.51-3.87-3.92,0-2.58,2.1-4.31,5.18-4.31s5,1.43,5.24,3.89Z" />
        <path d="M100.8,12.77a5.3,5.3,0,0,0-.65-3,2.8,2.8,0,0,0-2.46-1c-3,0-4.34,2.24-4.34,4.73v8.65h-2V0h2V10h.05A4.89,4.89,0,0,1,98.14,7c3.16,0,4.59,1.71,4.59,5.07v10H100.8Z" />
        <path d="M123.53,12.94h-5.88v9.12h-2V.64h7.68a8.87,8.87,0,0,1,4.2,1,5.35,5.35,0,0,1,2.74,5,5.83,5.83,0,0,1-4.68,6v.06l4.88,9.4h-2.3Zm-.25-1.66c2.74,0,5-1.34,5-4.64,0-2.83-1.94-4.32-4.9-4.32h-5.69v9Z" />
        <path d="M138.57,22.43c-4.48,0-6.53-3-6.53-7.59S134.31,7,138.48,7c4.34,0,5.88,3.47,5.88,6.94v1.21H134c.12,3.55,1.52,5.71,4.6,5.71a3.56,3.56,0,0,0,3.69-2.49h1.85A5.52,5.52,0,0,1,138.57,22.43Zm3.83-8.88c0-2.29-.81-5-3.92-5-2.74,0-4.2,2.13-4.45,5.15h8.37Z" />
        <path d="M155.73,10.92c-.22-1.43-1.43-2.38-3.41-2.38S149,9.69,149,11.17s.81,2.1,2.29,2.3l2.64.36c2.8.39,3.95,1.82,3.95,4.06,0,2.77-2.27,4.54-5.6,4.54-3,0-5.38-1.21-5.77-4.48h1.9c.31,1.73,1.4,2.94,3.89,2.94,2.27,0,3.67-1.18,3.67-2.83,0-1.32-.42-2.16-2.55-2.46l-2.4-.34c-2.47-.34-3.87-1.51-3.87-3.92,0-2.58,2.1-4.31,5.18-4.31s5,1.43,5.24,3.89Z" />
        <path d="M166.88,22.43c-4.48,0-6.53-3-6.53-7.59S162.62,7,166.79,7c4.34,0,5.88,3.47,5.88,6.94v1.21H162.31c.11,3.55,1.51,5.71,4.59,5.71a3.57,3.57,0,0,0,3.7-2.49h1.85A5.52,5.52,0,0,1,166.88,22.43Zm3.83-8.88c0-2.29-.81-5-3.92-5-2.74,0-4.2,2.13-4.45,5.15h8.37Z" />
        <path d="M175.83,11.28c0-2.29,2-4.25,5.33-4.25,4.06,0,5.2,2.24,5.2,5.4v6.39c0,1.34.39,1.82,1.43,1.84V22.2h-.25c-2.1,0-2.86-.92-3-2.88h-.06a5.17,5.17,0,0,1-4.92,3c-2.75,0-4.51-1.51-4.51-4.12a3.81,3.81,0,0,1,2-3.58c1.46-.81,3.87-1.07,7.42-1.26V12.4c0-2.29-.81-3.89-3.41-3.89-2.24,0-3.3,1.26-3.42,2.77Zm8.66,4.18v-.62c-3.64.22-5.49.45-6.41,1.12a2.44,2.44,0,0,0-1,2.13c0,1.73,1.15,2.63,2.91,2.63C182.08,20.72,184.49,19.07,184.49,15.46Z" />
        <path d="M191,7.39h1.82v3.05h.05a5.11,5.11,0,0,1,4.62-3.33h.26V9h-.4c-2.29,0-4.39,1.52-4.39,5v8h-2Z" />
        <path d="M208.94,11.48a3.37,3.37,0,0,0-3.66-2.91c-2.83,0-4.51,2.29-4.51,6.13s1.29,6.16,4.42,6.16a3.58,3.58,0,0,0,3.84-3.3h1.88a5.36,5.36,0,0,1-5.74,4.87c-4.26,0-6.42-3-6.42-7.59S201.13,7,205.25,7c2.66,0,5.26,1.23,5.63,4.48Z" />
        <path d="M223.67,12.77a5.22,5.22,0,0,0-.65-3,2.8,2.8,0,0,0-2.46-1c-3,0-4.34,2.24-4.34,4.73v8.65h-2V0h2V10h.06A4.87,4.87,0,0,1,221,7c3.16,0,4.59,1.71,4.59,5.07v10h-1.93Z" />
        <path d="M239.43,11.42c0,5.74,2.61,9.44,7.42,9.44,4.06,0,5.74-2.58,6-5h2c-.34,3.83-3.39,6.66-8.18,6.66-5.37,0-9.38-3.47-9.38-11.09,0-7,4.09-11.11,9.47-11.11,3.64,0,7.61,1.76,8.09,6.49h-2c-.31-2.35-2-4.87-6-4.87C241.92,1.93,239.43,5.94,239.43,11.42Z" />
        <path d="M257.44,14.73c0-4.43,2.38-7.7,6.44-7.7,4.42,0,6.41,3.27,6.41,7.7s-2.33,7.7-6.41,7.7C259.48,22.43,257.44,19.21,257.44,14.73Zm2,0c0,3.78,1.4,6.16,4.48,6.16s4.37-2.38,4.37-6.16-1.34-6.19-4.39-6.19C261,8.54,259.42,11,259.42,14.73Z" />
        <path d="M275,16.77a5.15,5.15,0,0,0,.64,3,3,3,0,0,0,2.55,1c2.83,0,4.23-2.18,4.23-5.48V7.39h1.93V22.06h-1.82V19.35h-.05a5,5,0,0,1-4.71,3.08c-3.14,0-4.7-1.65-4.7-5v-10H275Z" />
        <path d="M297.87,12.8a5.35,5.35,0,0,0-.65-3.08,2.8,2.8,0,0,0-2.46-1c-3,0-4.34,2.21-4.34,4.73v8.65h-2V7.39h1.82V10h.05a5.19,5.19,0,0,1,4.88-3c3.16,0,4.59,1.71,4.59,5.07v10h-1.93Z" />
        <path d="M313.24,11.48a3.38,3.38,0,0,0-3.67-2.91c-2.83,0-4.51,2.29-4.51,6.13s1.29,6.16,4.43,6.16a3.58,3.58,0,0,0,3.83-3.3h1.88a5.36,5.36,0,0,1-5.74,4.87c-4.26,0-6.41-3-6.41-7.59S305.43,7,309.54,7c2.66,0,5.27,1.23,5.63,4.48Z" />
        <path d="M318.19,1.54h2.1V3.75h-2.1Zm.06,5.85h2V22.06h-2Z" />
        <path d="M324.7,0h2V22.06h-2Z" />
    </g>

</svg>