
<svg xmlns="http://www.w3.org/2000/svg" viewBox="0 0 120 120"><defs><style>.cls-1{fill:#fff;}.cls-2{fill:#c9bfad;}.cls-3{fill:#b2a89a;}.cls-4{fill:#e0d3bd;}.cls-5{fill:#afa391;}.cls-6{fill:none;stroke:#afa391;stroke-miterlimit:10;stroke-width:0.19px;}</style></defs><g id="Akropolis"><circle class="cls-1" cx="60" cy="60" r="60"/><rect class="cls-2" x="15.13" y="86.15" width="89.74" height="3.31"/><rect class="cls-2" x="11.74" y="88.69" width="96.52" height="3.31"/><rect class="cls-2" x="26.32" y="76.83" width="67.37" height="3.31"/><rect class="cls-2" x="22.43" y="79.94" width="75.14" height="3.31"/><rect class="cls-2" x="18.55" y="83.05" width="82.91" height="3.31"/><rect class="cls-3" x="29.19" y="43.34" width="61.38" height="1.64"/><rect class="cls-3" x="29.19" y="36.34" width="61.38" height="1.64"/><polygon class="cls-3" points="92.13 34.75 59.88 17 27.64 34.75 27.64 36.47 92.13 36.47 92.13 34.75"/><rect class="cls-4" x="30.75" y="37.98" width="58.28" height="5.44"/><rect class="cls-4" x="31.82" y="46.53" width="4.35" height="28.2"/><rect class="cls-2" x="31.18" y="45.96" width="5.64" height="1.07"/><rect class="cls-3" x="30.53" y="44.89" width="6.93" height="1.22"/><rect class="cls-2" x="31.18" y="74.56" width="5.64" height="1.22"/><rect class="cls-3" x="30.53" y="75.61" width="6.93" height="1.22"/><rect class="cls-4" x="83.11" y="46.53" width="4.56" height="28.2"/><rect class="cls-2" x="82.43" y="45.96" width="5.91" height="1.07"/><rect class="cls-3" x="81.76" y="44.89" width="7.27" height="1.22"/><rect class="cls-2" x="82.43" y="74.56" width="5.91" height="1.22"/><rect class="cls-3" x="81.76" y="75.61" width="7.27" height="1.22"/><rect class="cls-4" x="75.05" y="46.53" width="3.55" height="28.2"/><rect class="cls-2" x="74.52" y="45.96" width="4.6" height="1.07"/><rect class="cls-3" x="74" y="44.89" width="5.65" height="1.22"/><rect class="cls-2" x="74.52" y="74.56" width="4.6" height="1.22"/><rect class="cls-3" x="74" y="75.61" width="5.65" height="1.22"/><rect class="cls-4" x="66.48" y="46.53" width="3.55" height="28.2"/><rect class="cls-2" x="65.96" y="45.96" width="4.6" height="1.07"/><rect class="cls-3" x="65.43" y="44.89" width="5.65" height="1.22"/><rect class="cls-2" x="65.96" y="74.56" width="4.6" height="1.22"/><rect class="cls-3" x="65.43" y="75.61" width="5.65" height="1.22"/><rect class="cls-4" x="57.92" y="46.53" width="3.55" height="28.2"/><rect class="cls-2" x="57.39" y="45.96" width="4.6" height="1.07"/><rect class="cls-3" x="56.87" y="44.89" width="5.65" height="1.22"/><rect class="cls-2" x="57.39" y="74.56" width="4.6" height="1.22"/><rect class="cls-3" x="56.87" y="75.61" width="5.65" height="1.22"/><rect class="cls-4" x="49.35" y="46.53" width="3.55" height="28.2"/><rect class="cls-2" x="48.83" y="45.96" width="4.6" height="1.07"/><rect class="cls-3" x="48.3" y="44.89" width="5.65" height="1.22"/><rect class="cls-2" x="48.83" y="74.56" width="4.6" height="1.22"/><rect class="cls-3" x="48.3" y="75.61" width="5.65" height="1.22"/><rect class="cls-4" x="40.79" y="46.53" width="3.55" height="28.2"/><rect class="cls-2" x="40.26" y="45.96" width="4.6" height="1.07"/><rect class="cls-3" x="39.74" y="44.89" width="5.65" height="1.22"/><rect class="cls-2" x="40.26" y="74.56" width="4.6" height="1.22"/><rect class="cls-3" x="39.74" y="75.61" width="5.65" height="1.22"/><path class="cls-5" d="M34.44,38.17v5h-3.5v-5h3.5m.19-.19H30.75v5.44h3.88V38Z"/><line class="cls-6" x1="32.69" y1="39.14" x2="32.69" y2="42.25"/><path class="cls-5" d="M88.83,38.17v5h-3.5v-5h3.5M89,38H85.14v5.44H89V38Z"/><line class="cls-6" x1="87.08" y1="39.14" x2="87.08" y2="42.25"/><path class="cls-5" d="M82.78,38.17v5H79.29v-5h3.49M83,38H79.09v5.44H83V38Z"/><line class="cls-6" x1="81.04" y1="39.14" x2="81.04" y2="42.25"/><path class="cls-5" d="M76.74,38.17v5h-3.5v-5h3.5m.2-.19H73.05v5.44h3.89V38Z"/><line class="cls-6" x1="74.99" y1="39.14" x2="74.99" y2="42.25"/><path class="cls-5" d="M70.7,38.17v5H67.2v-5h3.5m.19-.19H67v5.44h3.88V38Z"/><line class="cls-6" x1="68.95" y1="39.14" x2="68.95" y2="42.25"/><path class="cls-5" d="M64.65,38.17v5H61.16v-5h3.49m.2-.19H61v5.44h3.89V38Z"/><line class="cls-6" x1="62.91" y1="39.14" x2="62.91" y2="42.25"/><path class="cls-5" d="M58.61,38.17v5h-3.5v-5h3.5m.2-.19H54.92v5.44h3.89V38Z"/><line class="cls-6" x1="56.86" y1="39.14" x2="56.86" y2="42.25"/><path class="cls-5" d="M52.57,38.17v5h-3.5v-5h3.5m.19-.19H48.88v5.44h3.88V38Z"/><line class="cls-6" x1="50.82" y1="39.14" x2="50.82" y2="42.25"/><path class="cls-5" d="M46.52,38.17v5H43v-5h3.49m.2-.19H42.83v5.44h3.89V38Z"/><line class="cls-6" x1="44.78" y1="39.14" x2="44.78" y2="42.25"/><path class="cls-5" d="M40.48,38.17v5H37v-5h3.5m.2-.19H36.79v5.44h3.89V38Z"/><line class="cls-6" x1="38.73" y1="39.14" x2="38.73" y2="42.25"/></g></svg>