<svg xmlns="http://www.w3.org/2000/svg" viewBox="0 0 120 120">
    <defs>
        <style>
            .cls-1 {
                fill: #fff;
            }

            .cls-2 {
                fill: #B2A89A;
            }

            .cls-3 {
                fill: #9B9186;
            }
        </style>
    </defs>
    <g id="Human_statue" data-name="Human statue">
        <circle class="cls-1" cx="60" cy="60" r="60" />
        <path class="cls-2" d="M54.31,96.79H65.55l1.62-24.73s2-6.92,2-8.9V55l6.49-6.32a4.48,4.48,0,0,0,.81-5.33L71.94,35a6,6,0,0,0-2.3-2.36L64.2,29.52,64,28.59a4.63,4.63,0,0,1,.39-2.95l.76-1.51a6.82,6.82,0,0,0,.7-2.5c.23-2.93.08-9.25-5.62-9.32-5.41-.07-6.09,5.32-6.06,8.24a6.67,6.67,0,0,0,.79,3.1L56.25,26a4.59,4.59,0,0,1,.53,2.15V30L52.5,31.24a6,6,0,0,0-3.8,3.24L44.27,44a4.47,4.47,0,0,0,.9,5.07l5.53,5.5s.15,8.11.15,10.09,2,7.92,2,7.92Z" />
        <rect class="cls-3" x="45.16" y="96.3" width="29.68" height="4.95" />
        <rect class="cls-3" x="37" y="100.75" width="46" height="4.95" />
    </g>
</svg>