
<svg xmlns="http://www.w3.org/2000/svg" viewBox="0 0 120 120"><defs><style>.cls-1{fill:#fff;}.cls-2{fill:#b2a89a;}.cls-3{fill:#c9bfad;}.cls-4{fill:#e0d3bd;}.cls-5{fill:#9b9186;}.cls-6{opacity:0.85;}.cls-7{fill:#1a1a1a;}.cls-8{fill:#4d4d4d;}</style></defs><g id="Theater"><circle class="cls-1" cx="60" cy="60" r="60"/><polygon class="cls-2" points="97.2 21.09 97.2 22.31 21.73 22.31 21.73 21.09 59.47 17 97.2 21.09"/><rect class="cls-3" x="27.79" y="48.83" width="9.37" height="2.49"/><rect class="cls-2" x="26.72" y="50.96" width="11.51" height="2.49"/><path class="cls-4" d="M90.08,24.8V49.17H82.85V29.87h-.18c0-2.75-4.46-5-10-5s-10,2.23-10,5h-.06v19.3H55.44V29.87h-.18c0-2.75-4.28-5-9.55-5s-9.56,2.23-9.56,5h-.06v19.3H28.86V24.8Z"/><rect class="cls-3" x="54.37" y="48.83" width="9.37" height="2.49"/><rect class="cls-2" x="53.29" y="50.96" width="11.51" height="2.49"/><rect class="cls-3" x="81.78" y="48.83" width="9.37" height="2.49"/><rect class="cls-2" x="80.7" y="50.96" width="11.51" height="2.49"/><rect class="cls-2" x="21.74" y="22.31" width="75.47" height="2.49"/><path class="cls-4" d="M35,91l-4.12,7.13A65,65,0,0,1,21.7,94l4.39-7.59A54.78,54.78,0,0,0,35,91Z"/><path class="cls-4" d="M40,82.26l-3.8,6.59a52.67,52.67,0,0,1-8.89-4.55l3.86-6.69A43.48,43.48,0,0,0,40,82.26Z"/><path class="cls-4" d="M44.78,73.93l-3.64,6.32a39.37,39.37,0,0,1-8.7-4.89L36.11,69A27.85,27.85,0,0,0,44.78,73.93Z"/><path class="cls-4" d="M48.88,66.84l-3,5.22a32.63,32.63,0,0,1-8.77-4.76l3-5.23A23.34,23.34,0,0,0,48.88,66.84Z"/><path class="cls-4" d="M80.06,68.73l-9.15,4.11-3-5.3a27.08,27.08,0,0,0,9.31-3.82Z"/><path class="cls-4" d="M84.67,76.72a40.81,40.81,0,0,1-9,4.36L72,74.74a31.61,31.61,0,0,0,9.12-4.15Z"/><path class="cls-4" d="M89.75,85.52a54.88,54.88,0,0,1-9.11,4.16l-3.81-6.6a46.1,46.1,0,0,0,9.09-4.19Z"/><path class="cls-4" d="M95.26,95.06A68.16,68.16,0,0,1,86,98.88l-4.07-7.06A57.15,57.15,0,0,0,91,87.6Z"/><path class="cls-5" d="M86,98.88A84.36,84.36,0,0,1,59.52,103a83.23,83.23,0,0,1-28.69-4.91L35,91a64.82,64.82,0,0,0,24.57,4.69,65.57,65.57,0,0,0,22.36-3.83Z"/><path class="cls-2" d="M35,91l-4.12,7.13A65,65,0,0,1,21.7,94a54.59,54.59,0,0,1-9-6.12,2,2,0,0,1-.38-2.7l3-4.49a2,2,0,0,1,3.1-.31,47.08,47.08,0,0,0,7.61,6A54.78,54.78,0,0,0,35,91Z"/><path class="cls-2" d="M107.31,87a54.43,54.43,0,0,1-12,8.08A68.16,68.16,0,0,1,86,98.88l-4.07-7.06A57.15,57.15,0,0,0,91,87.6a48.09,48.09,0,0,0,10.47-8.11,2,2,0,0,1,3.14.26l3.09,4.57A2.05,2.05,0,0,1,107.31,87Z"/><path class="cls-5" d="M80.64,89.68a64.07,64.07,0,0,1-21.12,3.51,63.15,63.15,0,0,1-23.35-4.34L40,82.26a53.6,53.6,0,0,0,19.55,3.58,54.24,54.24,0,0,0,17.31-2.76Z"/><path class="cls-2" d="M40,82.26l-3.8,6.59a52.67,52.67,0,0,1-8.89-4.55A44.43,44.43,0,0,1,20,78.48a2.06,2.06,0,0,1-.25-2.6l2.17-3.23a2,2,0,0,1,3.15-.26,35.22,35.22,0,0,0,6.09,5.22A43.48,43.48,0,0,0,40,82.26Z"/><path class="cls-2" d="M100,77.5a43.92,43.92,0,0,1-10.25,8,54.88,54.88,0,0,1-9.11,4.16l-3.81-6.6a46.1,46.1,0,0,0,9.09-4.19,36.49,36.49,0,0,0,8.89-7.42,2,2,0,0,1,3.19.22L100.22,75A2,2,0,0,1,100,77.5Z"/><path class="cls-5" d="M75.67,81.08a49.14,49.14,0,0,1-16.15,2.66,48.65,48.65,0,0,1-18.38-3.49l3.64-6.32a43.68,43.68,0,0,0,14.9,2.46A44.6,44.6,0,0,0,72,74.74Z"/><path class="cls-2" d="M44.78,73.93l-3.64,6.32a39.37,39.37,0,0,1-8.7-4.89,32.14,32.14,0,0,1-5.37-5.08,2,2,0,0,1,0-2.54l2.19-2.84a2,2,0,0,1,3.26.12,0,0,0,0,1,0,0,20.85,20.85,0,0,0,3.62,4A27.85,27.85,0,0,0,44.78,73.93Z"/><path class="cls-2" d="M92.86,69.16a31.88,31.88,0,0,1-8.19,7.56,40.81,40.81,0,0,1-9,4.36L72,74.74a31.61,31.61,0,0,0,9.12-4.15,21.42,21.42,0,0,0,6.2-6.28.41.41,0,0,0,.07-.11,2,2,0,0,1,3.35-.2l2.08,2.69A2,2,0,0,1,92.86,69.16Z"/><path class="cls-5" d="M70.91,72.84a41,41,0,0,1-11.32,1.57,40.49,40.49,0,0,1-13.73-2.35l3-5.22a36.59,36.59,0,0,0,10.84,1.55,38.06,38.06,0,0,0,8.14-.85Z"/><path class="cls-2" d="M48.88,66.84l-3,5.22a32.63,32.63,0,0,1-8.77-4.76A25.79,25.79,0,0,1,33,63.38a1.68,1.68,0,0,1,0-2.08L34.77,59a1.65,1.65,0,0,1,2.67.1s0,0,0,0a16.61,16.61,0,0,0,2.66,3A23.34,23.34,0,0,0,48.88,66.84Z"/><path class="cls-2" d="M86.9,62.46a25.68,25.68,0,0,1-6.84,6.27l-9.15,4.11-3-5.3a27.08,27.08,0,0,0,9.31-3.82,17.9,17.9,0,0,0,5.21-5.23.7.7,0,0,0,.06-.09,1.66,1.66,0,0,1,2.74-.16l1.71,2.2A1.68,1.68,0,0,1,86.9,62.46Z"/><g class="cls-6"><path class="cls-7" d="M58.49,42.07a71.72,71.72,0,0,1-2.93,20.38,12.46,12.46,0,0,1-21,5A71.5,71.5,0,0,1,16.5,33.77a76.7,76.7,0,0,0,39.37-11A72,72,0,0,1,58.49,42.07Z"/><path class="cls-8" d="M25.3,45.84c1.51-3,9.05-4.53,9.05-4.53"/><path class="cls-1" d="M25.2,45.79a3.88,3.88,0,0,1,1.37-2.57,8.18,8.18,0,0,1,2.37-1.5A9.94,9.94,0,0,1,31.56,41a7.28,7.28,0,0,1,2.77.18l0,.2a12.44,12.44,0,0,1-2.25,1.48c-.75.4-1.5.74-2.25,1l-2.23.88a11.16,11.16,0,0,0-2.25,1.07Z"/><path class="cls-8" d="M43.4,39.8c3-1.51,9.07,0,9.07,0"/><path class="cls-1" d="M43.36,39.71a4.29,4.29,0,0,1,2.17-1.29A7.78,7.78,0,0,1,48,38.16a8.68,8.68,0,0,1,2.37.42A6.51,6.51,0,0,1,52.5,39.7l0,.2a16.78,16.78,0,0,1-4.58.25L45.71,40c-.72-.06-1.43-.11-2.26-.11Z"/><path class="cls-1" d="M34.4,55.92a21.5,21.5,0,0,1,2.28.42l2.17.34a14.06,14.06,0,0,0,4-.08A9,9,0,0,0,46.31,55a17.42,17.42,0,0,0,3-3.13l.2,0a7.38,7.38,0,0,1-1.69,4.61,7.66,7.66,0,0,1-4.46,2.71,9.68,9.68,0,0,1-5.06-.49,17.65,17.65,0,0,1-2.17-1.1,17.11,17.11,0,0,1-1.86-1.52Z"/><path class="cls-7" d="M96,71.15A72.08,72.08,0,0,1,83.37,87.46a12.46,12.46,0,0,1-20.7-6,71.43,71.43,0,0,1,.81-38.21,76.59,76.59,0,0,0,39.67,9.83A71.77,71.77,0,0,1,96,71.15Z"/><path class="cls-8" d="M65.2,58.1c2.8-1.88,10.11.52,10.11.52"/><path class="cls-1" d="M65.14,58a3.82,3.82,0,0,1,2.46-1.56,8,8,0,0,1,2.79-.14A9.91,9.91,0,0,1,73,57a7,7,0,0,1,2.32,1.52l-.06.19a12,12,0,0,1-2.69.18c-.85,0-1.67-.09-2.48-.19l-2.38-.33a10.8,10.8,0,0,0-2.47-.18Z"/><path class="cls-8" d="M83.93,61.76c3.37.17,7.9,4.46,7.9,4.46"/><path class="cls-1" d="M83.94,61.65a4.42,4.42,0,0,1,2.52,0,7.94,7.94,0,0,1,2.25,1,8.77,8.77,0,0,1,1.85,1.52,6.68,6.68,0,0,1,1.34,2l-.14.15a17.12,17.12,0,0,1-4.11-2l-1.81-1.19c-.6-.4-1.19-.79-1.91-1.21Z"/><path class="cls-1" d="M66.5,77.37a9.5,9.5,0,0,1,3.68-3.51,7.23,7.23,0,0,1,5.48-.6A8.4,8.4,0,0,1,80,76.5a9.9,9.9,0,0,1,1.83,4.73l-.19.08A40.41,40.41,0,0,0,78.37,78a9.88,9.88,0,0,0-3.49-2.13,6.93,6.93,0,0,0-3.91,0,25.68,25.68,0,0,0-4.34,1.7Z"/></g></g></svg>